<svg xmlns="http://www.w3.org/2000/svg">
<symbol id="008295" viewBox="0 0 24 24"><path d="M17.5 3a2.998 2.998 0 0 1 1 5.825V9a4 4 0 0 1-4 4h-5a2 2 0 0 0-2 2v.174A2.998 2.998 0 0 1 6.5 21a3 3 0 0 1-1-5.826V8.825A2.998 2.998 0 0 1 6.5 3a2.998 2.998 0 0 1 1 5.825v2.711a4 4 0 0 1 2-.536h5a2 2 0 0 0 2-2v-.175A2.998 2.998 0 0 1 17.5 3m-11 14a1 1 0 1 0 0 2 1 1 0 0 0 0-2m0-12a1 1 0 1 0 0 2 1 1 0 0 0 0-2m11 0a1 1 0 1 0 0 2 1 1 0 0 0 0-2"/></symbol>
<symbol id="03e9d0" viewBox="0 0 24 24" fill="none"><g clip-path="url(#03e9d0__a)"><path fill="url(#03e9d0__b)" d="M12.5 3.004c-.71.003-1.387.064-1.983.17-1.756.313-2.075.967-2.075 2.174v1.594h4.15v.53H6.885c-1.206 0-2.263.731-2.593 2.12-.38 1.593-.398 2.587 0 4.25.295 1.238 1 2.12 2.206 2.12h1.426v-1.91c0-1.38 1.186-2.598 2.593-2.598h4.145c1.154 0 2.075-.957 2.075-2.125V5.348c0-1.133-.949-1.984-2.075-2.173a13 13 0 0 0-2.162-.17m-2.244 1.282a.79.79 0 0 1 .778.799c0 .439-.35.794-.778.794a.786.786 0 0 1-.779-.794c0-.44.349-.8.779-.8"/><path fill="url(#03e9d0__c)" d="M17.254 7.471v1.857c0 1.44-1.211 2.65-2.593 2.65h-4.145c-1.135 0-2.075.98-2.075 2.126v3.98c0 1.134.978 1.8 2.075 2.125 1.314.39 2.574.46 4.145 0 1.045-.304 2.075-.918 2.075-2.124V16.49h-4.145v-.53h6.22c1.206 0 1.656-.848 2.075-2.12.433-1.31.415-2.57 0-4.25-.298-1.21-.867-2.12-2.075-2.12zm-2.332 10.083c.43 0 .78.355.78.794s-.35.8-.78.8a.79.79 0 0 1-.778-.8c0-.44.35-.794.778-.794"/></g><defs><linearGradient id="03e9d0__b" x1="4" x2="13.63" y1="3.004" y2="11.148" gradientUnits="userSpaceOnUse"><stop stop-color="#5a9fd4"/><stop offset="1" stop-color="#306998"/></linearGradient><linearGradient id="03e9d0__c" x1="14.823" x2="11.356" y1="18.214" y2="13.392" gradientUnits="userSpaceOnUse"><stop stop-color="#ffd43b"/><stop offset="1" stop-color="#ffe873"/></linearGradient><clipPath id="03e9d0__a"><path fill="#fff" d="M4 3h18v18H4z"/></clipPath></defs></symbol>
<symbol id="0e4f30" viewBox="0 0 24 24" fill-rule="evenodd" clip-rule="evenodd"><path d="M4.938 5.996a1.063 1.063 0 1 1 2.125 0 1.063 1.063 0 0 1-2.125 0M6 3.06a2.938 2.938 0 0 0-.937 5.722v6.43A2.939 2.939 0 0 0 6 20.934a2.938 2.938 0 0 0 .938-5.723v-6.43A2.939 2.939 0 0 0 6 3.059M4.938 17.996a1.063 1.063 0 1 1 2.125 0 1.063 1.063 0 0 1-2.125 0M14.663 4.66l-.404.404H16A2.937 2.937 0 0 1 18.938 8v3a.937.937 0 1 1-1.875 0V8c0-.587-.476-1.062-1.063-1.062h-1.733l.396.395a.938.938 0 0 1-1.326 1.326l-2-2a.94.94 0 0 1 0-1.326l2-2a.937.937 0 1 1 1.326 1.326m4.274 10.587a.938.938 0 0 0-1.875 0v1.563H15.5a.937.937 0 1 0 0 1.875h1.562v1.562a.937.937 0 1 0 1.875 0v-1.562H20.5a.938.938 0 0 0 0-1.875h-1.563z"/></symbol>
<symbol id="265471" viewBox="0 0 24 24"><path d="M18 4a3 3 0 0 1 3 3v7.5h.5l.102.005a1 1 0 0 1 .898.995V17a3 3 0 0 1-3 3h-15a3 3 0 0 1-2.996-2.846L1.5 17v-1.5l.005-.102A1 1 0 0 1 2.5 14.5H3V7a3 3 0 0 1 3-3zM3.5 17l.005.102A1 1 0 0 0 4.5 18h15a1 1 0 0 0 1-1v-.5h-17zM6 6a1 1 0 0 0-1 1v7.5h14V7a1 1 0 0 0-1-1z"/></symbol>
<symbol id="2e166e" viewBox="0 0 16 16" stroke="currentColor" fill="none"><path stroke-linecap="round" stroke-linejoin="round" stroke-width="1.3" d="m8 6.5 6-2-6-2-6 2zM2 6.833l6 2 6-2M2 9.167l6 2 6-2"/><path stroke-linecap="round" stroke-linejoin="round" stroke-opacity=".3" stroke-width="1.3" d="m2 11.5 6 2 6-2"/></symbol>
<symbol id="36ee55" viewBox="0 0 20 20"><path d="M2.72 4.22a.75.75 0 0 1 1.06 0l5.25 5.25a.75.75 0 0 1 0 1.06l-5.25 5.25a.75.75 0 0 1-1.06-1.06L7.44 10 2.72 5.28a.75.75 0 0 1 0-1.06M10 15.25a.75.75 0 0 1 .75-.75h6a.75.75 0 0 1 0 1.5h-6a.75.75 0 0 1-.75-.75"/></symbol>
<symbol id="48254b" viewBox="0 0 16 16" stroke="currentColor" fill="none"><path stroke-linecap="round" stroke-linejoin="round" stroke-width="1.3" d="m8 6.5 6-2-6-2-6 2zM2 6.833l6 2 6-2M2 9.167l6 2 6-2M2 11.5l6 2 6-2"/></symbol>
<symbol id="4d853d" viewBox="0 0 24 24" fill="none"><g clip-path="url(#4d853d__a)"><path fill="#f05138" d="M20 8.434V7.95c-.016-.347-.031-.709-.091-1.056a3.4 3.4 0 0 0-.332-.995 3.1 3.1 0 0 0-.618-.844 3.7 3.7 0 0 0-.845-.619 3.4 3.4 0 0 0-.995-.331 6 6 0 0 0-1.056-.09H7.965c-.09 0-.18 0-.256.014-.257.015-.528.03-.784.076a4.3 4.3 0 0 0-.754.21c-.076.03-.166.076-.242.106-.24.12-.452.272-.663.438-.06.06-.136.12-.196.18a3.7 3.7 0 0 0-.618.845 3.4 3.4 0 0 0-.332.995c-.06.347-.076.694-.09 1.056v8.098c.014.347.03.709.09 1.056.06.346.166.678.332.995.165.317.361.603.618.844.256.257.543.453.844.619.317.166.649.271.996.331.346.06.693.09 1.055.09h8.098c.347-.014.709-.03 1.056-.09s.678-.166.995-.331a3.1 3.1 0 0 0 .845-.619 3.7 3.7 0 0 0 .618-.844c.166-.317.271-.649.332-.995.06-.347.09-.694.09-1.056v-7.6"/><path fill="#fff" d="m16.668 13.878.045-.181c.664-2.64-.95-5.776-3.695-7.42 1.207 1.629 1.735 3.604 1.267 5.324-.045.15-.09.301-.15.452a1.1 1.1 0 0 0-.242-.136s-2.73-1.689-5.685-4.66c-.075-.075 1.583 2.368 3.453 4.344-.89-.498-3.348-2.293-4.916-3.71.196.317.422.633.664.92 1.297 1.659 3 3.694 5.036 5.263-1.432.874-3.453.95-5.459 0a8 8 0 0 1-1.402-.83 8.4 8.4 0 0 0 3.755 3.227c1.9.815 3.8.77 5.203.016 0 0 .015 0 .015-.015.06-.03.12-.076.18-.106.68-.347 2.006-.694 2.73.694.211.316.588-1.493-.8-3.182"/></g><defs><clipPath id="4d853d__a"><path fill="#fff" d="M4 4h16v16H4z"/></clipPath></defs></symbol>
<symbol id="51c3f0" viewBox="0 0 24 24" fill="none"><rect width="17" height="15" x="3.5" y="4.5" stroke="currentColor" stroke-width="2" rx="3"/><path fill="#f84e63" fill-opacity=".5" d="M6 8a1 1 0 0 1 1-1h3.25a1 1 0 0 1 1 1v8a1 1 0 0 1-1 1H7a1 1 0 0 1-1-1z"/><path fill="#36d958" fill-opacity=".5" d="M12.75 8a1 1 0 0 1 1-1H17a1 1 0 0 1 1 1v8a1 1 0 0 1-1 1h-3.25a1 1 0 0 1-1-1z"/></symbol>
<symbol id="62f67d" viewBox="0 0 24 24" fill="none"><mask id="62f67d__a" width="16" height="18" x="4" y="3" maskUnits="userSpaceOnUse" style="mask-type:luminance"><path fill="#fff" d="M11.57 3.114 4.43 7.186A.85.85 0 0 0 4 7.924v8.15a.85.85 0 0 0 .431.737l7.139 4.075a.87.87 0 0 0 .862 0l7.138-4.075a.85.85 0 0 0 .43-.738v-8.15a.85.85 0 0 0-.432-.737l-7.136-4.072a.88.88 0 0 0-.864 0"/></mask><g mask="url(#62f67d__a)" fill="url(#62f67d__b)"><path d="M27.214 6.495 7.1-3.25-3.213 17.544 16.9 27.288z"/></g><mask id="62f67d__c" width="16" height="18" x="4" y="3" maskUnits="userSpaceOnUse" style="mask-type:luminance"><path fill="#fff" d="M4.178 16.59a.9.9 0 0 0 .254.22l6.123 3.496 1.02.58a.87.87 0 0 0 .667.08L19.77 7.343a.9.9 0 0 0-.2-.158l-4.674-2.667-2.471-1.405a1 1 0 0 0-.224-.09z"/></mask><g mask="url(#62f67d__c)" fill="url(#62f67d__d)"><path d="M-4.52 9.376 9.683 28.374 28.466 14.66 14.262-4.338z"/></g><mask id="62f67d__e" width="16" height="18" x="4" y="3" maskUnits="userSpaceOnUse" style="mask-type:luminance"><path fill="#fff" d="M11.914 3.005a.9.9 0 0 0-.345.109L4.45 7.174l7.675 13.817a.9.9 0 0 0 .307-.105l7.138-4.075a.86.86 0 0 0 .417-.582l-7.824-13.21a1 1 0 0 0-.246-.014"/></mask><g mask="url(#62f67d__e)" fill="url(#62f67d__f)"><path d="M4.451 3.001v17.99h15.534V3z"/></g><defs><linearGradient id="62f67d__b" x1="17.151" x2="7.032" y1="1.607" y2="22.493" gradientUnits="userSpaceOnUse"><stop offset=".3" stop-color="#3e863d"/><stop offset=".5" stop-color="#55934f"/><stop offset=".8" stop-color="#5aad45"/></linearGradient><linearGradient id="62f67d__d" x1="2.667" x2="21.294" y1="18.984" y2="5.058" gradientUnits="userSpaceOnUse"><stop offset=".57" stop-color="#3e863d"/><stop offset=".72" stop-color="#619857"/><stop offset="1" stop-color="#76ac64"/></linearGradient><linearGradient id="62f67d__f" x1="4.456" x2="19.988" y1="11.997" y2="11.997" gradientUnits="userSpaceOnUse"><stop offset=".16" stop-color="#6bbf47"/><stop offset=".38" stop-color="#79b461"/><stop offset=".47" stop-color="#75ac64"/><stop offset=".7" stop-color="#659e5a"/><stop offset=".9" stop-color="#3e863d"/></linearGradient></defs></symbol>
<symbol id="67243e" viewBox="0 0 222 120" fill="none"><g clip-path="url(#67243e__a)"><mask id="67243e__b" width="216" height="114" x="3" y="3" maskUnits="userSpaceOnUse" style="mask-type:luminance"><path fill="#fff" d="M3.121 60c0 31.41 48.3 56.872 107.879 56.872 59.578 0 107.879-25.463 107.879-56.872S170.578 3.128 111 3.128 3.121 28.591 3.121 60"/></mask><g mask="url(#67243e__b)" fill="url(#67243e__c)"><path d="M3.121 60c0 31.41 48.3 56.872 107.879 56.872 59.578 0 107.879-25.463 107.879-56.872S170.578 3.128 111 3.128 3.121 28.591 3.121 60"/></g><mask id="67243e__d" width="226" height="128" x="-2" y="-4" maskUnits="userSpaceOnUse" style="mask-type:luminance"><path fill="#fff" d="M-1.373-3.348h224.746v126.696H-1.373z"/></mask><g mask="url(#67243e__d)" fill="#777bb3"><path d="M111 112.649c57.251 0 103.664-23.572 103.664-52.65 0-29.076-46.413-52.648-103.664-52.648S7.335 30.923 7.335 60 53.748 112.649 111 112.649"/></g><mask id="67243e__e" width="226" height="128" x="-2" y="-4" maskUnits="userSpaceOnUse" style="mask-type:luminance"><path fill="#fff" d="M-1.373-3.348h224.746v126.696H-1.373z"/></mask><g mask="url(#67243e__e)"><path fill="#000" d="M61.733 66.528c4.708 0 8.222-.87 10.446-2.585 2.2-1.698 3.719-4.639 4.515-8.741.743-3.835.46-6.512-.84-7.957-1.33-1.476-4.204-2.224-8.543-2.224h-7.523l-4.17 21.507zM37.127 93.02a1.174 1.174 0 0 1-1.149-1.397L47.03 34.63c.107-.551.589-.95 1.15-.95h23.822c7.486 0 13.059 2.038 16.562 6.057 3.521 4.04 4.609 9.686 3.232 16.783-.56 2.892-1.524 5.577-2.865 7.981-1.342 2.407-3.115 4.634-5.272 6.62-2.581 2.422-5.503 4.177-8.676 5.21-3.122 1.02-7.133 1.537-11.919 1.537h-9.646L50.664 92.07a1.17 1.17 0 0 1-1.149.95z"/><path fill="#fff" d="M60.753 46.194h6.558c5.237 0 7.056 1.151 7.674 1.838 1.026 1.139 1.22 3.542.56 6.947-.74 3.813-2.113 6.516-4.08 8.034-2.015 1.554-5.289 2.341-9.732 2.341h-4.695zm11.25-13.687H48.18c-1.12 0-2.084.797-2.298 1.899L34.83 91.4a2.35 2.35 0 0 0 .491 1.94c.445.54 1.108.853 1.807.853h12.388a2.34 2.34 0 0 0 2.298-1.898l2.57-13.254h8.682c4.91 0 9.042-.537 12.283-1.595 3.332-1.085 6.398-2.925 9.112-5.468 2.244-2.07 4.093-4.392 5.494-6.904 1.401-2.514 2.408-5.316 2.992-8.33 1.45-7.47.272-13.453-3.5-17.779-3.735-4.285-9.604-6.458-17.443-6.458M54.197 67.702h7.536q7.492 0 11.16-2.83 3.667-2.828 4.95-9.445 1.23-6.354-1.12-8.966-2.353-2.613-9.412-2.613h-8.488zm17.806-32.847q10.75 0 15.68 5.654 4.93 5.655 2.965 15.789-.81 4.175-2.737 7.632-1.93 3.46-5.043 6.329-3.71 3.48-8.245 4.958-4.535 1.48-11.558 1.478H52.454l-2.939 15.153H37.127L48.18 34.854z"/><path fill="#000" d="M120.202 77.868a1.175 1.175 0 0 1-1.15-1.397l4.89-25.217c.465-2.399.35-4.12-.323-4.847-.412-.445-1.65-1.19-5.309-1.19h-8.858l-6.147 31.701c-.107.552-.589.95-1.15.95h-12.29a1.174 1.174 0 0 1-1.15-1.397L99.77 19.477c.107-.55.589-.949 1.149-.949h12.291a1.17 1.17 0 0 1 1.149 1.397l-2.668 13.756h9.53c7.259 0 12.181 1.282 15.049 3.921 2.922 2.692 3.834 6.996 2.71 12.794l-5.142 26.522c-.107.552-.589.95-1.15.95z"/><path fill="#fff" d="M113.209 17.355h-12.291a2.34 2.34 0 0 0-2.298 1.898L87.567 76.247a2.35 2.35 0 0 0 .491 1.94c.445.54 1.107.854 1.807.854h12.291c1.12 0 2.084-.796 2.298-1.899l5.963-30.753h7.893c3.653 0 4.42.782 4.451.816.221.239.513 1.346.032 3.825l-4.89 25.217a2.35 2.35 0 0 0 .492 1.94c.445.54 1.107.854 1.807.854h12.486c1.12 0 2.084-.796 2.298-1.899l5.142-26.522c1.207-6.225.174-10.896-3.067-13.881-3.094-2.848-8.275-4.231-15.841-4.231h-8.11l2.397-12.36a2.35 2.35 0 0 0-.492-1.94 2.34 2.34 0 0 0-1.806-.853m0 2.346-2.939 15.153h10.95q10.333 0 14.257 3.612 3.922 3.614 2.353 11.707l-5.142 26.521h-12.486l4.889-25.217q.835-4.303-.614-5.868-1.45-1.566-6.167-1.566h-9.823l-6.331 32.651H89.865l11.053-56.993z"/><path fill="#000" d="M158.427 66.528c4.707 0 8.222-.87 10.445-2.585 2.2-1.697 3.72-4.639 4.516-8.741.743-3.835.46-6.512-.841-7.957-1.329-1.476-4.203-2.224-8.542-2.224h-7.523l-4.171 21.507zM133.821 93.02a1.175 1.175 0 0 1-1.149-1.397l11.053-56.993c.107-.551.589-.95 1.149-.95h23.822c7.488 0 13.06 2.038 16.563 6.057 3.521 4.04 4.608 9.686 3.232 16.783-.561 2.892-1.525 5.577-2.865 7.981-1.342 2.407-3.115 4.634-5.272 6.62-2.581 2.422-5.503 4.177-8.676 5.21-3.123 1.02-7.133 1.537-11.919 1.537h-9.647l-2.753 14.203c-.108.551-.589.95-1.15.95z"/><path fill="#fff" d="M157.447 46.194h6.558c5.237 0 7.056 1.151 7.674 1.838 1.026 1.139 1.219 3.542.56 6.947-.741 3.813-2.114 6.516-4.081 8.034-2.014 1.554-5.288 2.341-9.731 2.341h-4.695zm11.249-13.687h-23.822c-1.12 0-2.084.797-2.298 1.899L131.523 91.4a2.34 2.34 0 0 0 2.298 2.794h12.388a2.34 2.34 0 0 0 2.299-1.9l2.57-13.253h8.681c4.909 0 9.042-.537 12.283-1.595 3.332-1.085 6.399-2.925 9.113-5.469 2.244-2.069 4.092-4.39 5.493-6.903s2.408-5.316 2.992-8.33c1.449-7.47.272-13.453-3.5-17.78-3.735-4.284-9.604-6.456-17.444-6.456m-17.804 35.194h7.535q7.493 0 11.159-2.83 3.667-2.828 4.951-9.445 1.23-6.354-1.12-8.966-2.352-2.613-9.412-2.613h-8.488zm17.804-32.847q10.751 0 15.681 5.654 4.93 5.655 2.964 15.789-.809 4.175-2.737 7.632-1.929 3.46-5.042 6.329-3.71 3.48-8.245 4.958-4.536 1.48-11.558 1.478h-10.612l-2.938 15.153h-12.388l11.053-56.993z"/></g></g><defs><radialGradient id="67243e__c" cx="0" cy="0" r="1" gradientTransform="matrix(141.66 0 0 141.968 67.892 23.123)" gradientUnits="userSpaceOnUse"><stop stop-color="#aeb2d5"/><stop offset=".3" stop-color="#aeb2d5"/><stop offset=".75" stop-color="#484c89"/><stop offset="1" stop-color="#484c89"/></radialGradient><clipPath id="67243e__a"><path fill="#fff" d="M0 0h222v120H0z"/></clipPath></defs></symbol>
<symbol id="6e38ac" viewBox="0 0 16 16" stroke="currentColor" fill="none"><path stroke-linecap="round" stroke-linejoin="round" stroke-width="1.3" d="m8 6.5 6-2-6-2-6 2zM2 6.833l6 2 6-2"/><path stroke-linecap="round" stroke-linejoin="round" stroke-opacity=".3" stroke-width="1.3" d="m2 9.167 6 2 6-2M2 11.5l6 2 6-2"/></symbol>
<symbol id="789977" viewBox="0 0 24 24" fill="none"><path fill="url(#789977__a)" d="m11.925 24 10.425-6-10.425-6L1.5 18z"/><path fill="url(#789977__b)" d="M22.35 18V6L11.927 0v12z"/><path fill="url(#789977__c)" d="M11.925 0 1.5 6v12l10.425-6z"/><path fill="#555" d="M22.35 6 11.927 24V12z"/><path fill="#000" d="m22.35 6-10.425 6L1.5 6z"/><defs><linearGradient id="789977__a" x1="11.925" x2="11.925" y1="12" y2="24" gradientUnits="userSpaceOnUse"><stop offset=".16" stop-opacity=".39"/><stop offset=".658" stop-opacity=".8"/></linearGradient><linearGradient id="789977__b" x1="22.351" x2="11.926" y1="6.037" y2="12.15" gradientUnits="userSpaceOnUse"><stop offset=".182" stop-opacity=".31"/><stop offset=".715" stop-opacity="0"/></linearGradient><linearGradient id="789977__c" x1="11.925" x2="1.5" y1="0" y2="18" gradientUnits="userSpaceOnUse"><stop stop-opacity=".6"/><stop offset=".667" stop-opacity=".22"/></linearGradient></defs></symbol>
<symbol id="7e3797" viewBox="0 0 24 24" fill-rule="evenodd" clip-rule="evenodd"><path d="M5.438 5.996a1.063 1.063 0 1 1 2.125 0 1.063 1.063 0 0 1-2.125 0M6.5 3.06a2.938 2.938 0 0 0-.937 5.722v6.43a2.939 2.939 0 1 0 1.875 0v-6.43A2.939 2.939 0 0 0 6.5 3.059M5.438 17.996a1.063 1.063 0 1 1 2.125 0 1.063 1.063 0 0 1-2.125 0M17.5 16.941q.045 0 .089-.004a1.063 1.063 0 1 1-.178 0q.044.004.089.004m.938-5.937v4.207a2.939 2.939 0 1 1-1.875 0v-4.207a.937.937 0 1 1 1.875 0M16.413 3.59a.937.937 0 1 0-1.326 1.326l1.087 1.087-1.087 1.087a.938.938 0 0 0 1.326 1.326L17.5 7.33l1.087 1.087a.937.937 0 1 0 1.326-1.326l-1.087-1.087 1.087-1.087a.938.938 0 0 0-1.326-1.326L17.5 4.678z"/></symbol>
<symbol id="963c49" viewBox="0 0 24 24" fill="none"><g clip-path="url(#963c49__a)"><mask id="963c49__b" width="24" height="24" x="0" y="0" maskUnits="userSpaceOnUse" style="mask-type:alpha"><path fill="#fff" fill-rule="evenodd" d="M17.019 23.837c.378.147.809.137 1.19-.046l4.942-2.378A1.5 1.5 0 0 0 24 20.061V3.94a1.5 1.5 0 0 0-.85-1.352L18.21.21a1.49 1.49 0 0 0-1.705.29l-9.46 8.63-4.12-3.127a1 1 0 0 0-1.276.057L.327 7.262A1 1 0 0 0 .326 8.74L3.899 12 .326 15.26a1 1 0 0 0 .001 1.479l1.322 1.202a1 1 0 0 0 1.276.056l4.12-3.127 9.46 8.63c.15.15.325.262.514.336m.985-17.285-7.178 5.449 7.178 5.448z" clip-rule="evenodd"/></mask><g mask="url(#963c49__b)"><path fill="#0065a9" d="M23.152 2.592 18.207.21A1.495 1.495 0 0 0 16.5.5L.313 15.26a1 1 0 0 0 0 1.478l1.323 1.202a1 1 0 0 0 1.277.057L22.408 3.21A.993.993 0 0 1 24 4v-.057a1.5 1.5 0 0 0-.85-1.352"/><g filter="url(#963c49__c)" fill="#007acc"><path d="m23.152 21.409-4.945 2.38a1.495 1.495 0 0 1-1.706-.29L.313 8.74a1 1 0 0 1 0-1.478l1.323-1.202a1 1 0 0 1 1.277-.057l19.495 14.79A.993.993 0 0 0 24 20v.057a1.5 1.5 0 0 1-.85 1.352"/></g><g filter="url(#963c49__d)" fill="#1f9cf0"><path d="M18.206 23.791a1.5 1.5 0 0 1-1.706-.29c.553.553 1.5.161 1.5-.622V1.122c0-.783-.947-1.175-1.5-.621a1.5 1.5 0 0 1 1.706-.29l4.944 2.377c.52.25.85.775.85 1.352V20.06a1.5 1.5 0 0 1-.85 1.352z"/></g><path fill="url(#963c49__e)" fill-rule="evenodd" d="M17.005 23.837c.378.147.81.137 1.19-.046l4.942-2.378a1.5 1.5 0 0 0 .85-1.352V3.94a1.5 1.5 0 0 0-.85-1.352L18.196.21A1.49 1.49 0 0 0 16.49.5L7.03 9.13l-4.12-3.127a1 1 0 0 0-1.276.057L.313 7.262a1 1 0 0 0 0 1.479L3.885 12 .312 15.26a1 1 0 0 0 .001 1.479l1.322 1.202a1 1 0 0 0 1.276.056l4.12-3.127 9.46 8.63c.15.15.325.262.514.336m.985-17.285-7.177 5.449 7.177 5.448z" clip-rule="evenodd" opacity=".25" style="mix-blend-mode:overlay"/></g></g><defs><filter id="963c49__c" width="28.014" height="22.139" x="-2.014" y="3.799" color-interpolation-filters="sRGB" filterUnits="userSpaceOnUse"><feFlood flood-opacity="0" result="BackgroundImageFix"/><feColorMatrix in="SourceAlpha" result="hardAlpha" values="0 0 0 0 0 0 0 0 0 0 0 0 0 0 0 0 0 0 127 0"/><feOffset/><feGaussianBlur stdDeviation="1"/><feColorMatrix values="0 0 0 0 0 0 0 0 0 0 0 0 0 0 0 0 0 0 0.25 0"/><feBlend in2="BackgroundImageFix" mode="overlay" result="effect1_dropShadow_12737_7888"/><feBlend in="SourceGraphic" in2="effect1_dropShadow_12737_7888" result="shape"/></filter><filter id="963c49__d" width="11.5" height="27.877" x="14.5" y="-1.938" color-interpolation-filters="sRGB" filterUnits="userSpaceOnUse"><feFlood flood-opacity="0" result="BackgroundImageFix"/><feColorMatrix in="SourceAlpha" result="hardAlpha" values="0 0 0 0 0 0 0 0 0 0 0 0 0 0 0 0 0 0 127 0"/><feOffset/><feGaussianBlur stdDeviation="1"/><feColorMatrix values="0 0 0 0 0 0 0 0 0 0 0 0 0 0 0 0 0 0 0.25 0"/><feBlend in2="BackgroundImageFix" mode="overlay" result="effect1_dropShadow_12737_7888"/><feBlend in="SourceGraphic" in2="effect1_dropShadow_12737_7888" result="shape"/></filter><linearGradient id="963c49__e" x1="11.986" x2="11.986" y1=".062" y2="23.939" gradientUnits="userSpaceOnUse"><stop stop-color="#fff"/><stop offset="1" stop-color="#fff" stop-opacity="0"/></linearGradient><clipPath id="963c49__a"><path fill="#fff" d="M0 0h24v24H0z"/></clipPath></defs></symbol>
<symbol id="976c85" viewBox="0 0 16 16" fill-rule="evenodd" clip-rule="evenodd" fill="none"><path fill="currentColor" d="M2.708 7.334h2.306c.06-1.46.316-2.791.715-3.818a7 7 0 0 1 .181-.424 5.34 5.34 0 0 0-3.202 4.242m5.292-6a6.667 6.667 0 0 0-.666 13.3c.367.037.666-.265.666-.633v-.165c0-.277-.23-.554-.417-.758-.204-.221-.418-.579-.612-1.076-.33-.85-.563-2.013-.623-3.335H14a.667.667 0 0 0 .667-.666A6.667 6.667 0 0 0 8 1.334m0 1.333c-.073 0-.214.036-.417.256-.204.222-.418.579-.612 1.077-.33.85-.563 2.013-.623 3.334h3.304C9.592 6.013 9.359 4.85 9.029 4c-.194-.498-.408-.855-.611-1.077-.204-.22-.345-.256-.418-.256m2.986 4.667c-.06-1.46-.316-2.791-.715-3.818a7 7 0 0 0-.18-.424 5.34 5.34 0 0 1 3.201 4.242zM5.014 8.667H2.708A5.34 5.34 0 0 0 5.91 12.91a7 7 0 0 1-.181-.424c-.4-1.026-.655-2.358-.715-3.818m4.515 1.529c.26-.26.682-.26.942 0l1.196 1.195 1.195-1.195a.667.667 0 0 1 .943.943l-1.195 1.195 1.195 1.195a.667.667 0 0 1-.943.943l-1.195-1.195-1.196 1.195a.667.667 0 0 1-.942-.943l1.195-1.195-1.195-1.195a.667.667 0 0 1 0-.943"/><path fill="#ff8583" d="M9.529 10.195c.26-.26.682-.26.942 0l1.196 1.195 1.195-1.195a.667.667 0 1 1 .943.943l-1.195 1.195 1.195 1.196a.667.667 0 1 1-.943.942l-1.195-1.195-1.196 1.195a.667.667 0 1 1-.942-.942l1.195-1.196-1.195-1.195a.667.667 0 0 1 0-.943"/></symbol>
<symbol id="9bd180" viewBox="0 0 24 24" fill="none"><rect width="17" height="15" x="3.5" y="4.5" stroke="currentColor" stroke-width="2" rx="3"/><path fill="#f84e63" fill-opacity=".5" d="M6 8a1 1 0 0 1 1-1h10a1 1 0 0 1 1 1v2.25a1 1 0 0 1-1 1H7a1 1 0 0 1-1-1z"/><path fill="#36d958" fill-opacity=".5" d="M6 13.75a1 1 0 0 1 1-1h10a1 1 0 0 1 1 1V16a1 1 0 0 1-1 1H7a1 1 0 0 1-1-1z"/></symbol>
<symbol id="a8298c" viewBox="0 0 24 24" fill="none"><g stroke="#000" clip-path="url(#a8298c__a)"><path fill="#000" stroke-linejoin="round" stroke-width=".181" d="M10.459 9.374h2.355c1.449 0 1.449 1.45 0 1.45h-2.355zm-5.615 6.702h7.245v-1.992h-1.63v-1.45h1.811c1.993 0 .906 3.442 2.536 3.442h4.528v-3.441h-1.087v.362a.924.924 0 0 1-1.81.362c-.182-.905-.907-1.63-1.088-1.63 2.717-1.45 1.087-4.347-1.086-4.347H5.749v1.992h1.812v4.71H4.844z"/><path stroke-width="1.63" d="M11.998 19.796a7.789 7.789 0 1 0 0-15.577 7.789 7.789 0 0 0 0 15.577Z"/><path fill="#000" stroke-linejoin="round" stroke-width=".543" d="m20.328 12.553.906-.544-.906-.543zM20.063 14.167l.995-.357-.783-.71zM19.488 15.703l1.045-.156-.629-.848zM18.623 17.095l1.055.05-.451-.954zM17.505 18.287l1.025.256-.257-1.024zM16.174 19.24l.956.451-.052-1.055zM14.683 19.914l.849.63.155-1.046zM13.088 20.288l.71.782.356-.994zM11.454 20.346l.544.905.543-.905zM9.838 20.074l.357.994.71-.782zM8.306 19.503l.156 1.044.849-.628zM6.917 18.64l-.052 1.055.955-.451zM5.722 17.515l-.256 1.024 1.024-.256zM4.767 16.187l-.45.955 1.054-.051zM4.092 14.7l-.629.848 1.045.156zM3.72 13.1l-.783.71.995.356zM3.664 11.466l-.906.544.906.543zM3.933 9.853l-.995.356.783.71zM4.508 8.325l-1.045.155.629.849zM5.371 6.932l-1.055-.051.452.955zM6.491 5.732l-1.024-.256.256 1.024zM7.822 4.78l-.955-.452.051 1.055zM9.31 4.105l-.848-.629-.155 1.045zM10.904 3.732l-.71-.782-.356.994zM12.542 3.681l-.543-.906-.544.906zM14.158 3.945l-.357-.994-.71.782zM15.69 4.524l-.156-1.044-.849.628zM17.08 5.387l.05-1.055-.954.451zM18.272 6.504l.257-1.024-1.025.256zM19.229 7.832l.45-.955-1.054.051zM19.902 9.328l.629-.849-1.045-.155zM20.277 10.92l.782-.71-.995-.356z"/><path fill="#000" stroke-linejoin="round" stroke-width="1.087" d="m10.73 4.397 1.268 1.268 1.268-1.268zM18.842 8.447l-.814 1.598 1.597.813zM17.496 17.417l-1.77-.28-.282 1.77zM8.553 18.902l-.28-1.771-1.772.28zM4.371 10.862l1.598-.814-.814-1.597z"/></g><defs><clipPath id="a8298c__a"><path fill="#fff" d="M2.4 2.4h19.2v19.2H2.4z"/></clipPath></defs></symbol>
<symbol id="ab1ba8" viewBox="0 0 45 12"><path d="m36.45 11.182 2.681-3.732-2.606-3.673h2.266l1.54 2.281 1.54-2.28h2.118L41.44 7.39l2.666 3.791h-2.266l-1.6-2.355-1.658 2.355zM32.63 11.33c-2.37 0-3.821-1.674-3.821-3.85 0-2.207 1.658-3.851 3.761-3.851 2.31 0 3.717 1.688 3.717 3.702v.756H30.69c.178.992.933 1.688 1.926 1.688.8 0 1.466-.385 1.703-.933h1.88c-.385 1.318-1.629 2.488-3.569 2.488m-1.926-4.606h3.747c-.104-.903-.844-1.54-1.836-1.54-.933 0-1.704.622-1.91 1.54M27.653.816v10.367h-1.925v-.889c-.489.637-1.422 1.037-2.384 1.037-2.074 0-3.703-1.629-3.703-3.85s1.63-3.85 3.703-3.85c.992 0 1.895.31 2.384.932V.816zM23.67 5.304c-1.096 0-2.074.859-2.074 2.177s.978 2.177 2.073 2.177c1.096 0 2.074-.86 2.074-2.177s-.978-2.177-2.073-2.177M14.901 11.33c-2.206 0-3.91-1.748-3.91-3.85 0-2.104 1.704-3.851 3.91-3.851s3.91 1.747 3.91 3.85-1.703 3.85-3.91 3.85m0-1.718c1.022 0 2-.83 2-2.133s-.978-2.132-2-2.132c-1.021 0-1.999.83-1.999 2.132 0 1.304.978 2.133 2 2.133M5.346 11.33C2.266 11.33.118 8.947.118 6 .118 3.051 2.325.667 5.331.667c2.503 0 4.502 1.555 4.873 3.688H8.086c-.311-.978-1.363-1.778-2.725-1.778-1.866 0-3.184 1.437-3.184 3.421 0 1.985 1.318 3.421 3.214 3.421 1.362 0 2.399-.785 2.754-1.777h2.103c-.4 2.162-2.355 3.688-4.902 3.688"/></symbol>
<symbol id="ba96fd" viewBox="0 0 24 24" fill="none"><path fill="url(#ba96fd__a)" d="m11.925 24 10.425-6-10.425-6L1.5 18z"/><path fill="url(#ba96fd__b)" d="M22.35 18V6L11.927 0v12z"/><path fill="url(#ba96fd__c)" d="M11.925 0 1.5 6v12l10.425-6z"/><path fill="#e4e4e4" d="M22.35 6 11.927 24V12z"/><path fill="#fff" d="m22.35 6-10.425 6L1.5 6z"/><defs><linearGradient id="ba96fd__a" x1="11.925" x2="11.925" y1="12" y2="24" gradientUnits="userSpaceOnUse"><stop offset=".16" stop-color="#fff" stop-opacity=".39"/><stop offset=".658" stop-color="#fff" stop-opacity=".8"/></linearGradient><linearGradient id="ba96fd__b" x1="22.351" x2="11.926" y1="6.037" y2="12.15" gradientUnits="userSpaceOnUse"><stop offset=".182" stop-opacity=".31"/><stop offset=".715" stop-opacity="0"/></linearGradient><linearGradient id="ba96fd__c" x1="11.925" x2="1.5" y1="0" y2="18" gradientUnits="userSpaceOnUse"><stop stop-color="#fff" stop-opacity=".6"/><stop offset=".667" stop-color="#fff" stop-opacity=".22"/></linearGradient></defs></symbol>
<symbol id="bdcaf6" viewBox="0 0 1024 1024"><path d="M897.246 286.869h-7.427c-39.084-.061-70.802 31.591-70.802 70.67v158.05c0 31.561-26.087 57.127-57.135 57.127-18.446 0-36.862-9.283-47.789-24.866l-161.42-230.546c-13.393-19.144-35.187-30.557-58.778-30.557-36.801 0-69.919 31.287-69.919 69.91v158.962c0 31.562-25.873 57.127-57.134 57.127-18.507 0-36.893-9.283-47.821-24.865L138.395 289.882c-4.079-5.844-13.241-2.952-13.241 4.17v137.84c0 6.97 2.131 13.727 6.118 19.448L309.037 705.2c10.502 15.004 25.996 26.144 43.863 30.192 44.716 10.165 85.87-24.257 85.87-68.114V508.406c0-31.561 25.569-57.127 57.134-57.127h.091a58.38 58.38 0 0 1 47.79 24.866l161.45 230.516c13.424 19.174 34.092 30.557 58.748 30.557 37.623 0 69.858-31.318 69.858-69.91V508.376c0-31.561 25.569-57.127 57.134-57.127h6.301a7.145 7.145 0 0 0 7.154-7.152V294.021a7.145 7.145 0 0 0-7.154-7.152z"/></symbol>
<symbol id="c0d20b" viewBox="0 0 24 24" fill="none"><path fill="#5382a1" d="M9.511 16.694s-.726.422.517.565c1.505.172 2.275.147 3.934-.167 0 0 .436.274 1.045.51-3.72 1.595-8.417-.092-5.496-.908M9.06 14.613s-.815.603.429.732c1.608.166 2.878.18 5.076-.244 0 0 .304.308.782.477-4.497 1.315-9.506.103-6.287-.965"/><path fill="#f8981d" d="M12.89 11.084c.916 1.056-.241 2.005-.241 2.005s2.327-1.201 1.258-2.706c-.998-1.402-1.764-2.1 2.38-4.503 0 0-6.504 1.625-3.398 5.204"/><path fill="#5382a1" d="M17.809 18.232s.537.443-.592.785c-2.147.65-8.935.847-10.821.026-.678-.295.593-.704.993-.79.417-.09.656-.074.656-.074-.754-.53-4.873 1.043-2.093 1.494 7.584 1.23 13.824-.554 11.857-1.441M9.864 12.458s-3.454.82-1.223 1.118c.941.126 2.819.097 4.567-.05 1.43-.12 2.864-.376 2.864-.376s-.504.216-.868.465c-3.507.922-10.28.493-8.33-.45 1.649-.798 2.99-.707 2.99-.707M16.054 15.92c3.565-1.852 1.917-3.632.766-3.392-.282.059-.407.11-.407.11s.104-.165.304-.236c2.276-.8 4.026 2.36-.735 3.612 0 0 .056-.05.072-.094"/><path fill="#f8981d" d="M13.908 2s1.974 1.975-1.873 5.011c-3.084 2.436-.703 3.825-.001 5.412-1.8-1.624-3.122-3.054-2.235-4.385 1.3-1.954 4.905-2.901 4.109-6.038"/><path fill="#5382a1" d="M10.212 20.94c3.421.22 8.675-.121 8.8-1.74 0 0-.24.613-2.828 1.1-2.92.55-6.522.486-8.659.134 0 0 .438.362 2.686.506"/></symbol>
<symbol id="c164d5" viewBox="0 0 24 24" fill="none"><g fill="#00acd7" clip-path="url(#c164d5__a)"><path d="M3.512 11.017c-.04 0-.05-.018-.03-.043l.205-.235c.02-.026.068-.044.107-.044H7.27c.04 0 .049.026.03.053l-.166.226a.15.15 0 0 1-.098.052zM2.039 11.816q-.058-.002-.03-.043l.205-.235c.02-.026.068-.043.107-.043h4.44c.04 0 .059.026.05.052l-.079.208c-.01.035-.048.052-.087.052zM4.398 12.616c-.039 0-.048-.026-.029-.052l.136-.217a.13.13 0 0 1 .098-.053H6.55c.04 0 .059.026.059.061l-.02.209c0 .035-.039.06-.068.06zM14.503 10.86c-.614.14-1.032.244-1.636.383-.146.034-.156.043-.282-.087a1.3 1.3 0 0 0-.458-.33c-.613-.27-1.207-.192-1.762.13-.663.382-1.003.947-.994 1.651.01.696.546 1.27 1.315 1.365a1.91 1.91 0 0 0 1.655-.574c.088-.095.166-.2.263-.322h-1.88c-.204 0-.252-.113-.184-.26.126-.27.36-.722.496-.948a.26.26 0 0 1 .244-.139h3.544c-.02.235-.02.47-.058.704-.107.626-.37 1.2-.799 1.704-.7.826-1.616 1.338-2.775 1.478-.954.113-1.84-.053-2.619-.574q-1.078-.73-1.237-1.93c-.126-.947.185-1.799.828-2.546.691-.809 1.607-1.322 2.726-1.504.916-.148 1.792-.052 2.58.426.517.304.887.721 1.13 1.225.059.079.02.122-.097.148"/><path d="M17.725 15.667c-.887-.017-1.695-.243-2.376-.765-.575-.443-.935-1.008-1.052-1.677-.175-.982.127-1.851.789-2.625.71-.834 1.568-1.27 2.726-1.452.993-.156 1.928-.07 2.775.444.77.469 1.247 1.103 1.373 1.938.166 1.173-.214 2.13-1.12 2.947-.642.582-1.43.947-2.337 1.112-.262.043-.525.052-.779.078m2.317-3.511c-.01-.113-.01-.2-.03-.287-.175-.86-1.06-1.347-1.986-1.156-.905.183-1.49.695-1.704 1.512-.175.678.195 1.365.896 1.643a1.98 1.98 0 0 0 1.587-.052c.77-.356 1.188-.913 1.237-1.66"/></g><defs><clipPath id="c164d5__a"><path fill="#fff" d="M2 9h20v6.667H2z"/></clipPath></defs></symbol>
<symbol id="c4352c" viewBox="0 0 24 24" fill="none"><g fill-rule="evenodd" clip-path="url(#c4352c__a)" clip-rule="evenodd"><path fill="url(#c4352c__b)" d="m16.395 14.557-9.135 5.44 11.828-.806.91-11.96z"/><path fill="url(#c4352c__c)" d="m19.108 19.183-1.017-7.036-2.769 3.667z"/><path fill="url(#c4352c__d)" d="m19.122 19.187-7.447-.586L7.3 19.985z"/><path fill="url(#c4352c__e)" d="m7.312 19.986 1.86-6.112-4.094.878z"/><path fill="url(#c4352c__f)" d="m15.32 15.837-1.712-6.725-4.899 4.606z"/><path fill="url(#c4352c__g)" d="m19.61 9.206-4.63-3.793-1.29 4.181z"/><path fill="url(#c4352c__h)" d="m17.444 4.059-2.724 1.51-1.718-1.53z"/><path fill="url(#c4352c__i)" d="m4 16.799 1.141-2.087-.923-2.486z"/><path fill="#fff" d="m4.156 12.15.929 2.64 4.035-.907 4.607-4.294 1.3-4.14-2.047-1.45L9.5 5.305C8.403 6.328 6.275 8.35 6.199 8.389c-.076.04-1.406 2.558-2.043 3.76"/><path fill="url(#c4352c__j)" d="M7.419 7.405c2.376-2.363 5.44-3.76 6.616-2.57s-.071 4.08-2.448 6.443-5.402 3.835-6.577 2.645c-1.176-1.188.032-4.156 2.409-6.518"/><path fill="url(#c4352c__k)" d="m7.313 19.982 1.846-6.131 6.13 1.975c-2.216 2.084-4.682 3.846-7.976 4.156"/><path fill="url(#c4352c__l)" d="m13.738 9.577 1.574 6.252c1.852-1.953 3.514-4.052 4.328-6.648z"/><path fill="url(#c4352c__m)" d="M19.62 9.216c.63-1.907.776-4.641-2.195-5.15l-2.437 1.35z"/><path fill="#9e1209" d="M4 16.773c.087 3.146 2.35 3.193 3.315 3.22l-2.227-5.216z"/><path fill="url(#c4352c__n)" d="M13.744 9.589c1.423.877 4.29 2.638 4.349 2.67.09.052 1.236-1.937 1.496-3.061z"/><path fill="url(#c4352c__o)" d="m9.156 13.85 2.468 4.775c1.46-.793 2.602-1.76 3.649-2.796z"/><path fill="url(#c4352c__p)" d="m5.076 14.784-.35 4.175c.66.904 1.568.982 2.52.912-.689-1.72-2.065-5.157-2.17-5.087"/><path fill="url(#c4352c__q)" d="m14.973 5.425 4.902.69c-.261-1.112-1.065-1.83-2.434-2.053z"/></g><defs><linearGradient id="c4352c__b" x1="18.056" x2="14.667" y1="21.451" y2="15.483" gradientUnits="userSpaceOnUse"><stop stop-color="#fb7655"/><stop offset=".41" stop-color="#e42b1e"/><stop offset=".99" stop-color="#900"/><stop offset="1" stop-color="#900"/></linearGradient><linearGradient id="c4352c__c" x1="19.738" x2="15.381" y1="16.431" y2="13.515" gradientUnits="userSpaceOnUse"><stop stop-color="#871101"/><stop offset=".99" stop-color="#911209"/><stop offset="1" stop-color="#911209"/></linearGradient><linearGradient id="c4352c__d" x1="16.259" x2="11.901" y1="21.637" y2="18.721" gradientUnits="userSpaceOnUse"><stop stop-color="#871101"/><stop offset=".99" stop-color="#911209"/><stop offset="1" stop-color="#911209"/></linearGradient><linearGradient id="c4352c__e" x1="7.126" x2="7.804" y1="14.316" y2="18.71" gradientUnits="userSpaceOnUse"><stop stop-color="#fff"/><stop offset=".23" stop-color="#e57252"/><stop offset=".46" stop-color="#de3b20"/><stop offset=".99" stop-color="#a60003"/><stop offset="1" stop-color="#a60003"/></linearGradient><linearGradient id="c4352c__f" x1="11.762" x2="12.012" y1="10.212" y2="14.697" gradientUnits="userSpaceOnUse"><stop stop-color="#fff"/><stop offset=".23" stop-color="#e4714e"/><stop offset=".56" stop-color="#be1a0d"/><stop offset=".99" stop-color="#a80d00"/><stop offset="1" stop-color="#a80d00"/></linearGradient><linearGradient id="c4352c__g" x1="15.878" x2="16.626" y1="6.065" y2="9.279" gradientUnits="userSpaceOnUse"><stop stop-color="#fff"/><stop offset=".18" stop-color="#e46342"/><stop offset=".4" stop-color="#c82410"/><stop offset=".99" stop-color="#a80d00"/><stop offset="1" stop-color="#a80d00"/></linearGradient><linearGradient id="c4352c__h" x1="13.607" x2="16.815" y1="4.931" y2="3.331" gradientUnits="userSpaceOnUse"><stop stop-color="#fff"/><stop offset=".54" stop-color="#c81f11"/><stop offset=".99" stop-color="#bf0905"/><stop offset="1" stop-color="#bf0905"/></linearGradient><linearGradient id="c4352c__i" x1="4.315" x2="4.58" y1="13.193" y2="15.841" gradientUnits="userSpaceOnUse"><stop stop-color="#fff"/><stop offset=".31" stop-color="#de4024"/><stop offset=".99" stop-color="#bf190b"/><stop offset="1" stop-color="#bf190b"/></linearGradient><linearGradient id="c4352c__j" x1="2.503" x2="14.94" y1="16.56" y2="3.806" gradientUnits="userSpaceOnUse"><stop stop-color="#bd0012"/><stop offset=".07" stop-color="#fff"/><stop offset=".17" stop-color="#fff"/><stop offset=".27" stop-color="#c82f1c"/><stop offset=".33" stop-color="#820c01"/><stop offset=".46" stop-color="#a31601"/><stop offset=".72" stop-color="#b31301"/><stop offset=".99" stop-color="#e82609"/><stop offset="1" stop-color="#e82609"/></linearGradient><linearGradient id="c4352c__k" x1="12.002" x2="8.266" y1="17.849" y2="16.929" gradientUnits="userSpaceOnUse"><stop stop-color="#8c0c01"/><stop offset=".54" stop-color="#990c00"/><stop offset=".99" stop-color="#a80d0e"/><stop offset="1" stop-color="#a80d0e"/></linearGradient><linearGradient id="c4352c__l" x1="18.419" x2="15.093" y1="13.353" y2="10.38" gradientUnits="userSpaceOnUse"><stop stop-color="#7e110b"/><stop offset=".99" stop-color="#9e0c00"/><stop offset="1" stop-color="#9e0c00"/></linearGradient><linearGradient id="c4352c__m" x1="19.635" x2="17.977" y1="7.883" y2="6.116" gradientUnits="userSpaceOnUse"><stop stop-color="#79130d"/><stop offset=".99" stop-color="#9e120b"/><stop offset="1" stop-color="#9e120b"/></linearGradient><linearGradient id="c4352c__p" x1="6.152" x2="4.798" y1="19.978" y2="15.397" gradientUnits="userSpaceOnUse"><stop stop-color="#8b2114"/><stop offset=".43" stop-color="#9e100a"/><stop offset=".99" stop-color="#b3100c"/><stop offset="1" stop-color="#b3100c"/></linearGradient><linearGradient id="c4352c__q" x1="16.486" x2="19.509" y1="4.793" y2="6.123" gradientUnits="userSpaceOnUse"><stop stop-color="#b31000"/><stop offset=".44" stop-color="#910f08"/><stop offset=".99" stop-color="#791c12"/><stop offset="1" stop-color="#791c12"/></linearGradient><radialGradient id="c4352c__n" cx="0" cy="0" r="1" gradientTransform="matrix(4.06663 0 0 4.07795 15.615 10.43)" gradientUnits="userSpaceOnUse"><stop stop-color="#a80d00"/><stop offset=".99" stop-color="#7e0e08"/><stop offset="1" stop-color="#7e0e08"/></radialGradient><radialGradient id="c4352c__o" cx="0" cy="0" r="1" gradientTransform="matrix(5.40604 0 0 5.42109 9.985 15.802)" gradientUnits="userSpaceOnUse"><stop stop-color="#a30c00"/><stop offset=".99" stop-color="#800e08"/><stop offset="1" stop-color="#800e08"/></radialGradient><clipPath id="c4352c__a"><path fill="#fff" d="M4 4h16v16H4z"/></clipPath></defs></symbol>
<symbol id="d3623f" viewBox="0 0 24 24" fill-rule="evenodd" clip-rule="evenodd"><path d="M6 5a1 1 0 1 0 0 2 1 1 0 0 0 0-2M3 6a3 3 0 0 1 5.83-1H15a4 4 0 0 1 4 4v6.17a3.001 3.001 0 1 1-2 0V9a2 2 0 0 0-2-2H8.83A3 3 0 0 1 7 8.83v6.34a3.001 3.001 0 1 1-2 0V8.83A3 3 0 0 1 3 6m3 11a1 1 0 1 0 0 2 1 1 0 0 0 0-2m11 1a1 1 0 1 1 2 0 1 1 0 0 1-2 0"/></symbol>
<symbol id="d3a21b" viewBox="0 0 16 16" stroke="currentColor" fill="none"><path stroke-linecap="round" stroke-linejoin="round" stroke-width="1.3" d="m8 6.5 6-2-6-2-6 2z"/><path stroke-linecap="round" stroke-linejoin="round" stroke-opacity=".3" stroke-width="1.3" d="m2 11.5 6 2 6-2M2 9.167l6 2 6-2M2 6.833l6 2 6-2"/></symbol>
<symbol id="dd777f" viewBox="0 0 24 24" fill="none"><g clip-path="url(#dd777f__a)"><path fill="#000" d="M18.218 9.148a2 2 0 0 0-.1-.1q-.05-.05-.1-.1t-.1-.1-.1-.1-.1-.1-.1-.1-.1-.1A5.3 5.3 0 0 1 19.1 12.14c0 3.314-3.364 6.01-7.5 6.01-2.316 0-4.388-.846-5.766-2.172l.1.1.1.1.1.1.1.1.1.1.1.1.1.1C7.91 18.06 10.028 18.95 12.4 18.95c4.136 0 7.5-2.696 7.5-6 0-1.412-.608-2.75-1.682-3.802"/><path fill="#fbf0df" d="M18.6 12.14c0 3.042-3.134 5.508-7 5.508s-7-2.466-7-5.508c0-1.886 1.2-3.552 3.044-4.54s2.992-2 3.956-2 1.788.826 3.956 2c1.844.988 3.044 2.654 3.044 4.54"/><path fill="#f6dece" d="M18.6 12.14a4.3 4.3 0 0 0-.16-1.156c-.546 6.66-8.67 6.98-11.864 4.988a8 8 0 0 0 5.024 1.676c3.86 0 7-2.47 7-5.508"/><path fill="#fffefc" d="M8.906 7.234c.894-.536 2.082-1.542 3.25-1.544a1.9 1.9 0 0 0-.556-.09c-.484 0-1 .25-1.65.626q-.338.2-.708.43a33 33 0 0 1-1.6.94C5.738 8.626 4.6 10.324 4.6 12.14v.238C5.812 8.096 8.014 7.77 8.906 7.234"/><path fill="#ccbea7" fill-rule="evenodd" d="M11.024 6.106A3.28 3.28 0 0 1 9.898 8.6c-.056.05-.012.146.06.118.674-.262 1.584-1.046 1.2-2.628-.016-.09-.134-.066-.134.016m.454 0A3.25 3.25 0 0 1 11.8 8.8c-.024.07.062.13.11.072.438-.56.82-1.672-.324-2.872-.058-.052-.148.028-.108.098zm.552-.034a3.29 3.29 0 0 1 1.37 2.352.066.066 0 0 0 .13.022c.184-.698.08-1.888-1.434-2.506-.08-.032-.132.076-.066.124zm-3.692 2.08a3.39 3.39 0 0 0 2.094-1.8c.036-.072.15-.044.132.036-.346 1.6-1.504 1.934-2.224 1.89-.076.002-.074-.104-.002-.126" clip-rule="evenodd"/><path fill="#000" d="M11.6 18.15c-4.136 0-7.5-2.696-7.5-6.01 0-2 1.236-3.866 3.306-4.984.6-.32 1.114-.642 1.572-.924q.377-.234.72-.438C10.4 5.378 11 5.1 11.6 5.1s1.124.24 1.78.628c.2.114.4.238.614.374.498.308 1.06.656 1.8 1.054 2.07 1.118 3.306 2.982 3.306 4.984 0 3.314-3.364 6.01-7.5 6.01m0-12.55c-.484 0-1 .25-1.65.626q-.338.2-.708.43a33 33 0 0 1-1.6.94C5.738 8.626 4.6 10.324 4.6 12.14c0 3.038 3.14 5.51 7 5.51s7-2.472 7-5.51c0-1.816-1.138-3.514-3.044-4.54-.756-.4-1.346-.776-1.824-1.072q-.327-.202-.6-.368c-.606-.36-1.048-.56-1.532-.56"/><path fill="#b71422" d="M13.01 13.6c-.09.368-.294.698-.584.942-.217.21-.499.343-.8.376a1.37 1.37 0 0 1-.826-.376 1.8 1.8 0 0 1-.576-.942.144.144 0 0 1 .16-.162h2.468a.14.14 0 0 1 .118.043.14.14 0 0 1 .04.12"/><path fill="#ff6164" d="M10.8 14.558c.224.216.514.35.824.38.309-.03.598-.165.822-.38a2 2 0 0 0 .2-.214 1.37 1.37 0 0 0-.98-.462 1.23 1.23 0 0 0-1 .556c.046.042.086.082.134.12"/><path fill="#000" d="M10.832 14.4a1.07 1.07 0 0 1 .838-.416c.3.01.585.13.8.338q.069-.075.132-.154a1.4 1.4 0 0 0-.942-.386 1.27 1.27 0 0 0-.978.472q.07.077.15.146"/><path fill="#000" d="M11.618 15.038a1.5 1.5 0 0 1-.89-.4 1.9 1.9 0 0 1-.622-1.01.24.24 0 0 1 .052-.2.28.28 0 0 1 .226-.102h2.468a.29.29 0 0 1 .226.102.24.24 0 0 1 .05.2 1.9 1.9 0 0 1-.622 1.01c-.243.23-.556.37-.888.4m-1.234-1.48c-.032 0-.04.014-.042.018.085.342.276.648.546.874.197.195.454.318.73.35.275-.032.531-.154.73-.346.27-.227.46-.533.544-.874a.04.04 0 0 0-.018-.015.04.04 0 0 0-.022-.003z"/><path fill="#febbd0" d="M14.645 13.724c.646 0 1.17-.308 1.17-.688s-.524-.688-1.17-.688c-.647 0-1.17.308-1.17.688s.523.688 1.17.688M8.59 13.724c.646 0 1.17-.308 1.17-.688s-.524-.688-1.17-.688-1.17.308-1.17.688.524.688 1.17.688"/><path fill="#000" fill-rule="evenodd" d="M9.14 12.76a1.102 1.102 0 1 0 .003-2.205 1.102 1.102 0 0 0-.004 2.205m4.953 0a1.102 1.102 0 1 0 .016-2.204 1.102 1.102 0 0 0-.016 2.204" clip-rule="evenodd"/><path fill="#fff" fill-rule="evenodd" d="M8.8 11.728a.414.414 0 1 0 .004-.829.414.414 0 0 0-.003.829m4.955 0a.414.414 0 1 0-.004 0z" clip-rule="evenodd"/></g><defs><clipPath id="dd777f__a"><path fill="#fff" d="M4 5h16v14H4z"/></clipPath></defs></symbol>
<symbol id="e03463" viewBox="0 0 24 24" fill-rule="evenodd" clip-rule="evenodd"><path d="M5.438 5.996a1.063 1.063 0 1 1 2.125 0 1.063 1.063 0 0 1-2.125 0M6.5 3.06a2.938 2.938 0 0 0-.937 5.722v6.43a2.939 2.939 0 1 0 1.875 0v-6.43A2.939 2.939 0 0 0 6.5 3.059M5.438 17.996a1.063 1.063 0 1 1 2.125 0 1.063 1.063 0 0 1-2.125 0M17.5 16.934a1.063 1.063 0 1 0 0 2.125 1.063 1.063 0 0 0 0-2.125m-2.937 1.062a2.938 2.938 0 1 1 5.875 0 2.938 2.938 0 0 1-5.875 0M19 6a1.5 1.5 0 1 1-3 0 1.5 1.5 0 0 1 3 0m-1.5 6.75a1.5 1.5 0 1 0 0-3 1.5 1.5 0 0 0 0 3"/></symbol>
</svg>