<svg xmlns="http://www.w3.org/2000/svg">
<symbol id="030f5c" viewBox="0 0 24 24" fill="none"><path fill="#0066da" d="m3.511 18.427.882 1.535c.183.323.447.576.756.761l3.15-5.492H2c0 .357.092.715.275 1.038z"/><path fill="#00ac47" d="m11.999 8.77-3.15-5.493c-.31.184-.573.438-.756.761l-5.82 10.154c-.179.316-.274.674-.274 1.039h6.3z"/><path fill="#ea4335" d="M18.85 20.723c.308-.185.572-.438.755-.761l.367-.635 1.752-3.058c.184-.323.275-.68.275-1.038h-6.3l1.34 2.654z"/><path fill="#00832d" d="m11.998 8.77 3.15-5.493A2 2 0 0 0 14.118 3H9.878c-.366 0-.722.104-1.03.277z"/><path fill="#2684fc" d="M15.698 15.23h-7.4l-3.15 5.493c.31.185.665.277 1.031.277h11.638a2.1 2.1 0 0 0 1.031-.277z"/><path fill="#ffba00" d="m18.815 9.115-2.91-5.077a2.1 2.1 0 0 0-.756-.761L12 8.769l3.7 6.462h6.289c0-.358-.092-.716-.275-1.039z"/></symbol>
<symbol id="0521e7" viewBox="0 0 24 24" fill="none"><path fill="url(#0521e7__a)" d="M2 9.2c0-2.52 0-3.78.49-4.743A4.5 4.5 0 0 1 4.457 2.49C5.42 2 6.68 2 9.2 2h5.6c2.52 0 3.78 0 4.743.49a4.5 4.5 0 0 1 1.967 1.967C22 5.42 22 6.68 22 9.2v5.6c0 2.52 0 3.78-.49 4.743a4.5 4.5 0 0 1-1.967 1.967C18.58 22 17.32 22 14.8 22H9.2c-2.52 0-3.78 0-4.743-.49a4.5 4.5 0 0 1-1.967-1.967C2 18.58 2 17.32 2 14.8z"/><path fill="#fff" d="M18 15a1.5 1.5 0 0 1-1.5 1.5h-9A1.5 1.5 0 0 1 6 15v-4.217l5.122 1.922a2.5 2.5 0 0 0 1.756 0L18 10.783z"/><path fill="#fff" d="M16.5 7.5A1.5 1.5 0 0 1 18 9v.716l-5.474 2.053c-.339.127-.713.127-1.052 0L6 9.716V9a1.5 1.5 0 0 1 1.5-1.5z"/><defs><linearGradient id="0521e7__a" x1="12" x2="12" y1="2" y2="22" gradientUnits="userSpaceOnUse"><stop stop-color="#00c0f8"/><stop offset="1" stop-color="#0070ff"/></linearGradient></defs></symbol>
<symbol id="057430" viewBox="0 0 24 24" fill="none"><path fill="#4285f4" d="M4 4a2 2 0 0 1 2-2h8l6 6v12a2 2 0 0 1-2 2H6a2 2 0 0 1-2-2z"/><path fill="#1967d2" d="m14 2 6 6h-4a2 2 0 0 1-2-2z"/><path fill="#fff" d="M8 13.75a.25.25 0 0 1 .25-.25h7.5a.25.25 0 0 1 .25.25v1a.25.25 0 0 1-.25.25h-7.5a.25.25 0 0 1-.25-.25zm0 3a.25.25 0 0 1 .25-.25h5.5a.25.25 0 0 1 .25.25v1a.25.25 0 0 1-.25.25h-5.5a.25.25 0 0 1-.25-.25zM8 10.75a.25.25 0 0 1 .25-.25h7.5a.25.25 0 0 1 .25.25v1a.25.25 0 0 1-.25.25h-7.5a.25.25 0 0 1-.25-.25z"/></symbol>
<symbol id="08f77b" viewBox="0 0 24 24" fill="none"><path fill="#f35325" d="M3.25 3.25h8v8h-8z"/><path fill="#81bc06" d="M12.75 3.25h8v8h-8z"/><path fill="#05a6f0" d="M3.25 12.75h8v8h-8z"/><path fill="#ffba08" d="M12.75 12.75h8v8h-8z"/></symbol>
<symbol id="103c8e" viewBox="0 0 24 24" fill="none"><g filter="url(#103c8e__a)"><rect width="15" height="15" x="1.65" y="6.5" fill="#fff" rx="3" transform="rotate(-8 1.65 6.5)"/><rect width="14.5" height="14.5" x="1.933" y="6.713" stroke="#8e8ea0" stroke-opacity=".1" stroke-width=".5" rx="2.75" transform="rotate(-8 1.933 6.713)"/></g><g filter="url(#103c8e__b)"><rect width="15" height="15" x="7.309" y="2.75" fill="#fff" rx="3" transform="rotate(5 7.309 2.75)"/><rect width="14.5" height="14.5" x="7.536" y="3.021" stroke="#8e8ea0" stroke-opacity=".1" stroke-width=".5" rx="2.75" transform="rotate(5 7.536 3.02)"/></g><path fill="#0364b8" d="m12.977 9.327 2.165 1.568 1.411-.454a2.2 2.2 0 0 1 1.04-.085 3.414 3.414 0 0 0-6.044-1.561q.018 0 .035.002c.505.043.988.227 1.393.53"/><path fill="#0078d4" d="M12.977 9.327a2.7 2.7 0 0 0-1.393-.53l-.035-.002a2.73 2.73 0 0 0-2.57 4.082l2.088-.672.928-.298 2.067-.665 1.08-.347z"/><path fill="#1490df" d="M17.595 10.356a2.21 2.21 0 0 0-1.04.086l-1.411.453.374.271 1.226.888.534.388 1.83 1.325a2.218 2.218 0 0 0-1.513-3.41"/><path fill="#28a8ea" d="m17.281 12.442-.534-.388-1.226-.888-.374-.27-1.08.346-2.067.665-.928.298-2.089.672a2.73 2.73 0 0 0 2.13 1.36l5.95.52a2.22 2.22 0 0 0 2.047-.99z"/><defs><filter id="103c8e__a" width="17.166" height="17.166" x="1.539" y="4.8" color-interpolation-filters="sRGB" filterUnits="userSpaceOnUse"><feFlood flood-opacity="0" result="BackgroundImageFix"/><feColorMatrix in="SourceAlpha" result="hardAlpha" values="0 0 0 0 0 0 0 0 0 0 0 0 0 0 0 0 0 0 127 0"/><feOffset dy=".5"/><feGaussianBlur stdDeviation=".25"/><feComposite in2="hardAlpha" operator="out"/><feColorMatrix values="0 0 0 0 0.337255 0 0 0 0 0.345098 0 0 0 0 0.411765 0 0 0 0.3 0"/><feBlend in2="BackgroundImageFix" result="effect1_dropShadow_376_5364"/><feBlend in="SourceGraphic" in2="effect1_dropShadow_376_5364" result="shape"/></filter><filter id="103c8e__b" width="16.75" height="16.75" x="5.751" y="3" color-interpolation-filters="sRGB" filterUnits="userSpaceOnUse"><feFlood flood-opacity="0" result="BackgroundImageFix"/><feColorMatrix in="SourceAlpha" result="hardAlpha" values="0 0 0 0 0 0 0 0 0 0 0 0 0 0 0 0 0 0 127 0"/><feOffset dy=".5"/><feGaussianBlur stdDeviation=".25"/><feComposite in2="hardAlpha" operator="out"/><feColorMatrix values="0 0 0 0 0.337255 0 0 0 0 0.345098 0 0 0 0 0.411765 0 0 0 0.3 0"/><feBlend in2="BackgroundImageFix" result="effect1_dropShadow_376_5364"/><feBlend in="SourceGraphic" in2="effect1_dropShadow_376_5364" result="shape"/></filter></defs></symbol>
<symbol id="10bf7e" viewBox="0 0 24 24" fill="none"><path fill="#fae501" d="M9.195 15.938A5.33 5.33 0 0 1 7.508 12a5.52 5.52 0 0 1 1.625-3.937 2.19 2.19 0 0 0 0-3.126 2.19 2.19 0 0 0-3.125 0C4.258 6.75 3.133 9.25 3.133 12a9.97 9.97 0 0 0 2.937 7.063c.875.875 2.25.875 3.125 0a2.31 2.31 0 0 0 0-3.125"/><path fill="#4fb5e1" d="M9.18 8.063a5.33 5.33 0 0 1 3.937-1.688A5.52 5.52 0 0 1 17.055 8c.875.875 2.25.875 3.125 0a2.19 2.19 0 0 0 0-3.125C18.367 3.125 15.867 2 13.117 2a9.97 9.97 0 0 0-7.062 2.938 2.19 2.19 0 0 0 0 3.125c.875.812 2.25.812 3.125 0"/><path fill="#f05751" d="M17.07 15.938a5.33 5.33 0 0 1-3.937 1.687A5.52 5.52 0 0 1 9.195 16a2.19 2.19 0 0 0-3.125 0 2.19 2.19 0 0 0 0 3.125C7.883 20.875 10.383 22 13.133 22a9.97 9.97 0 0 0 7.062-2.937 2.19 2.19 0 0 0 0-3.125 2.31 2.31 0 0 0-3.125 0"/><path fill="#0681b6" d="M7.633 8.688a2.187 2.187 0 1 0 0-4.375 2.187 2.187 0 0 0 0 4.375"/><path fill="#cd4739" d="M7.633 19.688a2.188 2.188 0 1 0 0-4.376 2.188 2.188 0 0 0 0 4.376"/></symbol>
<symbol id="10dd5e" viewBox="0 0 24 24"><path d="M9.584 21.706v-6.65H7.52V12h2.064v-1.317c0-3.404 1.54-4.98 4.88-4.98.632 0 1.724.124 2.172.248V8.72a13 13 0 0 0-1.156-.036c-1.64 0-2.272.62-2.272 2.236V12h3.268l-.56 3.056h-2.704v6.872C18.164 21.328 22 17.112 22 12c0-5.523-4.477-10-10-10S2 6.477 2 12c0 4.69 3.228 8.625 7.584 9.706"/></symbol>
<symbol id="161acc" viewBox="0 0 24 24" fill-rule="evenodd" clip-rule="evenodd" fill="#00ca88"><path d="M20.31 2.5a.1.1 0 0 1 .1.1v1.818a.1.1 0 0 1-.1.1l-7.3-.001v14.966h7.3a.1.1 0 0 1 .097.073l.003.026v1.819a.1.1 0 0 1-.073.096l-.026.003H3.69a.1.1 0 0 1-.095-.073l-.003-.026v-1.819a.1.1 0 0 1 .072-.096l.027-.003h7.3V4.517h-7.3a.1.1 0 0 1-.096-.073l-.003-.026V2.599a.1.1 0 0 1 .099-.099zM8.644 6.768a.1.1 0 0 1 .095.073l.004.026v10.266a.1.1 0 0 1-.073.096l-.026.003H3.692a.1.1 0 0 1-.096-.073l-.003-.026v-1.819a.1.1 0 0 1 .072-.095l.027-.004h3.033v-6.43H3.692a.1.1 0 0 1-.096-.073l-.003-.026V6.867a.1.1 0 0 1 .072-.096l.027-.003h4.951m8.535 0h3.133a.1.1 0 0 1 .096.073l.003.026v1.819a.1.1 0 0 1-.073.096l-.026.003h-3.034v6.43h3.034a.1.1 0 0 1 .096.073l.003.026v1.819a.1.1 0 0 1-.073.096l-.026.003H15.36a.1.1 0 0 1-.096-.073l-.003-.026V6.867a.1.1 0 0 1 .073-.096l.026-.003z"/></symbol>
<symbol id="162f25" viewBox="0 0 170 173" fill="none"><g style="opacity:1"><path d="M7.924.404h154.157a7.74 7.74 0 0 1 7.76 7.751v28.803c0 4.294-3.461 7.75-7.76 7.75H7.924a7.74 7.74 0 0 1-7.76-7.75V8.155c0-4.294 3.462-7.75 7.76-7.75" style="fill:#1b64b6;fill-opacity:1;fill-rule:evenodd;stroke-width:6.46864;stroke-linecap:square;paint-order:markers fill stroke"/><rect width="53.483" height="47.625" x=".212" y="30.049" ry="0" style="fill:#2179d2;fill-opacity:1;fill-rule:evenodd;stroke:none;stroke-width:6.46499;stroke-linecap:square;paint-order:markers fill stroke"/><rect width="53.484" height="47.625" x="116.336" y="30.049" ry="0" style="fill:#5edafe;fill-opacity:1;fill-rule:evenodd;stroke-width:6.46499;stroke-linecap:square;paint-order:markers fill stroke"/><rect width="62.64" height="47.625" x="53.695" y="30.049" ry="0" style="fill:#3ca8e8;fill-opacity:1;fill-rule:evenodd;stroke-width:6.99654;stroke-linecap:square;paint-order:markers fill stroke"/><rect width="53.484" height="47.625" x=".212" y="77.674" ry="0" style="fill:#1b64b6;fill-opacity:1;fill-rule:evenodd;stroke-width:6.46499;stroke-linecap:square;paint-order:markers fill stroke"/><rect width="53.484" height="47.625" x="116.336" y="77.674" ry="0" style="fill:#3ca8e8;fill-opacity:1;fill-rule:evenodd;stroke-width:6.46499;stroke-linecap:square;paint-order:markers fill stroke"/><rect width="62.64" height="47.625" x="53.695" y="77.674" ry="0" style="fill:#2179d2;fill-opacity:1;fill-rule:evenodd;stroke-width:6.99654;stroke-linecap:square;paint-order:markers fill stroke"/><rect width="53.484" height="47.625" x=".212" y="125.299" ry="7.751" style="fill:#154a8a;fill-opacity:1;fill-rule:evenodd;stroke-width:6.46499;stroke-linecap:square;paint-order:markers fill stroke"/><rect width="62.639" height="47.625" x="53.696" y="125.299" ry="0" style="fill:#1b64b6;fill-opacity:1;fill-rule:evenodd;stroke-width:6.99654;stroke-linecap:square;paint-order:markers fill stroke"/><rect width="53.484" height="47.625" x="116.336" y="125.299" ry="7.751" style="fill:#2179d2;fill-opacity:1;fill-rule:evenodd;stroke-width:6.46499;stroke-linecap:square;paint-order:markers fill stroke"/><path d="M.214 125.3h53.481l.003 47.624H8.425l-8.216-8.216z" style="fill:#154a8a;fill-opacity:1;stroke:none;stroke-width:.264583px;stroke-linecap:butt;stroke-linejoin:miter;stroke-opacity:1"/><path d="M169.822 125.3h-53.486l.002 47.624h45.273l8.216-8.216z" style="fill:#2179d2;fill-opacity:1;stroke:none;stroke-width:.264583px;stroke-linecap:butt;stroke-linejoin:miter;stroke-opacity:1"/></g></symbol>
<symbol id="165b4c" viewBox="0 0 24 24" fill="none"><path fill="#34a853" d="M4 4a2 2 0 0 1 2-2h8l6 6v12a2 2 0 0 1-2 2H6a2 2 0 0 1-2-2z"/><path fill="#188038" d="m14 2 6 6h-4a2 2 0 0 1-2-2z"/><path fill="#fff" d="M7.5 10.5a.5.5 0 0 0-.5.5v6.5a.5.5 0 0 0 .5.5h9a.5.5 0 0 0 .5-.5V11a.5.5 0 0 0-.5-.5zm3.75 6H8.5v-1.75h2.75zm0-2.75H8.5V12h2.75zm4.25 2.75h-2.75v-1.75h2.75zm0-2.75h-2.75V12h2.75z"/></symbol>
<symbol id="1a6f23" viewBox="0 0 24 24"><path d="M12 1.95c5.525 0 10 4.476 10 10a10.02 10.02 0 0 1-6.812 9.488c-.5.1-.688-.212-.688-.475 0-.337.012-1.412.012-2.75 0-.937-.312-1.537-.675-1.85 2.226-.25 4.563-1.1 4.563-4.937 0-1.1-.387-1.988-1.025-2.688.1-.25.45-1.275-.1-2.65 0 0-.837-.275-2.75 1.025a9.3 9.3 0 0 0-2.5-.337c-.85 0-1.7.112-2.5.337-1.913-1.287-2.75-1.025-2.75-1.025-.55 1.375-.2 2.4-.1 2.65-.638.7-1.025 1.6-1.025 2.688 0 3.825 2.325 4.687 4.55 4.937-.287.25-.55.688-.637 1.338-.575.262-2.013.687-2.913-.825-.187-.3-.75-1.038-1.538-1.025-.837.012-.337.475.013.662.425.238.912 1.125 1.025 1.413.2.562.85 1.637 3.362 1.175 0 .837.013 1.625.013 1.862 0 .263-.187.563-.687.475A9.99 9.99 0 0 1 2 11.951c0-5.525 4.475-10 10-10"/></symbol>
<symbol id="202a6d" viewBox="0 0 24 24"><path d="M20.204 4.008c.904.28 1.615 1.101 1.857 2.147C22.498 8.048 22.5 12 22.5 12s0 3.952-.44 5.845c-.241 1.046-.952 1.867-1.856 2.147C18.567 20.5 12 20.5 12 20.5s-6.567 0-8.204-.508c-.904-.28-1.615-1.101-1.857-2.147C1.5 15.952 1.5 12 1.5 12s0-3.952.44-5.845c.241-1.046.952-1.867 1.856-2.147C5.433 3.5 12 3.5 12 3.5s6.567 0 8.204.508M15.514 12 9.797 8.7v6.6z"/></symbol>
<symbol id="247087" viewBox="0 0 24 24"><path d="M12 4.212c2.537 0 2.837.01 3.839.055a5.3 5.3 0 0 1 1.763.327c.413.153.786.395 1.093.711.316.307.558.68.71 1.093.21.564.32 1.16.328 1.763.046 1.002.055 1.303.055 3.839s-.01 2.837-.055 3.839a5.3 5.3 0 0 1-.327 1.763 3.15 3.15 0 0 1-1.804 1.804c-.564.209-1.16.32-1.763.327-1.002.046-1.303.055-3.839.055s-2.837-.01-3.839-.055a5.3 5.3 0 0 1-1.764-.327 2.94 2.94 0 0 1-1.092-.711 2.94 2.94 0 0 1-.71-1.093 5.3 5.3 0 0 1-.328-1.763c-.046-1.002-.055-1.303-.055-3.839s.01-2.837.055-3.839a5.3 5.3 0 0 1 .327-1.763c.153-.413.395-.786.711-1.093.307-.316.68-.558 1.093-.71a5.3 5.3 0 0 1 1.763-.328c1.002-.046 1.303-.055 3.839-.055M12 2.5c-2.58 0-2.904.011-3.917.057a7 7 0 0 0-2.306.441 4.66 4.66 0 0 0-1.683 1.097 4.66 4.66 0 0 0-1.096 1.683 7 7 0 0 0-.44 2.305C2.51 9.096 2.5 9.42 2.5 12s.011 2.903.057 3.917c.016.788.165 1.567.441 2.306a4.66 4.66 0 0 0 1.097 1.683 4.66 4.66 0 0 0 1.683 1.096 7 7 0 0 0 2.305.44c1.013.048 1.337.058 3.917.058s2.903-.011 3.917-.057a7 7 0 0 0 2.306-.441 4.86 4.86 0 0 0 2.779-2.78 7 7 0 0 0 .44-2.305c.048-1.014.058-1.337.058-3.917s-.011-2.904-.057-3.917a7 7 0 0 0-.441-2.306 4.66 4.66 0 0 0-1.097-1.683 4.66 4.66 0 0 0-1.683-1.096 7 7 0 0 0-2.305-.44C14.903 2.51 14.58 2.5 12 2.5m0 4.621a4.879 4.879 0 1 0 0 9.758 4.879 4.879 0 0 0 0-9.758m0 8.046a3.167 3.167 0 1 1 0-6.334 3.167 3.167 0 0 1 0 6.334m5.071-9.378a1.14 1.14 0 1 0 0 2.28 1.14 1.14 0 0 0 0-2.28"/></symbol>
<symbol id="2611e7" viewBox="0 0 24 24" fill="none"><path fill="#ff4343" d="M4 4a2 2 0 0 1 2-2h8l6 6v12a2 2 0 0 1-2 2h-2v-8a4 4 0 0 0-4-4H4z"/><path fill="#a53636" d="m14 2 6 6h-4a2 2 0 0 1-2-2z"/><path fill="#0285ff" fill-rule="evenodd" d="M12 12a2 2 0 0 1 2 2v7a2 2 0 0 1-2 2H5a2 2 0 0 1-2-2v-7a2 2 0 0 1 2-2zm-1.454 5.393a.642.642 0 0 0-1.082-.011l-.708 1.086a.535.535 0 0 1-.813.098l-.644-.601a.64.64 0 0 0-.93.056l-1.167 1.392a.855.855 0 0 0 .655 1.405h5.286a.855.855 0 0 0 .725-1.308zM7.584 14.5a.998.998 0 1 0 0 1.997.998.998 0 0 0 0-1.997" clip-rule="evenodd"/></symbol>
<symbol id="27b797" viewBox="0 0 24 24" fill="none"><path fill="url(#27b797__a)" d="M22 5.746v12.16L17 22l-7.75-2.821v2.797l-4.387-5.733 12.787 1V6.293zm-4.263.611L10.563 2v2.859L3.974 6.794 2 9.33v5.755l2.826 1.247V8.956z"/><defs><linearGradient id="27b797__a" x1="12" x2="12" y1="21.937" y2="2.037" gradientUnits="userSpaceOnUse"><stop stop-color="#0078d4"/><stop offset=".16" stop-color="#1380da"/><stop offset=".53" stop-color="#3c91e5"/><stop offset=".82" stop-color="#559cec"/><stop offset="1" stop-color="#5ea0ef"/></linearGradient></defs></symbol>
<symbol id="2cdfa2" viewBox="0 0 24 24" fill="none"><g clip-path="url(#2cdfa2__a)" fill="currentColor"><path d="M19.289 12.91c0 .177-.07.346-.194.471a.658.658 0 0 1-1.128-.471V6.957a.659.659 0 1 1 1.322 0zm-.23 4.125c-.087.088-2.546 2.153-7.053 2.153-4.508 0-6.95-2.054-7.054-2.142a.65.65 0 0 1-.2-.701.66.66 0 0 1 1.052-.296c.039.027 2.235 1.823 6.196 1.823 3.962 0 6.174-1.806 6.196-1.823a.67.67 0 0 1 .934.072.66.66 0 0 1-.065.92zM4.717 6.957a.67.67 0 0 1 .22-.463.659.659 0 0 1 .911.025.67.67 0 0 1 .191.438v5.942c0 .177-.07.346-.193.471a.658.658 0 0 1-1.129-.471zm3.317-1.322a.67.67 0 0 1 .22-.462.659.659 0 0 1 .911.025.67.67 0 0 1 .19.437v8.811a.67.67 0 0 1-.193.472.659.659 0 0 1-1.128-.472zm3.332-.33c0-.177.07-.347.194-.472a.658.658 0 0 1 1.129.471v9.583a.67.67 0 0 1-.194.471.659.659 0 0 1-1.128-.471zm3.279.33c0-.177.07-.346.193-.471a.66.66 0 0 1 .935 0 .67.67 0 0 1 .194.47v8.812a.67.67 0 0 1-.194.472.659.659 0 0 1-1.128-.472zM19.469 2H4.564a2.45 2.45 0 0 0-1.753.72 2.5 2.5 0 0 0-.733 1.758v14.87a2.5 2.5 0 0 0 .733 1.759 2.47 2.47 0 0 0 1.753.719H19.47a2.45 2.45 0 0 0 1.751-.717 2.5 2.5 0 0 0 .735-1.756V4.478a2.5 2.5 0 0 0-.73-1.757A2.47 2.47 0 0 0 19.474 2"/></g><defs><clipPath id="2cdfa2__a"><path fill="#fff" d="M2 2h20v20H2z"/></clipPath></defs></symbol>
<symbol id="2e1a7c" viewBox="0 0 24 24"><path d="M20.714 10.213a8.2 8.2 0 0 1-4.773-1.526v6.986A6.33 6.33 0 0 1 9.611 22a6.3 6.3 0 0 1-3.525-1.07A6.329 6.329 0 0 1 10.48 9.405v3.499a2.895 2.895 0 1 0 2.017 2.769V2h3.445v.44q.018.198.052.393a4.79 4.79 0 0 0 4.72 3.957z"/></symbol>
<symbol id="2e75d9" viewBox="0 0 24 24" fill="#51a9e3"><path d="M14.648 14.956c.574 0 1.038.464 1.038 1.04v4.506c0 .576-.464 1.04-1.038 1.04H3.238a1.04 1.04 0 0 1-1.038-1.04V9.064c0-.576.464-1.04 1.038-1.04h4.495c.575 0 1.038.464 1.038 1.04v5.2c0 .38.311.693.692.693h5.188zM9.747 8.087h5.188c.38 0 .692.311.692.693v5.2c0 .576.463 1.04 1.038 1.04h4.495c.574 0 1.038-.464 1.038-1.04V2.54c0-.575-.464-1.04-1.038-1.04H9.747c-.574 0-1.038.465-1.038 1.04v4.506c0 .576.464 1.04 1.038 1.04"/></symbol>
<symbol id="2e99e2" viewBox="0 0 24 24"><path d="M16.89 4.317h2.607l-5.695 6.509 6.7 8.857h-5.246l-4.109-5.372-4.701 5.372H3.838l6.091-6.962-6.427-8.404H8.88l3.714 4.91zm-.914 13.806h1.444L8.096 5.795h-1.55z"/></symbol>
<symbol id="34fff3" viewBox="0 0 20 20"><path d="M2.279 11.819c-.035-.15.144-.245.253-.136l5.78 5.78c.109.11.014.288-.136.253a7.94 7.94 0 0 1-5.897-5.897m-.194-2.317a.16.16 0 0 0 .046.12l8.241 8.242a.16.16 0 0 0 .12.046 8 8 0 0 0 1.103-.147.154.154 0 0 0 .075-.26L2.493 8.324a.154.154 0 0 0-.261.075q-.111.54-.147 1.102m.667-2.72a.16.16 0 0 0 .032.174L13.04 17.211c.045.045.114.059.174.032a8 8 0 0 0 .82-.424.155.155 0 0 0 .03-.244L3.42 5.932a.155.155 0 0 0-.244.03 8 8 0 0 0-.424.82m1.337-1.84a.156.156 0 0 1-.007-.215 7.923 7.923 0 1 1 11.186 11.186.156.156 0 0 1-.214-.007z"/></symbol>
<symbol id="366ea8" viewBox="0 0 24 24" fill-rule="evenodd" clip-rule="evenodd" fill="#632ca6"><path d="m18.66 16.354-1.781-1.175-1.486 2.482-1.728-.505-1.521 2.323.078.732 8.272-1.525-.48-5.171zm-7.715-2.23 1.327-.182c.215.096.365.133.622.199.401.104.865.204 1.553-.142.16-.08.493-.384.628-.558l5.438-.987.554 6.717-9.316 1.68zm10.102-2.42-.537.102-1.032-10.659-17.57 2.039L4.071 20.76l2.057-.298c-.165-.235-.42-.519-.857-.882-.606-.504-.392-1.359-.034-1.899.472-.912 2.908-2.072 2.77-3.53-.05-.53-.134-1.22-.626-1.694-.018.197.015.386.015.386s-.202-.258-.303-.61c-.1-.134-.178-.178-.284-.357-.076.208-.066.45-.066.45s-.165-.391-.192-.72c-.098.147-.123.427-.123.427s-.215-.616-.166-.947c-.098-.289-.388-.862-.306-2.164.536.376 1.717.287 2.177-.391.153-.225.257-.838-.076-2.046-.215-.775-.745-1.929-.952-2.367l-.025.018c.11.353.334 1.092.42 1.45.261 1.088.331 1.466.209 1.967-.104.436-.354.721-.988 1.04s-1.475-.458-1.528-.501C4.578 7.6 4.102 6.8 4.049 6.412c-.056-.426.245-.682.396-1.03a4 4 0 0 0-.458.172s.288-.299.644-.557c.147-.098.234-.16.39-.289a9 9 0 0 0-.408.003s.375-.202.763-.35c-.284-.012-.556-.002-.556-.002s.836-.374 1.497-.649c.454-.186.898-.131 1.147.23.327.472.67.729 1.4.888.447-.199.583-.3 1.145-.454.494-.544.883-.614.883-.614s-.193.176-.244.454c.28-.22.588-.405.588-.405s-.12.147-.23.38l.025.038c.328-.196.712-.35.712-.35s-.11.138-.239.318c.247-.002.748.01.942.033 1.147.025 1.385-1.225 1.825-1.382.55-.197.797-.316 1.736.607.805.792 1.435 2.21 1.122 2.527-.262.264-.779-.103-1.351-.817a3.1 3.1 0 0 1-.64-1.394c-.09-.48-.442-.758-.442-.758s.204.454.204.856c0 .22.028 1.04.38 1.5-.035.067-.052.333-.09.383-.41-.494-1.287-.848-1.43-.952.484.397 1.598 1.31 2.026 2.185.405.827.167 1.586.371 1.782.058.056.87 1.069 1.027 1.577.272.887.016 1.819-.34 2.397l-.997.155c-.145-.04-.244-.06-.374-.137.072-.127.215-.445.216-.51l-.056-.1c-.31.44-.83.867-1.26 1.112-.566.32-1.217.27-1.64.14-1.203-.372-2.34-1.185-2.615-1.399 0 0-.008.17.044.21.303.341.998.96 1.67 1.392l-1.432.157.676 5.272c-.3.043-.346.064-.675.11-.29-1.022-.843-1.69-1.448-2.08-.534-.343-1.27-.42-1.975-.28l-.045.052c.49-.05 1.068.02 1.662.397.584.368 1.054 1.321 1.227 1.895.221.733.374 1.518-.222 2.35-.424.59-1.663.917-2.663.21.267.43.628.782 1.115.848.722.098 1.407-.027 1.879-.512.402-.414.616-1.28.56-2.192l.637-.093.23 1.637 10.55-1.27zm-6.419-4.446c-.03.067-.075.111-.006.33l.004.013.011.028.03.065c.125.257.262.498.492.621q.089-.014.185-.02c.215-.01.352.025.438.072a1 1 0 0 0 .005-.2c-.017-.324.064-.875-.56-1.166-.234-.109-.564-.075-.674.061q.03.005.052.012c.166.058.053.115.023.184m1.747 3.027c-.082-.045-.464-.027-.732.005-.512.06-1.064.237-1.185.332-.22.17-.12.467.043.588.455.341.855.57 1.277.514.259-.034.487-.444.649-.816.11-.257.11-.533-.052-.623M11.847 7.66c.144-.137-.719-.317-1.388.14-.494.336-.51 1.058-.037 1.468q.069.06.123.093a4.254 4.254 0 0 1 1.245-.367c.1-.113.216-.31.187-.666-.04-.483-.406-.406-.13-.668"/></symbol>
<symbol id="3ca002" viewBox="0 0 24 24" fill="#304ddb"><path d="M17.325 10.243a2.864 2.864 0 0 1 0 4.022l-5.09 5.139a2.864 2.864 0 0 1 0-4.022zm0-5.887a2.864 2.864 0 0 1 0 4.022L6.446 19.364a2.864 2.864 0 0 1 0-4.022zm-5.8 0a2.864 2.864 0 0 1 0 4.022l-5.09 5.14a2.864 2.864 0 0 1 0-4.023z"/></symbol>
<symbol id="3df65b" viewBox="0 0 24 24" fill="none"><g transform="matrix(.17 0 0 .17 2 2)"><path fill="#1d1c39" d="M103.9 119.1H15.4C7 119.1.1 112.3.1 103.8V15.3C.1 6.9 6.9 0 15.4 0h88.5c8.4 0 15.3 6.8 15.3 15.3v88.5c-.1 8.5-6.9 15.3-15.3 15.3"/><path fill="#fff" d="M58.8 52.3c3.3 0 5.2-1.8 5.2-4.9 0-2.9-2-4.9-5.1-4.9h-7.5V37c0-4-2.9-6.1-5.7-6.1S40 33 40 37v38.2c0 9.2 3.7 13.3 11.9 13.3 4.4 0 7-1.1 8.9-2.3 1.4-.8 2-2.5 2-3.8 0-2.5-1.6-5.2-4-5.2-.3 0-.7.1-1 .2-.1.1-.3.1-.4.2-.6.3-1.5.7-2.7.7-1.5 0-3.2-.5-3.2-4.6V52.3z"/><circle cx="83.2" cy="78.4" r="10" fill="#ff22b1"/></g></symbol>
<symbol id="409a38" viewBox="0 0 24 24" fill="none"><path fill="#036c70" d="M21 12v8.451c0 .47-.382.851-.852.851H6.502a.85.85 0 0 1-.852-.85V12l7.907-.93z"/><path fill="#37c6d0" d="M6.502 2.698h13.646c.47 0 .851.381.851.85V12H5.65V3.549c0-.47.382-.851.852-.851"/><path fill="#1a9ba1" d="M14.023 14.326h4.65v4.65h-4.65zM16.35 10.14a2.79 2.79 0 1 0 0-5.582 2.79 2.79 0 0 0 0 5.582"/><path fill="#036c70" d="M16.348 8.744a1.395 1.395 0 1 0 0-2.79 1.395 1.395 0 0 0 0 2.79"/><path fill="#282828" d="M11.31 6.419H5.65v11.628h5.66c.47 0 .852-.382.852-.852V7.27a.85.85 0 0 0-.851-.851" opacity=".1"/><path fill="#282828" d="M10.846 6.884H5.65v11.628h5.196c.47 0 .85-.382.85-.852V7.735a.85.85 0 0 0-.85-.851" opacity=".2"/><path fill="#282828" d="M10.846 6.884H5.65V17.58h5.196c.47 0 .85-.38.85-.85V7.734a.85.85 0 0 0-.85-.851" opacity=".2"/><path fill="#282828" d="M10.38 6.884H5.65V17.58h4.73c.47 0 .852-.38.852-.85V7.734a.85.85 0 0 0-.851-.851" opacity=".2"/><path fill="url(#409a38__a)" d="M1.851 6.884h8.526c.47 0 .85.381.85.851v8.526c0 .47-.38.85-.85.85H1.85A.845.845 0 0 1 1 16.266v-8.53c0-.47.381-.851.851-.851"/><path fill="#fff" d="M7.843 10.13h-2.4v1.512H7.68v.897H5.443v2.233H4.36V9.228h3.489z"/><defs><linearGradient id="409a38__a" x1="2.778" x2="9.455" y1="6.218" y2="17.782" gradientUnits="userSpaceOnUse"><stop stop-color="#058f92"/><stop offset=".5" stop-color="#038489"/><stop offset="1" stop-color="#026d71"/></linearGradient></defs></symbol>
<symbol id="41a8e5" viewBox="0 0 17 10"><path d="M3.22.004a.78.78 0 0 1 .743.385q.18.313.361.624l.503.869.515.888.053.091q.145-.057.293-.108a8.5 8.5 0 0 1 2.724-.474H8.5a8.5 8.5 0 0 1 3.044.558l.077.03.057-.097.514-.888.503-.869.362-.624A.78.78 0 0 1 13.8.003a.79.79 0 0 1 .602.377.79.79 0 0 1 .006.795l-.361.623-.503.868-.515.89-.01.016a8.56 8.56 0 0 1 3.932 5.96v.001q.027.187.048.375H0q.027-.24.065-.479a8.52 8.52 0 0 1 2.407-4.66c.46-.458.972-.863 1.523-1.206l-.004-.008-.515-.888-.503-.868-.362-.624a.784.784 0 0 1 .61-1.171m1.884 6.032c-.34-.227-.843-.07-1.122.35-.278.42-.23.944.11 1.17.34.227.843.07 1.122-.35s.23-.943-.11-1.17m7.927.349c-.279-.42-.78-.577-1.12-.35s-.39.75-.111 1.17.78.577 1.12.35.39-.75.111-1.17"/></symbol>
<symbol id="41af4e" viewBox="0 0 24 24" fill="#1868db"><path d="M3.313 16.741c-.194.316-.411.683-.596.975a.596.596 0 0 0 .2.81l3.874 2.385a.597.597 0 0 0 .826-.203c.155-.259.355-.596.572-.956 1.535-2.534 3.08-2.224 5.863-.895l3.842 1.828a.597.597 0 0 0 .802-.298l1.845-4.173a.596.596 0 0 0-.298-.781c-.81-.382-2.423-1.142-3.875-1.842-5.222-2.537-9.66-2.373-13.055 3.15"/><path d="M20.687 7.272c.194-.316.411-.683.596-.975a.596.596 0 0 0-.2-.81L17.21 3.101a.596.596 0 0 0-.85.196c-.155.26-.355.597-.572.957-1.535 2.534-3.08 2.224-5.863.894l-3.83-1.818a.596.596 0 0 0-.802.298L3.447 7.802a.596.596 0 0 0 .298.781c.81.382 2.423 1.142 3.875 1.842 5.234 2.534 9.672 2.364 13.067-3.153"/></symbol>
<symbol id="41c3f3" viewBox="0 0 14 12"><path d="M10.819 0h2.035L8.407 5.083 13.639 12H9.542L6.334 7.805 2.662 12H.625l4.757-5.437L.363 0h4.2l2.901 3.834zm-.715 10.782h1.128L3.951 1.153h-1.21z"/></symbol>
<symbol id="48c80a" viewBox="0 0 486 486" fill="#000"><path d="M186.576 177.497v-46.075c0-3.881 1.444-6.792 4.807-8.729l91.811-53.35c12.497-7.275 27.399-10.668 42.778-10.668 57.679 0 94.213 45.106 94.213 93.119 0 3.394 0 7.274-.482 11.155l-95.174-56.261q-8.652-5.091-17.304 0zm214.38 179.452V246.851c0-6.791-2.886-11.641-8.652-15.035l-120.649-70.81 39.415-22.797c3.364-1.937 6.249-1.937 9.613 0l91.81 53.35c26.439 15.522 44.222 48.501 44.222 80.509 0 36.858-21.629 70.81-55.759 84.877zm-242.739-97-39.415-23.279c-3.363-1.937-4.806-4.849-4.806-8.73V121.241c0-51.893 39.414-91.181 92.77-91.181 20.191 0 38.933 6.792 54.799 18.916l-94.692 55.292c-5.766 3.393-8.651 8.243-8.651 15.035v140.65zm84.84 49.469-56.481-32.009v-67.898l56.481-32.009 56.476 32.009v67.898zm36.29 147.442c-20.19 0-38.932-6.791-54.798-18.915l94.691-55.293c5.767-3.393 8.652-8.243 8.652-15.035v-140.65l39.898 23.279c3.363 1.937 4.807 4.848 4.807 8.73v106.699c0 51.893-39.898 91.181-93.25 91.181zm-113.92-108.155-91.811-53.349c-26.44-15.522-44.222-48.5-44.222-80.509 0-37.345 22.112-70.809 56.237-84.876v110.58c0 6.791 2.886 11.641 8.653 15.036l120.17 70.322-39.415 22.796c-3.363 1.938-6.249 1.938-9.612 0m-5.285 79.54c-54.316 0-94.213-41.225-94.213-92.15 0-3.881.482-7.761.96-11.642l94.692 55.292c5.766 3.394 11.537 3.394 17.304 0l120.648-70.322v46.075c0 3.881-1.443 6.792-4.807 8.729l-91.81 53.35c-12.498 7.275-27.399 10.668-42.779 10.668zm119.205 57.713c58.162 0 106.707-41.709 117.767-97 53.835-14.067 88.443-64.992 88.443-116.885 0-33.952-14.418-66.929-40.376-90.695 2.404-10.186 3.846-20.372 3.846-30.553 0-69.354-55.759-121.252-120.17-121.252-12.975 0-25.473 1.937-37.971 6.305-21.634-21.34-51.436-34.92-84.12-34.92-58.161 0-106.706 41.708-117.766 97C35.166 112.023.557 162.948.557 214.841c0 33.952 14.419 66.929 40.376 90.695-2.404 10.186-3.846 20.372-3.846 30.554 0 69.354 55.759 121.251 120.169 121.251 12.976 0 25.475-1.937 37.973-6.305 21.628 21.341 51.43 34.921 84.118 34.921"/></symbol>
<symbol id="534fe3" viewBox="0 0 24 24" fill="none"><path fill="url(#534fe3__a)" fill-rule="evenodd" d="M3.858 17.722a.565.565 0 0 1 .09-.799l2.324-1.865a.476.476 0 0 1 .664.074c1.578 1.917 3.253 2.804 5.107 2.804 1.842 0 3.47-.875 4.98-2.77a.477.477 0 0 1 .663-.086l2.356 1.823c.249.192.299.55.104.796C17.914 20.516 15.182 22 12.043 22c-3.129 0-5.885-1.475-8.185-4.278" clip-rule="evenodd"/><path fill="url(#534fe3__b)" fill-rule="evenodd" d="M12.156 7.204a.23.23 0 0 0-.307 0l-5.053 4.468a.463.463 0 0 1-.657-.044l-1.971-2.28a.463.463 0 0 1 .044-.651l7.485-6.582a.463.463 0 0 1 .611 0l7.486 6.587c.191.168.211.459.044.651l-1.975 2.28a.463.463 0 0 1-.657.043z" clip-rule="evenodd"/><defs><linearGradient id="534fe3__a" x1="3.507" x2="20.489" y1="11.975" y2="11.975" gradientUnits="userSpaceOnUse"><stop offset=".226" stop-color="#6647f0"/><stop offset=".793" stop-color="#0091ff"/></linearGradient><linearGradient id="534fe3__b" x1="3.506" x2="20.489" y1="11.81" y2="11.81" gradientUnits="userSpaceOnUse"><stop stop-color="#ff02f0"/><stop offset=".779" stop-color="#f76808"/><stop offset="1" stop-color="#f76808"/></linearGradient></defs></symbol>
<symbol id="53aee1" viewBox="0 0 24 24" fill="#089949"><path d="M3.097 23.962a.7.7 0 0 1-.692-.815l2.004-12.339A2.81 2.81 0 0 1 7.181 8.45h8.268l.462-2.832h-.771a1.168 1.168 0 0 1-1.155-1.357l.532-3.278C14.61.413 15.095 0 15.672 0h3.086c.825 0 1.604.36 2.139.989.534.628.765 1.455.632 2.27l-1.24 7.633c-.055.334-.251.629-.54.807l-6.919 4.287c-.42.26-.96.228-1.346-.08l-3.225-2.57a.702.702 0 1 1 .875-1.099l3.097 2.469 6.689-4.144 1.223-7.529a1.4 1.4 0 0 0-1.385-1.629H15.87l-.456 2.81h.771a1.168 1.168 0 0 1 1.155 1.359l-.538 3.3a1.165 1.165 0 0 1-1.155.981H7.18c-.692 0-1.275.496-1.386 1.18L4.037 21.85l2.466-1.528c.185-.115.398-.176.616-.176h9.048c.692 0 1.275-.495 1.386-1.178l.563-3.465a.702.702 0 0 1 1.386.225l-.563 3.465a2.81 2.81 0 0 1-2.772 2.357H7.186l-3.719 2.305a.7.7 0 0 1-.37.106"/></symbol>
<symbol id="61f096" viewBox="0 0 24 24" fill="none"><path fill="#ed6c47" d="M13.093 12.93 11.697 2.698h-.104a9.225 9.225 0 0 0-9.198 9.198V12z"/><path fill="#ff8f6b" d="M11.802 2.698h-.104V12l4.65 1.86L21 12v-.104a9.225 9.225 0 0 0-9.198-9.198"/><path fill="#d35230" d="M21 12v.102a9.227 9.227 0 0 1-9.2 9.2h-.205a9.226 9.226 0 0 1-9.2-9.2V12z"/><path fill="#282828" d="M12.163 7.27v9.925a.856.856 0 0 1-.852.852h-6.72a9.123 9.123 0 0 1-2.195-5.944v-.205a9.1 9.1 0 0 1 1.497-5.014 6 6 0 0 1 .325-.465h7.093a.86.86 0 0 1 .851.85" opacity=".1"/><path fill="#282828" d="M11.697 7.735v9.925q0 .167-.065.322a.86.86 0 0 1-.786.53H5.014a8 8 0 0 1-.424-.465 9.123 9.123 0 0 1-2.195-5.944v-.205a9.1 9.1 0 0 1 1.498-5.014h6.953a.86.86 0 0 1 .851.851" opacity=".2"/><path fill="#282828" d="M11.697 7.735v8.995a.86.86 0 0 1-.85.851H4.217a9.12 9.12 0 0 1-1.823-5.479v-.204a9.1 9.1 0 0 1 1.498-5.014h6.953a.86.86 0 0 1 .851.851" opacity=".2"/><path fill="#282828" d="M11.232 7.735v8.995a.86.86 0 0 1-.85.851H4.217a9.12 9.12 0 0 1-1.823-5.479v-.204a9.1 9.1 0 0 1 1.498-5.014h6.488a.86.86 0 0 1 .851.851" opacity=".2"/><path fill="url(#61f096__a)" d="M1.853 6.884h8.527c.47 0 .852.381.852.852v8.528c0 .47-.381.852-.852.852H1.853A.853.853 0 0 1 1 16.264V7.736c0-.47.382-.852.853-.852"/><path fill="#fff" d="M6.21 9.158a2.34 2.34 0 0 1 1.552.455c.373.332.572.818.54 1.317.006.347-.086.688-.266.985a1.8 1.8 0 0 1-.757.669 2.6 2.6 0 0 1-1.138.239H5.062v2.004H3.958v-5.67zM5.06 11.957h.95c.302.022.601-.067.841-.251a.93.93 0 0 0 .285-.733q0-.938-1.09-.938h-.986z"/><defs><linearGradient id="61f096__a" x1="2.778" x2="9.455" y1="6.218" y2="17.782" gradientUnits="userSpaceOnUse"><stop stop-color="#ca4c28"/><stop offset=".5" stop-color="#c5401e"/><stop offset="1" stop-color="#b62f14"/></linearGradient></defs></symbol>
<symbol id="629568" viewBox="0 0 24 24" fill="none"><path fill="#f4b400" d="M4 4a2 2 0 0 1 2-2h8l6 6v12a2 2 0 0 1-2 2H6a2 2 0 0 1-2-2z"/><path fill="#9d7607" d="m14 2 6 6h-4a2 2 0 0 1-2-2z"/><path fill="#fff" fill-rule="evenodd" d="M7 11.25a.75.75 0 0 1 .75-.75h8.5a.75.75 0 0 1 .75.75v6a.75.75 0 0 1-.75.75h-8.5a.75.75 0 0 1-.75-.75zm1.5 1.25V16h7v-3.5z" clip-rule="evenodd"/></symbol>
<symbol id="638ebd" viewBox="0 0 24 24"><path d="M19.96 3.481a2.481 2.481 0 0 1-4.895.572 2.96 2.96 0 0 0-2.552 2.928v.01c2.219.082 4.248.707 5.855 1.701a3.501 3.501 0 1 1 3.637 5.94c-.11 4.07-4.543 7.343-9.994 7.343-5.448 0-9.877-3.268-9.994-7.332A3.502 3.502 0 1 1 5.642 8.7c1.592-.988 3.599-1.614 5.796-1.707v-.01c0-2.082 1.586-3.8 3.613-4.01a2.482 2.482 0 0 1 4.91.508m-12.789 12c.982 0 1.825-.459 1.883-1.72v.002c.058-1.26-.69-2.313-1.672-2.313-.981 0-1.824.825-1.882 2.085-.059 1.261.69 1.945 1.671 1.945m9.674 0c.981 0 1.73-.685 1.671-1.946s-.9-2.085-1.882-2.085-1.73 1.053-1.672 2.313v-.001c.058 1.26.901 1.718 1.883 1.718m-4.838.98c-1.216 0-2.383.06-3.46.17a.276.276 0 0 0-.229.38 4 4 0 0 0 7.378 0 .277.277 0 0 0-.23-.38 34 34 0 0 0-3.46-.17"/></symbol>
<symbol id="65e149" viewBox="0 0 24 24" fill="none"><path d="M701.8 834.2c-85.4 0-165.9-33.1-226.6-93.2l-.1-.1-177.3-177.3c-20.6-20.7-32-48.1-31.9-77.3s11.6-56.6 32.4-77.1c20.5-20.3 47.7-31.4 76.5-31.4h.3c29 .1 56.2 11.4 76.7 31.9l162.5 162.5c19 19 50.1 19.1 69.2.2 9.3-9.2 14.5-21.6 14.6-34.8 0-13.2-5.1-25.5-14.4-34.8L506.5 325.5c-49.4-48.8-114.8-75.7-184.3-75.7h-.6c-71.1.2-137.5 28.1-186.9 78.6-49.5 50.6-76 117.7-74.6 188.8 1.4 68.9 29.2 133.5 78.5 181.8 49.3 48.4 114.5 75.1 183.7 75.1 25.3 0 50.4-3.6 74.4-10.7 15.9-4.7 32.6 4.4 37.3 20.3s-4.4 32.6-20.3 37.3c-29.6 8.7-60.3 13.2-91.4 13.2-84.9 0-165.1-32.8-225.7-92.2C36 682.5 1.7 603.2.1 518.5c-.9-44.1 7-87 23.3-127.5 15.8-39.1 38.8-74.2 68.3-104.5 29.5-30.2 64.1-53.9 102.8-70.6 40.1-17.2 82.8-26 126.9-26.1h.8c85.4 0 165.9 33.1 226.6 93.1l.1.1 177.2 177.2c20.7 20.7 32 48.2 31.9 77.4s-11.6 56.7-32.3 77.2c-42.5 42.1-111.5 41.9-153.8-.4L409.4 452c-19-19-49.9-19-68.9-.2-9.3 9.2-14.5 21.5-14.5 34.6s5 25.5 14.3 34.7l177.2 177.2c49.3 48.8 114.8 75.7 184.3 75.7 70 0 135.8-27.2 185.3-76.7s76.8-115.2 76.9-185.2-27.2-135.9-76.8-185.5-115.4-77-185.4-77c-22.3 0-44.5 2.8-65.8 8.3-3.1.8-6.2 1.7-9.3 2.6-15.9 4.7-32.6-4.3-37.3-20.2s4.3-32.6 20.2-37.3c3.8-1.1 7.6-2.2 11.4-3.2 26.3-6.8 53.5-10.2 80.9-10.2 43.5 0 85.7 8.5 125.4 25.4 38.4 16.3 72.8 39.5 102.4 69.2 29.6 29.6 52.8 64.1 69 102.5 16.8 39.8 25.3 82 25.3 125.5-.1 86-33.7 166.8-94.5 227.6-60.8 60.9-141.7 94.4-227.7 94.4" style="fill:#226db4" transform="scale(.02344)"/></symbol>
<symbol id="6ab6f2" viewBox="0 0 1831.085 1703.335" fill="none"><path fill="#0a2767" d="M1831.083 894.25a40.88 40.88 0 0 0-19.503-35.131h-.213l-.767-.426-634.492-375.585a86 86 0 0 0-8.517-5.067 85.17 85.17 0 0 0-78.098 0 86 86 0 0 0-8.517 5.067l-634.49 375.585-.766.426c-19.392 12.059-25.337 37.556-13.278 56.948a41.35 41.35 0 0 0 14.257 13.868l634.492 375.585a96 96 0 0 0 8.517 5.068 85.17 85.17 0 0 0 78.098 0 96 96 0 0 0 8.517-5.068l634.492-375.585a40.84 40.84 0 0 0 20.268-35.685"/><path fill="#0364b8" d="M520.453 643.477h416.38v381.674h-416.38zM1745.917 255.5V80.908c1-43.652-33.552-79.862-77.203-80.908H588.204C544.552 1.046 510 37.256 511 80.908V255.5l638.75 170.333z"/><path fill="#0078d4" d="M511 255.5h425.833v383.25H511z"/><path fill="#28a8ea" d="M1362.667 255.5H936.833v383.25L1362.667 1022h383.25V638.75z"/><path fill="#0078d4" d="M936.833 638.75h425.833V1022H936.833z"/><path fill="#0364b8" d="M936.833 1022h425.833v383.25H936.833z"/><path fill="#14447d" d="M520.453 1025.151h416.38v346.969h-416.38z"/><path fill="#0078d4" d="M1362.667 1022h383.25v383.25h-383.25z"/><linearGradient id="6ab6f2__a" x1="1128.458" x2="1128.458" y1="811.083" y2="1.998" gradientTransform="matrix(1 0 0 -1 0 1705.333)" gradientUnits="userSpaceOnUse"><stop offset="0" style="stop-color:#35b8f1"/><stop offset="1" style="stop-color:#28a8ea"/></linearGradient><path fill="url(#6ab6f2__a)" d="m1811.58 927.593-.809.426-634.492 356.848c-2.768 1.703-5.578 3.321-8.517 4.769a88.4 88.4 0 0 1-34.407 8.517l-34.663-20.27a87 87 0 0 1-8.517-4.897L447.167 906.003h-.298l-21.036-11.753v722.384c.328 48.196 39.653 87.006 87.849 86.7h1230.914c.724 0 1.363-.341 2.129-.341a107.8 107.8 0 0 0 29.808-6.217 86 86 0 0 0 11.966-6.217c2.853-1.618 7.75-5.152 7.75-5.152a85.97 85.97 0 0 0 34.833-68.772V894.25a38.32 38.32 0 0 1-19.502 33.343"/><path fill="#0a2767" d="M1797.017 891.397v44.287l-663.448 456.791-686.87-486.174a.426.426 0 0 0-.426-.426l-63.023-37.899v-31.938l25.976-.426 54.932 31.512 1.277.426 4.684 2.981s645.563 368.346 647.267 369.197l24.698 14.478c2.129-.852 4.258-1.703 6.813-2.555 1.278-.852 640.879-360.681 640.879-360.681z" opacity=".5"/><path fill="#1490df" d="m1811.58 927.593-.809.468-634.492 356.848c-2.768 1.703-5.578 3.321-8.517 4.769a88.96 88.96 0 0 1-78.098 0 97 97 0 0 1-8.517-4.769l-634.49-356.848-.766-.468a38.33 38.33 0 0 1-20.057-33.343v722.384c.305 48.188 39.616 87.004 87.803 86.7h1229.64c48.188.307 87.5-38.509 87.807-86.696V894.25a38.33 38.33 0 0 1-19.504 33.343"/><path d="m1185.52 1279.629-9.496 5.323a93 93 0 0 1-8.517 4.812 88.2 88.2 0 0 1-33.47 8.857l241.405 285.479 421.107 101.476a86.8 86.8 0 0 0 26.7-33.343z" opacity=".1"/><path d="m1228.529 1255.442-52.505 29.51a93 93 0 0 1-8.517 4.812 88.2 88.2 0 0 1-33.47 8.857l113.101 311.838 549.538 74.989a86.1 86.1 0 0 0 34.407-68.815v-9.326z" opacity=".05"/><path fill="#28a8ea" d="M514.833 1703.333h1228.316a88.3 88.3 0 0 0 52.59-17.033l-697.089-408.331a87 87 0 0 1-8.517-4.897L447.125 906.088h-.298l-20.993-11.838v719.914c-.048 49.2 39.798 89.122 88.999 89.169q-.001 0 0 0"/><path d="M1022 418.722v908.303c-.076 31.846-19.44 60.471-48.971 72.392a73.4 73.4 0 0 1-28.957 5.962H425.833V383.25H511v-42.583h433.073c43.019.163 77.834 35.035 77.927 78.055" opacity=".1"/><path d="M979.417 461.305v908.302a69.36 69.36 0 0 1-6.388 29.808c-11.826 29.149-40.083 48.273-71.54 48.417H425.833V383.25h475.656a71.5 71.5 0 0 1 35.344 8.943c26.104 13.151 42.574 39.883 42.584 69.112" opacity=".2"/><path d="M979.417 461.305v823.136c-.208 43-34.928 77.853-77.927 78.225H425.833V383.25h475.656a71.5 71.5 0 0 1 35.344 8.943c26.104 13.151 42.574 39.883 42.584 69.112" opacity=".2"/><path d="M936.833 461.305v823.136c-.046 43.067-34.861 78.015-77.927 78.225H425.833V383.25h433.072c43.062.023 77.951 34.951 77.927 78.013z" opacity=".2"/><linearGradient id="6ab6f2__b" x1="162.747" x2="774.086" y1="1383.074" y2="324.259" gradientTransform="matrix(1 0 0 -1 0 1705.333)" gradientUnits="userSpaceOnUse"><stop offset="0" style="stop-color:#1784d9"/><stop offset=".5" style="stop-color:#107ad5"/><stop offset="1" style="stop-color:#0a63c9"/></linearGradient><path fill="url(#6ab6f2__b)" d="M78.055 383.25h780.723c43.109 0 78.055 34.947 78.055 78.055v780.723c0 43.109-34.946 78.055-78.055 78.055H78.055c-43.109 0-78.055-34.947-78.055-78.055V461.305c0-43.108 34.947-78.055 78.055-78.055"/><path fill="#fff" d="M243.96 710.631a227.05 227.05 0 0 1 89.17-98.495 269.56 269.56 0 0 1 141.675-35.515 250.9 250.9 0 0 1 131.114 33.683 225 225 0 0 1 86.742 94.109 303.75 303.75 0 0 1 30.405 138.396 320.6 320.6 0 0 1-31.299 144.783 230.37 230.37 0 0 1-89.425 97.388 260.86 260.86 0 0 1-136.011 34.578 256.36 256.36 0 0 1-134.01-34.067 228.5 228.5 0 0 1-87.892-94.28 296.5 296.5 0 0 1-30.745-136.735 329.3 329.3 0 0 1 30.276-143.845m95.046 231.227a147.4 147.4 0 0 0 50.163 64.812 131.03 131.03 0 0 0 78.353 23.591 137.24 137.24 0 0 0 83.634-24.358 141.16 141.16 0 0 0 48.715-64.812 251.6 251.6 0 0 0 15.543-90.404 275.2 275.2 0 0 0-14.649-91.554 144.78 144.78 0 0 0-47.182-67.537 129.58 129.58 0 0 0-82.91-25.55 135.2 135.2 0 0 0-80.184 23.804 148.63 148.63 0 0 0-51.1 65.365 259.76 259.76 0 0 0-.341 186.728z"/><path fill="#50d9ff" d="M1362.667 255.5h383.25v383.25h-383.25z"/></symbol>
<symbol id="75e68b" viewBox="0 0 24 24" fill="none"><path fill="#0364b8" d="M9.389 8.824zl4.618 2.766 2.752-1.158a4.45 4.45 0 0 1 2.073-.354A6.876 6.876 0 0 0 6.43 8.005l.07-.001a5.47 5.47 0 0 1 2.89.82"/><path fill="#0078d4" d="M9.39 8.823a5.47 5.47 0 0 0-2.89-.82l-.07.002a5.498 5.498 0 0 0-4.442 8.642l4.073-1.713 1.81-.762 4.032-1.697 2.105-.886z"/><path fill="#1490df" d="M18.833 10.077q-.15-.01-.302-.01c-.61-.001-1.212.123-1.771.365l-2.753 1.157.798.478 2.616 1.567 1.142.684 3.902 2.338a4.47 4.47 0 0 0-3.633-6.579"/><path fill="#28a8ea" d="m18.563 14.318-1.141-.684-2.616-1.567-.798-.478-2.105.886-4.031 1.697-1.811.761-4.073 1.714A5.49 5.49 0 0 0 6.5 19.004h12.031a4.47 4.47 0 0 0 3.935-2.349z"/></symbol>
<symbol id="79227a" viewBox="0 0 24 24" fill="none"><path fill="url(#79227a__a)" d="M0 0h512v512H0z" transform="scale(.04688)"/><g filter="url(#79227a__b)" opacity=".8" transform="scale(.04688)" fill="#fff"><path d="M346.112 342.268c1.674 1.674 4.369 1.77 6.112.168 58.502-53.763 61.2-148.753 4.505-205.448s-151.684-53.996-205.447 4.505c-1.602 1.743-1.506 4.439.168 6.113z" shape-rendering="crispEdges" style="mix-blend-mode:multiply"/></g><g filter="url(#79227a__c)" opacity=".3" transform="scale(.04688)" fill="url(#79227a__d)"><path d="M346.112 342.268c1.674 1.674 4.369 1.77 6.112.168 58.502-53.763 61.2-148.753 4.505-205.448s-151.684-53.996-205.447 4.505c-1.602 1.743-1.506 4.439.168 6.113z"/></g><g filter="url(#79227a__e)" opacity=".3" transform="scale(.04688)" fill="url(#79227a__f)"><path d="M261.607 324.792c2.441-1.434 2.844-4.786.912-6.855L126.121 171.95c-2.018-2.16-5.535-1.831-7.017.727a149 149 0 0 0-6.49 12.537c-.774 1.688-.389 3.673.926 4.984l137.088 136.598a4.51 4.51 0 0 0 4.985.944c2.702-1.176 4.021-1.79 5.994-2.948"/></g><path fill="url(#79227a__g)" d="M357.358 374.306c1.758 1.758 4.581 1.866 6.416.189a164 164 0 0 0 5.316-5.081c62.547-62.547 62.547-163.956 0-226.504-62.548-62.547-163.957-62.547-226.504 0a164 164 0 0 0-5.081 5.316c-1.677 1.835-1.569 4.658.189 6.416z" transform="scale(.04688)"/><path fill="url(#79227a__h)" d="M357.358 374.306c1.758 1.758 4.581 1.866 6.416.189a164 164 0 0 0 5.316-5.081c62.547-62.547 62.547-163.956 0-226.504-62.548-62.547-163.957-62.547-226.504 0a164 164 0 0 0-5.081 5.316c-1.677 1.835-1.569 4.658.189 6.416z" transform="scale(.04688)"/><path fill="url(#79227a__i)" d="M336.333 394.672c2.627-1.528 3.024-5.118.875-7.267L124.595 174.792c-2.149-2.149-5.739-1.752-7.267.875a159 159 0 0 0-7.119 13.725c-.811 1.771-.41 3.852.968 5.229l206.201 206.202c1.378 1.378 3.459 1.779 5.23.968a159 159 0 0 0 13.725-7.119" transform="scale(.04688)"/><path fill="url(#79227a__j)" d="M336.333 394.672c2.627-1.528 3.024-5.118.875-7.267L124.595 174.792c-2.149-2.149-5.739-1.752-7.267.875a159 159 0 0 0-7.119 13.725c-.811 1.771-.41 3.852.968 5.229l206.201 206.202c1.378 1.378 3.459 1.779 5.23.968a159 159 0 0 0 13.725-7.119" transform="scale(.04688)"/><path fill="url(#79227a__k)" d="M286.659 413.348c3.619-.707 4.86-5.136 2.253-7.743L106.395 223.088c-2.607-2.607-7.036-1.366-7.743 2.253a161 161 0 0 0-2.502 18.462 4.67 4.67 0 0 0 1.366 3.654l167.027 167.027a4.67 4.67 0 0 0 3.654 1.366 161 161 0 0 0 18.462-2.502" transform="scale(.04688)"/><path fill="url(#79227a__l)" d="M286.659 413.348c3.619-.707 4.86-5.136 2.253-7.743L106.395 223.088c-2.607-2.607-7.036-1.366-7.743 2.253a161 161 0 0 0-2.502 18.462 4.67 4.67 0 0 0 1.366 3.654l167.027 167.027a4.67 4.67 0 0 0 3.654 1.366 161 161 0 0 0 18.462-2.502" transform="scale(.04688)"/><path fill="url(#79227a__m)" d="M217.031 411.577c4.45 1.107 7.201-4.155 3.959-7.398L107.821 291.01c-3.243-3.242-8.504-.491-7.398 3.959 6.784 27.279 20.838 53.121 42.163 74.445s47.166 35.379 74.445 42.163" transform="scale(.04688)"/><path fill="url(#79227a__n)" d="M217.031 411.577c4.45 1.107 7.201-4.155 3.959-7.398L107.821 291.01c-3.243-3.242-8.504-.491-7.398 3.959 6.784 27.279 20.838 53.121 42.163 74.445s47.166 35.379 74.445 42.163" transform="scale(.04688)"/><path stroke="#fff" stroke-opacity=".5" stroke-width="5" d="M362.088 372.649c-.816.746-2.119.733-2.963-.111L139.462 152.875c-.844-.844-.857-2.147-.111-2.963a161 161 0 0 1 5.003-5.234c61.571-61.57 161.397-61.57 222.968 0s61.571 161.397 0 222.968a161 161 0 0 1-5.234 5.003Zm-26.648 16.523c1.038 1.038.786 2.67-.364 3.34a157 157 0 0 1-13.51 7.006c-.794.364-1.761.197-2.42-.462L112.944 192.854c-.659-.659-.826-1.626-.462-2.42a157 157 0 0 1 7.006-13.51c.67-1.15 2.302-1.402 3.34-.364zm-48.296 18.201c1.276 1.276.574 3.221-.964 3.521a158 158 0 0 1-18.175 2.463 2.17 2.17 0 0 1-1.694-.64L99.283 245.689a2.17 2.17 0 0 1-.64-1.694 158 158 0 0 1 2.463-18.175c.3-1.538 2.245-2.24 3.521-.964zm-67.922-1.426c.81.81.812 1.735.464 2.391-.333.63-1.007 1.072-2.052.813-26.85-6.678-52.286-20.51-73.28-41.505-20.995-20.994-34.827-46.43-41.505-73.28-.259-1.045.183-1.719.813-2.052.656-.348 1.581-.346 2.391.464z" style="mix-blend-mode:soft-light" transform="scale(.04688)"/><defs><linearGradient id="79227a__a" x1="256" x2="256" y1="0" y2="512" gradientUnits="userSpaceOnUse"><stop stop-color="#2d2e31"/><stop offset="1" stop-color="#0f1012"/></linearGradient><linearGradient id="79227a__d" x1="256.306" x2="256.306" y1="95.332" y2="379.492" gradientUnits="userSpaceOnUse"><stop stop-color="#fff"/><stop offset="1" stop-color="#c5c5c5"/></linearGradient><linearGradient id="79227a__f" x1="178.365" x2="178.365" y1="167.248" y2="351.126" gradientUnits="userSpaceOnUse"><stop stop-color="#fff"/><stop offset="1" stop-color="#c5c5c5"/></linearGradient><linearGradient id="79227a__g" x1="256" x2="256" y1="96" y2="416" gradientUnits="userSpaceOnUse"><stop stop-color="#fff"/><stop offset="1" stop-color="#ccc"/></linearGradient><linearGradient id="79227a__i" x1="256" x2="256" y1="96" y2="416" gradientUnits="userSpaceOnUse"><stop stop-color="#fff"/><stop offset="1" stop-color="#ccc"/></linearGradient><linearGradient id="79227a__k" x1="256" x2="256" y1="96" y2="416" gradientUnits="userSpaceOnUse"><stop stop-color="#fff"/><stop offset="1" stop-color="#ccc"/></linearGradient><linearGradient id="79227a__m" x1="256" x2="256" y1="96" y2="416" gradientUnits="userSpaceOnUse"><stop stop-color="#fff"/><stop offset="1" stop-color="#ccc"/></linearGradient><radialGradient id="79227a__h" cx="0" cy="0" r="1" gradientTransform="rotate(90 80 176)scale(320)" gradientUnits="userSpaceOnUse"><stop stop-color="#fff"/><stop offset=".598" stop-color="#fff" stop-opacity="0"/></radialGradient><radialGradient id="79227a__j" cx="0" cy="0" r="1" gradientTransform="rotate(90 80 176)scale(320)" gradientUnits="userSpaceOnUse"><stop stop-color="#fff"/><stop offset=".598" stop-color="#fff" stop-opacity="0"/></radialGradient><radialGradient id="79227a__l" cx="0" cy="0" r="1" gradientTransform="rotate(90 80 176)scale(320)" gradientUnits="userSpaceOnUse"><stop stop-color="#fff"/><stop offset=".598" stop-color="#fff" stop-opacity="0"/></radialGradient><radialGradient id="79227a__n" cx="0" cy="0" r="1" gradientTransform="rotate(90 80 176)scale(320)" gradientUnits="userSpaceOnUse"><stop stop-color="#fff"/><stop offset=".598" stop-color="#fff" stop-opacity="0"/></radialGradient><filter id="79227a__b" width="295.583" height="295.582" x="126.135" y="66.88" color-interpolation-filters="sRGB" filterUnits="userSpaceOnUse"><feFlood flood-opacity="0" result="BackgroundImageFix"/><feColorMatrix in="SourceAlpha" result="hardAlpha" values="0 0 0 0 0 0 0 0 0 0 0 0 0 0 0 0 0 0 127 0"/><feOffset dy="-5.12"/><feGaussianBlur stdDeviation="12"/><feComposite in2="hardAlpha" operator="out"/><feColorMatrix values="0 0 0 0 1 0 0 0 0 1 0 0 0 0 1 0 0 0 0.4 0"/><feBlend in2="BackgroundImageFix" mode="plus-lighter" result="effect1_dropShadow_14134_4654"/><feBlend in="SourceGraphic" in2="effect1_dropShadow_14134_4654" result="shape"/></filter><filter id="79227a__c" width="267.583" height="267.582" x="140.135" y="86" color-interpolation-filters="sRGB" filterUnits="userSpaceOnUse"><feFlood flood-opacity="0" result="BackgroundImageFix"/><feBlend in="SourceGraphic" in2="BackgroundImageFix" result="shape"/><feGaussianBlur result="effect1_foregroundBlur_14134_4654" stdDeviation="5"/></filter><filter id="79227a__e" width="171.522" height="177.592" x="102.218" y="160.522" color-interpolation-filters="sRGB" filterUnits="userSpaceOnUse"><feFlood flood-opacity="0" result="BackgroundImageFix"/><feBlend in="SourceGraphic" in2="BackgroundImageFix" result="shape"/><feGaussianBlur result="effect1_foregroundBlur_14134_4654" stdDeviation="5"/></filter></defs></symbol>
<symbol id="8b8ff4" viewBox="0 0 24 24" fill="#1d2d35"><path d="M12.54 3.29c3.211 0 5.509 2.123 6.995 4.675 1.49 2.558 2.284 5.725 2.463 8.283a.93.93 0 0 1-.121.526c-.86 1.494-2.293 2.468-3.924 3.064-1.626.594-3.51.837-5.398.838a11.18 11.18 0 0 1-8.534-3.749.93.93 0 0 1-.176-.937v-.002l.002-.003.005-.012.016-.044.061-.156a21 21 0 0 1 1.03-2.22c.328-.606.732-1.256 1.186-1.769.414-.467 1.058-1.037 1.881-1.042h.007c.582 0 1.06.266 1.404.523.347.258.662.586.914.853.278.294.48.513.67.673l.054.04q.084-.083.198-.224c.271-.336.576-.81.871-1.317a28 28 0 0 0 1.057-2.012v-.002a.926.926 0 0 1 1.714.699l-.036.087v.002l-.002.002-.005.01-.018.038-.067.139a32 32 0 0 1-1.041 1.967c-.312.536-.672 1.105-1.032 1.55-.178.221-.38.443-.598.616-.194.154-.534.38-.971.38-.578 0-1.033-.322-1.31-.554-.298-.248-.594-.572-.83-.822-.26-.276-.474-.49-.674-.64-.183-.136-.273-.153-.294-.155-.026.008-.196.067-.506.417-.318.36-.644.87-.945 1.424a19 19 0 0 0-.728 1.516l-.064.155a9.32 9.32 0 0 0 6.732 2.718h.015c1.752-.001 3.41-.228 4.776-.727 1.256-.458 2.212-1.128 2.808-2.016-.202-2.276-.925-5.012-2.191-7.185-1.325-2.275-3.123-3.755-5.393-3.755-4.82 0-7.333 4.082-8.74 8.073a.927.927 0 0 1-1.748-.617C3.481 8.55 6.4 3.29 12.541 3.29"/></symbol>
<symbol id="8e7aa4" viewBox="0 0 24 24" fill="none"><path fill="#4285f4" d="M21.046 12.21c0-.655-.059-1.284-.168-1.888h-8.693v3.575h4.967a4.26 4.26 0 0 1-1.854 2.777V19h2.996c1.745-1.611 2.752-3.978 2.752-6.79"/><path fill="#34a853" d="M12.184 21.23c2.493 0 4.582-.822 6.11-2.231l-2.996-2.325c-.823.554-1.872.89-3.114.89-2.4 0-4.439-1.62-5.169-3.802H3.944v2.383c1.519 3.013 4.632 5.086 8.24 5.086"/><path fill="#fbbc05" d="M7.015 13.754A5.5 5.5 0 0 1 6.721 12c0-.613.11-1.2.294-1.754V7.863H3.944A9.1 9.1 0 0 0 2.954 12c0 1.494.36 2.895.99 4.137l2.391-1.863z"/><path fill="#ea4335" d="M12.184 6.445c1.36 0 2.568.47 3.533 1.376l2.644-2.643c-1.603-1.494-3.684-2.409-6.177-2.409-3.608 0-6.721 2.073-8.24 5.094l3.071 2.383c.73-2.182 2.77-3.801 5.17-3.801"/></symbol>
<symbol id="90dd0a" viewBox="0 0 24 24" fill="none"><g clip-path="url(#90dd0a__a)"><path fill="#5059c9" d="M15.572 9.75h4.998c.472 0 .855.383.855.855v4.553a3.14 3.14 0 0 1-3.142 3.142h-.015a3.14 3.14 0 0 1-3.143-3.142v-4.961c0-.247.2-.447.447-.447M18.95 8.85a2.025 2.025 0 1 0 0-4.05 2.025 2.025 0 0 0 0 4.05"/><path fill="#7b83eb" d="M12.65 8.85a2.925 2.925 0 1 0 0-5.85 2.925 2.925 0 0 0 0 5.85M16.55 9.75H8.3a.846.846 0 0 0-.825.865v5.193A5.076 5.076 0 0 0 12.425 21a5.075 5.075 0 0 0 4.95-5.192v-5.193a.846.846 0 0 0-.825-.865"/><path fill="currentColor" d="M12.875 9.75v7.276a.83.83 0 0 1-.824.824h-4.18a5.48 5.48 0 0 1-.396-2.043v-5.193a.845.845 0 0 1 .823-.864z" opacity=".1"/><path fill="currentColor" d="M12.425 9.75v7.727a.828.828 0 0 1-.823.823h-3.52a6 6 0 0 1-.211-.45 5.48 5.48 0 0 1-.396-2.043v-5.193a.845.845 0 0 1 .823-.864z" opacity=".2"/><path fill="currentColor" d="M12.425 9.75v6.826a.83.83 0 0 1-.824.824H7.713a5.5 5.5 0 0 1-.238-1.593v-5.193a.845.845 0 0 1 .823-.864z" opacity=".2"/><path fill="currentColor" d="M11.975 9.75v6.826a.83.83 0 0 1-.824.824H7.713a5.5 5.5 0 0 1-.238-1.593v-5.193a.845.845 0 0 1 .823-.864z" opacity=".2"/><path fill="currentColor" d="M12.875 7.424V8.84c-.077.004-.149.009-.225.009s-.149-.005-.225-.009a2.5 2.5 0 0 1-.45-.072A2.93 2.93 0 0 1 9.805 6.6h2.246c.454.002.822.37.824.824" opacity=".1"/><path fill="currentColor" d="M12.425 7.873v.968a2.5 2.5 0 0 1-.45-.072A2.93 2.93 0 0 1 9.95 7.05h1.652c.454.002.822.37.823.823" opacity=".2"/><path fill="currentColor" d="M12.425 7.873v.968a2.5 2.5 0 0 1-.45-.072A2.93 2.93 0 0 1 9.95 7.05h1.652c.454.002.822.37.823.823" opacity=".2"/><path fill="currentColor" d="M11.975 7.873v.896A2.93 2.93 0 0 1 9.95 7.05h1.202c.454.002.822.37.823.823" opacity=".2"/><path fill="url(#90dd0a__b)" d="M2.9 7.05h8.25c.456 0 .825.37.825.825v8.25c0 .456-.37.825-.825.825H2.9a.825.825 0 0 1-.825-.825v-8.25c0-.456.37-.825.825-.825"/><path fill="#fff" d="M9.196 10.19h-1.65v4.491h-1.05v-4.49H4.854v-.872h4.342z"/></g><defs><linearGradient id="90dd0a__b" x1="3.795" x2="10.255" y1="6.405" y2="17.595" gradientUnits="userSpaceOnUse"><stop stop-color="#5a62c3"/><stop offset=".5" stop-color="#4d55bd"/><stop offset="1" stop-color="#3940ab"/></linearGradient><clipPath id="90dd0a__a"><path fill="#fff" d="M2.075 3h19.35v18H2.075z"/></clipPath></defs></symbol>
<symbol id="9143be" viewBox="0 0 24 24" clip-rule="evenodd" stroke="currentColor" fill="none"><path stroke-linejoin="round" stroke-width="1.575" d="M12 5.313c-3.866 0-7 2.625-7 5.863 0 1.876 1.056 3.542 2.692 4.615v3.506l3.113-2.349c.39.056.787.091 1.195.091 3.866 0 7-2.624 7-5.863 0-3.238-3.134-5.863-7-5.863Z"/></symbol>
<symbol id="9b4410" viewBox="0 0 24 24" fill="none"><path fill="#4285f4" d="M6.273 19.877v-8.114L3.756 9.461 1.5 8.184v10.261c0 .793.642 1.432 1.432 1.432z"/><path fill="#34a853" d="M17.727 19.877h3.341c.792 0 1.432-.642 1.432-1.432V8.184l-2.556 1.463-2.217 2.116z"/><path fill="#ea4335" d="m6.273 11.764-.343-3.17.343-3.035L12 9.854l5.727-4.295.383 2.87-.383 3.335L12 16.059z"/><path fill="#fbbc04" d="M17.727 5.559v6.204l4.773-3.58V6.276c0-1.771-2.021-2.78-3.437-1.719z"/><path fill="#c5221f" d="M1.5 8.184 3.695 9.83l2.578 1.933V5.56L4.936 4.556C3.52 3.495 1.5 4.504 1.5 6.275z"/></symbol>
<symbol id="9cd8ab" viewBox="0 0 24 24" fill="none"><path fill="#0373cf" d="M0 0h24v24H0z"/><path fill="#fbfcfe" d="M14.52 2.76c-.054 1.6-.13 3.196-.24 4.792a71 71 0 0 0-.154 3.405l-.007.35q-.017.857-.027 1.715l-.01.627-.003.293c-.012.67-.012.67-.279.938-.356.03-.356.03-.807.028l-.743-.003-.771-.003c-1.261-.004-1.261-.004-1.399-.142a8 8 0 0 1-.032-.498l-.012-.323-.012-.355-.042-1.148c-.067-1.872-.138-3.743-.27-5.611l-.028-.412A26 26 0 0 0 9.48 4.56q-.016-.292-.015-.585v-.277c.015-.218.015-.218.135-.338.527-.104 1.06-.183 1.59-.265l.796-.128c.85-.134 1.672-.245 2.534-.207"/><path fill="#fafcfe" d="M13.91 16.79c.25.01.25.01.37.13q.018.424.016.848v2.396c-.002.582-.002.582-.136.716q-.504.015-1.01.012h-.305l-1.63-.006L9.6 20.88v-3.96l1.943-.06.61-.019.482-.015.25-.008z"/></symbol>
<symbol id="a30c38" viewBox="0 0 24 24" fill="none"><g filter="url(#a30c38__a)"><rect width="15" height="15" x="1.65" y="6.5" fill="#fff" rx="3" transform="rotate(-8 1.65 6.5)"/><rect width="14.5" height="14.5" x="1.933" y="6.713" stroke="#8e8ea0" stroke-opacity=".1" stroke-width=".5" rx="2.75" transform="rotate(-8 1.933 6.713)"/></g><g filter="url(#a30c38__b)"><rect width="15" height="15" x="7.309" y="2.75" fill="#fff" rx="3" transform="rotate(5 7.309 2.75)"/><rect width="14.5" height="14.5" x="7.536" y="3.021" stroke="#8e8ea0" stroke-opacity=".1" stroke-width=".5" rx="2.75" transform="rotate(5 7.536 3.02)"/></g><g clip-path="url(#a30c38__c)"><path fill="#0066da" d="m9.173 13.94.41.883c.084.186.217.337.377.453l1.99-2.858-3.452-.302c-.018.196.015.396.1.582z"/><path fill="#00ac47" d="m14.287 9.055-1.463-3.16a1.15 1.15 0 0 0-.45.38L8.697 11.56a1.16 1.16 0 0 0-.2.556l3.452.302z"/><path fill="#ea4335" d="M17.464 15.933c.178-.087.335-.213.45-.381l.232-.33 1.107-1.592c.116-.168.183-.36.2-.556l-3.452-.301.607 1.518z"/><path fill="#00832d" d="m14.286 9.055 1.989-2.858a1.1 1.1 0 0 0-.551-.201L13.4 5.793c-.2-.018-.4.022-.578.102z"/><path fill="#2684fc" d="m16 12.772-4.054-.354-1.99 2.858c.162.116.352.184.553.201l6.376.558c.2.018.4-.022.578-.102z"/><path fill="#ffba00" d="m18.004 9.571-1.35-2.92a1.15 1.15 0 0 0-.378-.454l-1.99 2.858 1.718 3.718 3.446.301a1.16 1.16 0 0 0-.101-.582z"/></g><defs><filter id="a30c38__a" width="17.166" height="17.166" x="1.539" y="4.8" color-interpolation-filters="sRGB" filterUnits="userSpaceOnUse"><feFlood flood-opacity="0" result="BackgroundImageFix"/><feColorMatrix in="SourceAlpha" result="hardAlpha" values="0 0 0 0 0 0 0 0 0 0 0 0 0 0 0 0 0 0 127 0"/><feOffset dy=".5"/><feGaussianBlur stdDeviation=".25"/><feComposite in2="hardAlpha" operator="out"/><feColorMatrix values="0 0 0 0 0.337255 0 0 0 0 0.345098 0 0 0 0 0.411765 0 0 0 0.3 0"/><feBlend in2="BackgroundImageFix" result="effect1_dropShadow_376_5377"/><feBlend in="SourceGraphic" in2="effect1_dropShadow_376_5377" result="shape"/></filter><filter id="a30c38__b" width="16.75" height="16.75" x="5.751" y="3" color-interpolation-filters="sRGB" filterUnits="userSpaceOnUse"><feFlood flood-opacity="0" result="BackgroundImageFix"/><feColorMatrix in="SourceAlpha" result="hardAlpha" values="0 0 0 0 0 0 0 0 0 0 0 0 0 0 0 0 0 0 127 0"/><feOffset dy=".5"/><feGaussianBlur stdDeviation=".25"/><feComposite in2="hardAlpha" operator="out"/><feColorMatrix values="0 0 0 0 0.337255 0 0 0 0 0.345098 0 0 0 0 0.411765 0 0 0 0.3 0"/><feBlend in2="BackgroundImageFix" result="effect1_dropShadow_376_5377"/><feBlend in="SourceGraphic" in2="effect1_dropShadow_376_5377" result="shape"/></filter><clipPath id="a30c38__c"><path fill="#fff" d="m9.084 5.415 10.958.959-.863 9.862-10.958-.959z"/></clipPath></defs></symbol>
<symbol id="a72fc9" viewBox="0 0 24 24" fill="none"><path fill="#41a5ee" d="M20.147 2.698H6.503a.853.853 0 0 0-.853.852V7.35l7.907 2.326L21 7.349V3.55a.853.853 0 0 0-.852-.852"/><path fill="#2b7cd3" d="M21 7.349H5.65V12l7.907 1.395L21 12z"/><path fill="#185abd" d="M5.65 12v4.651l7.442.93 7.907-.93v-4.65z"/><path fill="#103f91" d="M6.503 21.302h13.644c.47 0 .852-.381.852-.852V16.65H5.65v3.799c0 .47.382.852.853.852"/><path fill="#282828" d="M11.31 6.419H5.65v11.628h5.66a.855.855 0 0 0 .852-.853V7.271a.855.855 0 0 0-.853-.852" opacity=".1"/><path fill="#282828" d="M10.844 6.884H5.65v11.628h5.194a.855.855 0 0 0 .853-.853V7.736a.855.855 0 0 0-.853-.852" opacity=".2"/><path fill="#282828" d="M10.844 6.884H5.65V17.58h5.194a.855.855 0 0 0 .853-.852V7.736a.855.855 0 0 0-.853-.852" opacity=".2"/><path fill="#282828" d="M10.38 6.884H5.65V17.58h4.73a.855.855 0 0 0 .852-.852V7.736a.855.855 0 0 0-.853-.852" opacity=".2"/><path fill="url(#a72fc9__a)" d="M1.853 6.884h8.527c.47 0 .853.381.853.852v8.528c0 .47-.382.852-.853.852H1.853A.853.853 0 0 1 1 16.264V7.736c0-.47.382-.852.853-.852"/><path fill="#fff" d="M4.499 13.422q.026.197.033.345h.02a4 4 0 0 1 .046-.337q.036-.196.064-.332l.896-3.87h1.16l.93 3.812q.081.356.116.719h.015q.027-.353.097-.698l.742-3.834h1.055L8.37 14.771H7.137L6.253 11.1a9 9 0 0 1-.147-.786h-.015q-.015.135-.06.402t-.072.394l-.83 3.66H3.875L2.565 9.23h1.074l.808 3.877q.027.12.052.316"/><defs><linearGradient id="a72fc9__a" x1="2.778" x2="9.455" y1="6.218" y2="17.782" gradientUnits="userSpaceOnUse"><stop stop-color="#2368c4"/><stop offset=".5" stop-color="#1a5dbe"/><stop offset="1" stop-color="#1146ac"/></linearGradient></defs></symbol>
<symbol id="a80240" viewBox="0 0 24 24" fill="none"><path fill="url(#a80240__a)" d="m10.218 2.465-.103.062a4 4 0 0 0-.458.328l.295-.207h2.5l.455 3.442-2.273 2.273-2.273 1.58v1.822c0 1.272.665 2.452 1.753 3.11l2.393 1.449-5.055 2.949h-.975l-1.817-1.1a3.64 3.64 0 0 1-1.754-3.111V8.936c0-1.273.666-2.453 1.755-3.112l5.454-3.299z"/><path fill="url(#a80240__b)" d="m10.218 2.465-.103.062a4 4 0 0 0-.458.328l.295-.207h2.5l.455 3.442-2.273 2.273-2.273 1.58v1.822c0 1.272.665 2.452 1.753 3.11l2.393 1.449-5.055 2.949h-.975l-1.817-1.1a3.64 3.64 0 0 1-1.754-3.111V8.936c0-1.273.666-2.453 1.755-3.112l5.454-3.299z"/><path fill="url(#a80240__c)" d="M15.633 9.727v2.036a3.64 3.64 0 0 1-1.753 3.111l-5.455 3.302a3.64 3.64 0 0 1-3.64.073l5.329 3.225c1.157.701 2.608.701 3.766 0l5.454-3.301a3.64 3.64 0 0 0 1.754-3.111V13.59l-.455-.682z"/><path fill="url(#a80240__d)" d="M15.633 9.727v2.036a3.64 3.64 0 0 1-1.753 3.111l-5.455 3.302a3.64 3.64 0 0 1-3.64.073l5.329 3.225c1.157.701 2.608.701 3.766 0l5.454-3.301a3.64 3.64 0 0 0 1.754-3.111V13.59l-.455-.682z"/><path fill="url(#a80240__e)" d="m19.335 5.824-5.455-3.3a3.64 3.64 0 0 0-3.656-.062l-.108.065A3.64 3.64 0 0 0 8.36 5.64V9.95l1.755-1.061c1.157-.7 2.607-.7 3.764 0l5.455 3.3a3.64 3.64 0 0 1 1.752 2.992q.002-.06.002-.12V8.937a3.64 3.64 0 0 0-1.754-3.112"/><path fill="url(#a80240__f)" d="m19.335 5.824-5.455-3.3a3.64 3.64 0 0 0-3.656-.062l-.108.065A3.64 3.64 0 0 0 8.36 5.64V9.95l1.755-1.061c1.157-.7 2.607-.7 3.764 0l5.455 3.3a3.64 3.64 0 0 1 1.752 2.992q.002-.06.002-.12V8.937a3.64 3.64 0 0 0-1.754-3.112"/><defs><radialGradient id="a80240__a" cx="0" cy="0" r="1" gradientTransform="rotate(110.528 2.449 6.085)scale(15.1669 26.4541)" gradientUnits="userSpaceOnUse"><stop offset=".064" stop-color="#ae7fe2"/><stop offset="1" stop-color="#0078d4"/></radialGradient><radialGradient id="a80240__c" cx="0" cy="0" r="1" gradientTransform="rotate(-8.367 123.314 -31.031)scale(14.1144 9.32348)" gradientUnits="userSpaceOnUse"><stop offset=".134" stop-color="#d59dff"/><stop offset="1" stop-color="#5e438f"/></radialGradient><radialGradient id="a80240__e" cx="0" cy="0" r="1" gradientTransform="rotate(194.228 10.695 5.336)scale(11.329 19.0713)" gradientUnits="userSpaceOnUse"><stop offset=".058" stop-color="#50e6ff"/><stop offset="1" stop-color="#436dcd"/></radialGradient><linearGradient id="a80240__b" x1="9.048" x2="6.884" y1="18.304" y2="14.561" gradientUnits="userSpaceOnUse"><stop stop-color="#114a8b"/><stop offset="1" stop-color="#0078d4" stop-opacity="0"/></linearGradient><linearGradient id="a80240__d" x1="19.432" x2="17.113" y1="12.625" y2="15.95" gradientUnits="userSpaceOnUse"><stop stop-color="#493474"/><stop offset="1" stop-color="#8c66ba" stop-opacity="0"/></linearGradient><linearGradient id="a80240__f" x1="8.805" x2="12.219" y1="2.479" y2="2.479" gradientUnits="userSpaceOnUse"><stop stop-color="#2d3f80"/><stop offset="1" stop-color="#436dcd" stop-opacity="0"/></linearGradient></defs></symbol>
<symbol id="a8e19f" viewBox="0 0 24 24"><path d="M19.65 3H4.35A1.35 1.35 0 0 0 3 4.35v15.3A1.35 1.35 0 0 0 4.35 21h15.3A1.35 1.35 0 0 0 21 19.65V4.35A1.35 1.35 0 0 0 19.65 3M8.4 18.3H5.7v-8.1h2.7zM7.05 8.625A1.575 1.575 0 1 1 8.67 7.05a1.6 1.6 0 0 1-1.62 1.575M18.3 18.3h-2.7v-4.266c0-1.278-.54-1.737-1.242-1.737a1.565 1.565 0 0 0-1.458 1.674.6.6 0 0 0 0 .126V18.3h-2.7v-8.1h2.61v1.17a2.8 2.8 0 0 1 2.43-1.26c1.395 0 3.024.774 3.024 3.294z"/></symbol>
<symbol id="a95857" viewBox="0 0 24 24" fill="#1868db"><path d="M20.248 3H11.58a3.913 3.913 0 0 0 3.913 3.913h1.597v1.541a3.913 3.913 0 0 0 3.91 3.91V3.753A.75.75 0 0 0 20.248 3"/><path d="M15.96 7.319H7.291a3.913 3.913 0 0 0 3.91 3.91h1.597v1.547a3.913 3.913 0 0 0 3.912 3.908V8.07a.75.75 0 0 0-.752-.752"/><path d="M11.668 11.635H3a3.913 3.913 0 0 0 3.913 3.913h1.602v1.542A3.913 3.913 0 0 0 12.42 21v-8.613a.75.75 0 0 0-.752-.752"/></symbol>
<symbol id="b4ae2d" viewBox="0 0 24 24" fill="none"><path fill="#fff" d="M16.737 7.263H7.263v9.474h9.474z"/><path fill="#ea4335" d="M16.737 21 21 16.737l-2.132-.364-2.131.364-.39 1.95z"/><path fill="#188038" d="M3 16.737v2.842A1.42 1.42 0 0 0 4.421 21h2.842l.438-2.132-.438-2.131-2.322-.364z"/><path fill="#1967d2" d="M21 7.263V4.421A1.42 1.42 0 0 0 19.579 3h-2.842q-.39 1.585-.39 2.334 0 .748.39 1.93 1.414.405 2.131.404.718 0 2.132-.405"/><path fill="#fbbc04" d="M21 7.263h-4.263v9.474H21z"/><path fill="#34a853" d="M16.737 16.737H7.263V21h9.474z"/><path fill="#4285f4" d="M16.737 3H4.42A1.42 1.42 0 0 0 3 4.421v12.316h4.263V7.263h9.474z"/><path fill="#4285f4" d="M9.206 14.612q-.531-.358-.733-1.05l.822-.339q.112.426.39.661.279.233.673.233.404 0 .693-.245a.78.78 0 0 0 .29-.624.77.77 0 0 0-.305-.632q-.307-.245-.765-.245h-.475v-.814h.426q.395 0 .665-.213a.7.7 0 0 0 .27-.584q0-.33-.242-.527a.94.94 0 0 0-.612-.198q-.363 0-.576.194c-.142.129-.249.292-.31.474l-.814-.338q.162-.459.596-.81.435-.349 1.11-.35.5 0 .899.193.398.194.624.536t.225.768q0 .434-.21.737-.21.301-.515.463v.048c.263.109.491.287.66.515q.259.346.259.83t-.245.861q-.246.38-.677.596a2.1 2.1 0 0 1-.97.218q-.622.002-1.153-.358m5.049-4.078-.903.652-.451-.684 1.619-1.168h.62v5.508h-.886z"/></symbol>
<symbol id="b4c06e" viewBox="0 0 24 24" fill="none"><g clip-path="url(#b4c06e__a)"><mask id="b4c06e__b" width="23" height="16" x="1" y="4" maskUnits="userSpaceOnUse" style="mask-type:luminance"><path fill="#fff" d="M1.785 4.54h21.361v14.92H1.786z"/></mask><g mask="url(#b4c06e__b)" fill="#00a1e0" fill-rule="evenodd" clip-rule="evenodd"><path d="M10.655 6.173a3.75 3.75 0 0 1 2.71-1.163c1.413 0 2.638.786 3.298 1.956a4.56 4.56 0 0 1 1.861-.397c2.544 0 4.61 2.081 4.61 4.65 0 2.568-2.065 4.649-4.61 4.649q-.466-.002-.911-.09a3.37 3.37 0 0 1-2.937 1.727 3.35 3.35 0 0 1-1.477-.34 3.838 3.838 0 0 1-7.139-.173q-.361.078-.733.078c-1.971 0-3.565-1.618-3.565-3.605 0-1.335.718-2.498 1.782-3.126a4.15 4.15 0 0 1 3.813-5.796c1.343 0 2.545.64 3.299 1.634"/></g></g><defs><clipPath id="b4c06e__a"><path fill="#fff" d="M1.78 4.5h21.44v15H1.78z"/></clipPath></defs></symbol>
<symbol id="b5a8d1" viewBox="0 0 24 24" fill="none"><path fill="#e01e5a" d="M6.216 14.643a2.1 2.1 0 1 1-4.2 0 2.1 2.1 0 0 1 2.1-2.102h2.1zm1.05 0a2.1 2.1 0 1 1 4.2 0v5.255a2.1 2.1 0 1 1-4.2 0z"/><path fill="#36c5f0" d="M9.367 6.204a2.1 2.1 0 0 1-2.1-2.102 2.1 2.1 0 1 1 4.2 0v2.102zm0 1.067c1.161 0 2.1.94 2.1 2.102a2.1 2.1 0 0 1-2.1 2.102H4.1A2.1 2.1 0 0 1 2 9.373 2.1 2.1 0 0 1 4.1 7.27z"/><path fill="#2eb67d" d="M17.784 9.373a2.1 2.1 0 1 1 4.2 0 2.1 2.1 0 0 1-2.1 2.102h-2.1zm-1.05 0a2.099 2.099 0 1 1-4.2 0V4.102a2.1 2.1 0 1 1 4.2 0z"/><path fill="#ecb22e" d="M14.634 17.796a2.1 2.1 0 0 1 2.1 2.102 2.099 2.099 0 1 1-4.2 0v-2.102zm0-1.05a2.1 2.1 0 0 1-2.1-2.103 2.1 2.1 0 0 1 2.1-2.102H19.9c1.162 0 2.1.94 2.1 2.102a2.1 2.1 0 0 1-2.1 2.102z"/></symbol>
<symbol id="b6d04a" viewBox="0 0 24 24" fill="#ff7a59"><path d="M16.888 8.144V5.936a1.7 1.7 0 0 0 .98-1.533v-.05a1.7 1.7 0 0 0-1.7-1.7h-.05a1.7 1.7 0 0 0-1.7 1.7v.05a1.7 1.7 0 0 0 .98 1.533v2.208a4.8 4.8 0 0 0-2.29 1.008L7.053 4.435q.065-.234.068-.477A1.916 1.916 0 1 0 5.203 5.87c.332-.001.657-.09.943-.256l5.963 4.64a4.83 4.83 0 0 0 .074 5.44l-1.813 1.813a1.6 1.6 0 0 0-.454-.073 1.573 1.573 0 1 0 1.575 1.574 1.6 1.6 0 0 0-.074-.453l1.794-1.795a4.837 4.837 0 1 0 3.677-8.616m-.744 7.261a2.482 2.482 0 1 1 0-4.962 2.482 2.482 0 0 1 .003 4.961"/></symbol>
<symbol id="b813a5" viewBox="0 0 24 24" fill-rule="evenodd" clip-rule="evenodd" fill="#62d84e"><path d="M12.06 3.063a10.038 10.038 0 0 0-6.917 17.333 1.98 1.98 0 0 0 2.578.134 7.17 7.17 0 0 1 8.558 0 1.99 1.99 0 0 0 2.593-.15 10.037 10.037 0 0 0-6.813-17.32M12 18.108a4.867 4.867 0 0 1-4.997-4.997 4.998 4.998 0 1 1 9.995 0A4.87 4.87 0 0 1 12 18.109"/></symbol>
<symbol id="c0815b" viewBox="0 0 24 24" fill="#ff584a"><path d="M16.348 7.107a4.35 4.35 0 1 1-8.7 0 4.35 4.35 0 0 1 8.7 0m-10 5.436a4.35 4.35 0 1 0 0 8.7 4.35 4.35 0 0 0 0-8.7m11.301 0a4.35 4.35 0 1 0 0 8.7 4.35 4.35 0 0 0 0-8.7"/></symbol>
<symbol id="c7254f" viewBox="0 0 24 24" fill="none"><g filter="url(#c7254f__a)"><rect width="15" height="15" x="1.65" y="6.5" fill="#fff" rx="3" transform="rotate(-8 1.65 6.5)"/><rect width="14.5" height="14.5" x="1.933" y="6.713" stroke="#8e8ea0" stroke-opacity=".1" stroke-width=".5" rx="2.75" transform="rotate(-8 1.933 6.713)"/></g><g filter="url(#c7254f__b)"><rect width="15" height="15" x="7.309" y="2.75" fill="#fff" rx="3" transform="rotate(5 7.309 2.75)"/><rect width="14.5" height="14.5" x="7.536" y="3.021" stroke="#8e8ea0" stroke-opacity=".1" stroke-width=".5" rx="2.75" transform="rotate(5 7.536 3.02)"/></g><g clip-path="url(#c7254f__c)"><path fill="#0066da" d="m9.173 13.94.41.883c.085.186.217.337.377.453l1.99-2.858-3.452-.302c-.017.196.016.396.1.582z"/><path fill="#00ac47" d="m14.287 9.055-1.463-3.16a1.15 1.15 0 0 0-.45.38L8.697 11.56a1.16 1.16 0 0 0-.2.556l3.452.302z"/><path fill="#ea4335" d="M17.464 15.933c.178-.087.335-.213.45-.381l.232-.33 1.107-1.592c.116-.168.183-.36.2-.556l-3.452-.301.607 1.518z"/><path fill="#00832d" d="m14.286 9.055 1.99-2.858a1.1 1.1 0 0 0-.552-.201l-2.322-.204c-.201-.017-.4.023-.579.103z"/><path fill="#2684fc" d="m16 12.772-4.054-.354-1.99 2.858c.161.116.352.184.552.201l6.377.558c.2.018.4-.022.578-.102z"/><path fill="#ffba00" d="m18.004 9.572-1.35-2.922a1.15 1.15 0 0 0-.378-.453l-1.99 2.858 1.718 3.718 3.446.301a1.16 1.16 0 0 0-.101-.582z"/></g><defs><filter id="c7254f__a" width="17.166" height="17.166" x="1.538" y="4.8" color-interpolation-filters="sRGB" filterUnits="userSpaceOnUse"><feFlood flood-opacity="0" result="BackgroundImageFix"/><feColorMatrix in="SourceAlpha" result="hardAlpha" values="0 0 0 0 0 0 0 0 0 0 0 0 0 0 0 0 0 0 127 0"/><feOffset dy=".5"/><feGaussianBlur stdDeviation=".25"/><feComposite in2="hardAlpha" operator="out"/><feColorMatrix values="0 0 0 0 0.337255 0 0 0 0 0.345098 0 0 0 0 0.411765 0 0 0 0.3 0"/><feBlend in2="BackgroundImageFix" result="effect1_dropShadow_3708_1123"/><feBlend in="SourceGraphic" in2="effect1_dropShadow_3708_1123" result="shape"/></filter><filter id="c7254f__b" width="16.75" height="16.75" x="5.751" y="3" color-interpolation-filters="sRGB" filterUnits="userSpaceOnUse"><feFlood flood-opacity="0" result="BackgroundImageFix"/><feColorMatrix in="SourceAlpha" result="hardAlpha" values="0 0 0 0 0 0 0 0 0 0 0 0 0 0 0 0 0 0 127 0"/><feOffset dy=".5"/><feGaussianBlur stdDeviation=".25"/><feComposite in2="hardAlpha" operator="out"/><feColorMatrix values="0 0 0 0 0.337255 0 0 0 0 0.345098 0 0 0 0 0.411765 0 0 0 0.3 0"/><feBlend in2="BackgroundImageFix" result="effect1_dropShadow_3708_1123"/><feBlend in="SourceGraphic" in2="effect1_dropShadow_3708_1123" result="shape"/></filter><clipPath id="c7254f__c"><path fill="#fff" d="m9.084 5.415 10.958.959-.863 9.862-10.958-.959z"/></clipPath></defs></symbol>
<symbol id="cabaaa" viewBox="0 0 24 24" fill="none"><g filter="url(#cabaaa__a)"><mask id="cabaaa__c" fill="#fff"><path fill-rule="evenodd" d="M23 7.852q0-.392-.002-.784 0-.33-.01-.66a9.6 9.6 0 0 0-.126-1.437 4.8 4.8 0 0 0-.45-1.365A4.6 4.6 0 0 0 20.403 1.6a4.9 4.9 0 0 0-1.366-.45 9.6 9.6 0 0 0-1.437-.127q-.33-.008-.66-.01l-.785-.001L13.122 1h-2.27l-2.98.01q-.393 0-.785.002-.33.002-.662.01a9.6 9.6 0 0 0-1.44.127c-.482.086-.93.227-1.369.45a4.6 4.6 0 0 0-2.012 2.007 4.8 4.8 0 0 0-.452 1.366 9.6 9.6 0 0 0-.126 1.436q-.009.33-.01.66C1.013 7.33 1 7.654 1 7.915v5.233l.014 3.002.001.784q.001.33.01.661c.013.48.041.964.127 1.439.086.481.228.93.45 1.367a4.6 4.6 0 0 0 2.013 2.01 4.9 4.9 0 0 0 1.37.451c.474.085.959.114 1.44.127q.33.008.66.01h.786L10.88 23h5.277q.39 0 .784-.002.33 0 .66-.01a9.6 9.6 0 0 0 1.437-.126 4.9 4.9 0 0 0 1.366-.45 4.6 4.6 0 0 0 2.009-2.01c.223-.439.364-.887.45-1.369.086-.474.114-.958.127-1.438q.008-.33.01-.66L23 16.15V7.852" clip-rule="evenodd"/></mask><path fill="url(#cabaaa__b)" fill-rule="evenodd" d="M23 7.852q0-.392-.002-.784 0-.33-.01-.66a9.6 9.6 0 0 0-.126-1.437 4.8 4.8 0 0 0-.45-1.365A4.6 4.6 0 0 0 20.403 1.6a4.9 4.9 0 0 0-1.366-.45 9.6 9.6 0 0 0-1.437-.127q-.33-.008-.66-.01l-.785-.001L13.122 1h-2.27l-2.98.01q-.393 0-.785.002-.33.002-.662.01a9.6 9.6 0 0 0-1.44.127c-.482.086-.93.227-1.369.45a4.6 4.6 0 0 0-2.012 2.007 4.8 4.8 0 0 0-.452 1.366 9.6 9.6 0 0 0-.126 1.436q-.009.33-.01.66C1.013 7.33 1 7.654 1 7.915v5.233l.014 3.002.001.784q.001.33.01.661c.013.48.041.964.127 1.439.086.481.228.93.45 1.367a4.6 4.6 0 0 0 2.013 2.01 4.9 4.9 0 0 0 1.37.451c.474.085.959.114 1.44.127q.33.008.66.01h.786L10.88 23h5.277q.39 0 .784-.002.33 0 .66-.01a9.6 9.6 0 0 0 1.437-.126 4.9 4.9 0 0 0 1.366-.45 4.6 4.6 0 0 0 2.009-2.01c.223-.439.364-.887.45-1.369.086-.474.114-.958.127-1.438q.008-.33.01-.66L23 16.15V7.852" clip-rule="evenodd"/><path fill="#c0cbda" fill-opacity=".8" d="m22.999 7.068-.5.003zm-.01-.66-.5.014zm-.127-1.437-.492.089zm-.45-1.365.446-.227zm-.845-1.163-.354.354zM20.403 1.6l.227-.446zm-1.366-.45-.089.492zM17.6 1.021l-.014.5zm-.66-.01.003-.5zm-.785-.001-.001.5h.002zM13.122 1l.002-.5h-.002zm-2.27 0V.5h-.001zm-2.98.01v.5h.002zm-.785.002-.003-.5zm-.662.01.014.5zm-1.44.127.088.492zm-1.369.45-.226-.446zm-1.165.844.353.354zm-.847 1.163.445.227zM1.15 4.972.66 4.883zm-.126 1.436-.5-.013zm-.01.66.5.003zM1 7.915H.5zm0 2.94h.5zm0 2.293H.5v.002zm.014 3.002h.5v-.002zm.001.784-.5.003zm.01.661-.5.014zm.127 1.439.492-.089zm.45 1.367-.445.227zm2.013 2.01-.227.446zm1.37.451.088-.492zm1.44.127.013-.5zm.66.01.004-.5zm.786 0v-.5zM10.88 23v.5zm2.275 0v.5zm3.002 0v-.5zm.784-.002-.004-.5zm.66-.01.013.5zm1.437-.126.089.492zm1.366-.45-.227-.446zm1.164-.846-.354-.354zm.845-1.165.446.227zm.45-1.368.493.089zm.127-1.438-.5-.013zm.01-.66-.5-.004zM23 16.15h.5zm.5-8.298q0-.392-.002-.787l-1 .006q.002.39.002.78zm-.002-.787a32 32 0 0 0-.01-.67l-1 .027q.01.321.01.65zm-.01-.67c-.013-.488-.042-1-.134-1.512l-.984.177c.079.437.106.89.119 1.362zm-.134-1.512a5.3 5.3 0 0 0-.496-1.504l-.891.454c.197.388.324.788.403 1.227zm-.496-1.504a5.1 5.1 0 0 0-.938-1.29l-.707.708c.304.304.559.654.754 1.036zm-.938-1.29a5.1 5.1 0 0 0-1.29-.936l-.453.891c.382.195.733.45 1.036.753zm-1.29-.936a5.4 5.4 0 0 0-1.505-.497l-.177.985c.44.078.84.206 1.229.403zM19.125.656a10 10 0 0 0-1.512-.134l-.027 1c.471.013.926.04 1.362.119zM17.613.522a32 32 0 0 0-.67-.01l-.007 1q.328.002.65.01zm-.67-.01-.788-.001v1l.781.001zm-.786-.001L13.123.5l-.003 1 3.034.01zM13.121.5h-2.27v1h2.27zM10.85.5 7.87.51l.003 1 2.98-.01zM7.871.51q-.393 0-.788.002l.006 1 .782-.001zm-.788.002q-.334.002-.672.01l.027 1q.323-.008.65-.01zm-.672.01c-.489.014-1.003.043-1.515.134l.176.985a9 9 0 0 1 1.366-.119zM4.896.656a5.4 5.4 0 0 0-1.507.497l.453.891c.389-.197.79-.324 1.23-.403zm-1.507.497a5.1 5.1 0 0 0-1.293.936l.707.708a4.1 4.1 0 0 1 1.039-.753zm-1.293.936a5.1 5.1 0 0 0-.939 1.29l.891.454c.195-.382.45-.732.755-1.036zm-.939 1.29A5.3 5.3 0 0 0 .66 4.883l.985.178c.079-.44.206-.84.404-1.228zM.66 4.883a10 10 0 0 0-.134 1.512l1 .027c.012-.471.04-.925.119-1.361zM.525 6.395a32 32 0 0 0-.01.67l1 .006q.001-.326.01-.65zm-.01.67c0 .125-.004.266-.008.414a19 19 0 0 0-.007.436h1c0-.124.003-.264.007-.411.003-.145.007-.297.008-.433zm-.015.85v2.94h1v-2.94zm0 2.94v2.293h1v-2.294zm0 2.295.014 3.002 1-.005-.014-3.001zm.014 3 .001.787 1-.006q-.002-.39-.001-.781zm.001.787q.001.334.01.672l1-.027a31 31 0 0 1-.01-.65zm.01.672c.013.488.042 1.002.134 1.513l.985-.177a9 9 0 0 1-.12-1.363zm.134 1.513c.095.524.25 1.02.498 1.506l.891-.454a4.4 4.4 0 0 1-.404-1.229zm.498 1.506a5.1 5.1 0 0 0 .94 1.291l.706-.707a4.1 4.1 0 0 1-.755-1.038zm.94 1.291c.378.378.814.695 1.292.938l.453-.891a4.1 4.1 0 0 1-1.04-.754zm1.292.938c.487.248.983.403 1.507.497l.177-.984a4.4 4.4 0 0 1-1.231-.404zm1.507.497c.512.092 1.026.121 1.515.134l.027-1a9 9 0 0 1-1.365-.118zm1.515.134q.338.01.672.01l.006-1a31 31 0 0 1-.651-.01zm.672.01q.396.002.788.002v-1q-.393 0-.782-.002zm.788.002h3.008v-1H7.87zm3.008 0h2.275v-1h-2.275zm2.275 0h3.002v-1h-3.002zm3.002 0q.39 0 .787-.002l-.007-1q-.388.002-.78.002zm.787-.002q.332 0 .67-.01l-.027-1q-.322.01-.65.01zm.67-.01a10 10 0 0 0 1.513-.134l-.177-.984a9 9 0 0 1-1.363.119zm1.513-.134a5.3 5.3 0 0 0 1.504-.497l-.454-.891a4.3 4.3 0 0 1-1.227.404zm1.504-.497a5.1 5.1 0 0 0 1.29-.938l-.707-.707a4.1 4.1 0 0 1-1.037.754zm1.29-.938c.378-.378.695-.814.938-1.291l-.892-.454c-.195.384-.45.734-.753 1.038zm.938-1.291c.247-.487.402-.983.497-1.506l-.985-.177c-.079.44-.206.84-.404 1.23zm.497-1.506c.091-.512.12-1.025.133-1.513l-1-.027c-.012.471-.04.926-.118 1.363zm.133-1.513q.01-.339.01-.672l-1-.006a31 31 0 0 1-.01.65zm.01-.672q.002-.395.002-.787h-1q0 .393-.002.781zM23 16.15h.5v-3.002h-1v3.001zm.5-3.002v-2.296h-1v2.296zm0-2.296v-3h-1v3z" mask="url(#cabaaa__c)"/></g><path fill="#2c3339" d="M18.232 10.672a3.65 3.65 0 0 0-.314-2.994 3.69 3.69 0 0 0-3.97-1.77 3.65 3.65 0 0 0-2.75-1.225A3.69 3.69 0 0 0 7.68 7.236a3.65 3.65 0 0 0-2.438 1.768 3.69 3.69 0 0 0 .454 4.324 3.65 3.65 0 0 0 .313 2.994 3.69 3.69 0 0 0 3.971 1.77 3.65 3.65 0 0 0 2.75 1.225 3.69 3.69 0 0 0 3.518-2.554 3.65 3.65 0 0 0 2.438-1.769 3.69 3.69 0 0 0-.454-4.322m-5.5 7.688a2.74 2.74 0 0 1-1.756-.634l.086-.05 2.914-1.683a.47.47 0 0 0 .24-.414V11.47l1.231.711a.1.1 0 0 1 .016.014.1.1 0 0 1 .008.02v3.402a2.746 2.746 0 0 1-2.74 2.742m-5.893-2.516a2.73 2.73 0 0 1-.327-1.838l.086.052 2.914 1.683a.47.47 0 0 0 .479 0l3.557-2.054v1.422a.04.04 0 0 1-.017.038l-2.946 1.7a2.745 2.745 0 0 1-3.746-1.003m-.767-6.361c.32-.556.826-.982 1.428-1.203l-.002.1v3.367a.47.47 0 0 0 .24.414l3.557 2.054-1.232.711a.05.05 0 0 1-.041.004l-2.946-1.702a2.745 2.745 0 0 1-1.004-3.745m10.12 2.354-3.558-2.054 1.231-.71a.05.05 0 0 1 .042-.004l2.946 1.7a2.744 2.744 0 0 1-.424 4.95v-3.467a.47.47 0 0 0-.238-.415m1.225-1.845-.087-.051-2.913-1.683a.48.48 0 0 0-.48 0l-3.557 2.054V8.89a.04.04 0 0 1 .018-.038l2.946-1.7a2.743 2.743 0 0 1 4.073 2.84M9.71 12.527l-1.232-.71a.04.04 0 0 1-.024-.034V8.38a2.743 2.743 0 0 1 4.498-2.106c-.022.012-.061.033-.087.049L9.952 8.007a.47.47 0 0 0-.24.414zm.669-1.442 1.584-.915 1.585.914v1.83l-1.585.915-1.584-.915z"/><defs><linearGradient id="cabaaa__b" x1="12" x2="12" y1="1" y2="23" gradientUnits="userSpaceOnUse"><stop stop-color="#fff"/><stop offset="1" stop-color="#e2eaf3"/></linearGradient><filter id="cabaaa__a" width="22.833" height="22.833" x=".583" y="1" color-interpolation-filters="sRGB" filterUnits="userSpaceOnUse"><feFlood flood-opacity="0" result="BackgroundImageFix"/><feColorMatrix in="SourceAlpha" result="hardAlpha" values="0 0 0 0 0 0 0 0 0 0 0 0 0 0 0 0 0 0 127 0"/><feOffset dy=".417"/><feGaussianBlur stdDeviation=".208"/><feComposite in2="hardAlpha" operator="out"/><feColorMatrix values="0 0 0 0 0.172549 0 0 0 0 0.2 0 0 0 0 0.223529 0 0 0 0.36 0"/><feBlend in2="BackgroundImageFix" result="effect1_dropShadow_376_5386"/><feBlend in="SourceGraphic" in2="effect1_dropShadow_376_5386" result="shape"/></filter></defs></symbol>
<symbol id="cb060c" viewBox="0 0 24 24" fill="none"><path fill="#ff4343" d="M4 4a2 2 0 0 1 2-2h8l6 6v12a2 2 0 0 1-2 2H6a2 2 0 0 1-2-2z"/><path fill="#fff" d="M16.096 17.002h-1.339V12.69H18v1.141h-1.904v.685h1.562v1.11h-1.562zM10.262 17.002V12.69h1.669c1.423 0 2.258.84 2.258 2.156 0 1.315-.835 2.156-2.258 2.156zm1.333-1.141h.336c.606 0 .907-.402.907-1.015s-.3-1.015-.907-1.015h-.336zM7.363 15.765v1.237H6V12.69h1.964c1.105 0 1.783.529 1.783 1.537 0 1.01-.678 1.538-1.783 1.538zm0-1.13h.529c.354 0 .51-.161.51-.408s-.156-.408-.51-.408h-.529z"/><path fill="#a53636" d="m14 2 6 6h-4a2 2 0 0 1-2-2z"/></symbol>
<symbol id="d11ee2" viewBox="0 0 24 24" fill="none"><path fill="#017737" d="M22 12c0-5.523-4.477-10-10-10S2 6.477 2 12s4.477 10 10 10 10-4.477 10-10"/><path fill="#fff" d="M17.487 10.335c0 2.705-1.746 4.555-4.242 4.555-1.187 0-2.165-.488-2.53-1.1l.017.629v3.875H8.183V8.274c0-.139-.034-.174-.192-.174h-.873V5.97h2.13c.977 0 1.222.839 1.291 1.206.385-.646 1.396-1.396 2.828-1.396 2.461-.001 4.12 1.831 4.12 4.555m-2.601.017c0-1.449-.943-2.443-2.13-2.443-.977 0-2.077.645-2.077 2.461 0 1.187.663 2.426 2.042 2.426 1.013 0 2.165-.734 2.165-2.444"/></symbol>
<symbol id="d2ee17" viewBox="0 0 24 24" fill="none"><path fill="#86a9ff" d="M9.487 11.744a6.406 6.406 0 0 0-6.41 6.41v2.692c0 .637.517 1.154 1.154 1.154h3.077l3.077-10.256z"/><path fill="#578cff" d="M20 15.974a4.23 4.23 0 0 0-4.23-4.23h-3.078V22h3.077A4.23 4.23 0 0 0 20 17.77"/><path fill="#0057cc" d="M6.154 15.974a4.23 4.23 0 0 1 4.23-4.23h2.308a4.23 4.23 0 0 1 4.231 4.23v1.795A4.23 4.23 0 0 1 12.693 22H7.307a1.154 1.154 0 0 1-1.154-1.154zM11.538 9.949a3.974 3.974 0 1 0 0-7.949 3.974 3.974 0 0 0 0 7.949"/></symbol>
<symbol id="d7c1fd" viewBox="0 0 14 14"><path d="M7 .3a6.665 6.665 0 0 1 6.667 6.667 6.68 6.68 0 0 1-4.542 6.325c-.333.067-.458-.142-.458-.316 0-.226.008-.942.008-1.834 0-.625-.208-1.025-.45-1.233 1.484-.167 3.042-.733 3.042-3.292a2.58 2.58 0 0 0-.683-1.791c.066-.167.3-.85-.067-1.767 0 0-.558-.183-1.833.683a6.2 6.2 0 0 0-1.667-.225c-.567 0-1.134.075-1.667.225-1.275-.858-1.833-.683-1.833-.683-.367.917-.133 1.6-.067 1.767a2.6 2.6 0 0 0-.683 1.791c0 2.55 1.55 3.125 3.033 3.292-.191.166-.366.458-.425.891-.383.175-1.341.459-1.941-.55-.126-.2-.5-.691-1.025-.683-.559.009-.225.317.008.442.283.158.608.75.683.941.133.376.567 1.092 2.242.784 0 .558.008 1.083.008 1.242 0 .174-.125.374-.458.316A6.66 6.66 0 0 1 .333 6.967 6.665 6.665 0 0 1 7 .301"/></symbol>
<symbol id="de6e9f" viewBox="0 0 20 20" fill="none"><path fill="#0364b8" d="m7.824 7.353 3.849 2.305 2.293-.965a3.7 3.7 0 0 1 1.728-.295A5.73 5.73 0 0 0 5.358 6.67l.058-.001a4.56 4.56 0 0 1 2.408.683"/><path fill="#0078d4" d="M7.824 7.353a4.56 4.56 0 0 0-2.407-.683l-.059.001a4.582 4.582 0 0 0-3.701 7.202l3.394-1.428 1.508-.635 3.36-1.414 1.754-.738z"/><path fill="#1490df" d="M15.694 8.398a3.71 3.71 0 0 0-1.727.295l-2.294.965.665.398 2.18 1.306.95.57 3.253 1.947a3.725 3.725 0 0 0-3.027-5.481"/><path fill="#28a8ea" d="m15.47 11.932-.952-.57-2.18-1.306-.665-.398-1.754.738-3.36 1.414-1.508.634-3.394 1.429a4.58 4.58 0 0 0 3.76 1.963h10.026a3.72 3.72 0 0 0 3.278-1.957z"/></symbol>
<symbol id="df0119" viewBox="0 0 24 24" fill="none"><path fill="#e24329" d="m21.664 9.993-.027-.072-2.722-7.102a.718.718 0 0 0-1.36.074l-1.838 5.625H8.281L6.442 2.892a.715.715 0 0 0-1.079-.41.7.7 0 0 0-.28.337L2.361 9.922l-.027.071a5.055 5.055 0 0 0 1.677 5.842l.01.007.023.018 4.147 3.104 2.051 1.553 1.249.944c.3.228.716.228 1.017 0l1.248-.944 2.05-1.553 4.172-3.122.01-.009a5.055 5.055 0 0 0 1.676-5.84"/><path fill="#fc6d26" d="m21.664 9.993-.027-.072a9.2 9.2 0 0 0-3.66 1.646L12 16.087c2.035 1.54 3.807 2.877 3.807 2.877l4.172-3.122.01-.009a5.055 5.055 0 0 0 1.676-5.84"/><path fill="#fca326" d="m8.191 18.964 2.051 1.553 1.249.944c.3.228.716.228 1.017 0l1.248-.944 2.05-1.553L12 16.087c-2.036 1.54-3.808 2.877-3.808 2.877"/><path fill="#fc6d26" d="M6.02 11.567a9.2 9.2 0 0 0-3.659-1.645l-.027.071a5.055 5.055 0 0 0 1.677 5.842l.01.007.023.018 4.147 3.104L12 16.087z"/></symbol>
<symbol id="df22b4" viewBox="0 0 24 24" fill="none"><g clip-path="url(#df22b4__a)"><path fill="#0472f8" d="M22 2H2v20h20z"/><path fill="#fff" fill-rule="evenodd" d="M12.13 13.516c-.763 0-1.417-.654-1.417-1.453 0-.8.618-1.454 1.417-1.454.763 0 1.417.654 1.417 1.454s-.618 1.453-1.417 1.453m-4.141 0c-.763 0-1.417-.654-1.417-1.453 0-.8.618-1.454 1.417-1.454.763 0 1.417.654 1.417 1.454s-.618 1.453-1.417 1.453m9.445-3.597a.52.52 0 0 1 .726-.072c.218.145.291.472.11.69l-1.308 1.634 1.308 1.635c.181.218.108.509-.11.69a.6.6 0 0 1-.726-.072l-1.126-1.38-1.126 1.38a.52.52 0 0 1-.727.072c-.218-.145-.29-.472-.109-.69l1.308-1.634-1.271-1.672c-.182-.218-.11-.508.108-.69a.6.6 0 0 1 .727.073l1.126 1.417zM6.136 7.594a.48.48 0 0 1 .472.472v2.071c.4-.29.872-.472 1.417-.472.908 0 1.671.509 2.07 1.308.4-.763 1.163-1.308 2.071-1.308 1.308 0 2.325 1.09 2.325 2.434s-1.053 2.434-2.325 2.434c-.908 0-1.67-.509-2.07-1.308-.4.763-1.163 1.308-2.07 1.308-1.272 0-2.326-1.054-2.326-2.398V8.066c-.036-.254.182-.472.436-.472" clip-rule="evenodd"/></g><defs><clipPath id="df22b4__a"><rect width="20" height="20" x="2" y="2" fill="#fff" rx="2"/></clipPath></defs></symbol>
<symbol id="e123bf" viewBox="0 0 24 24" fill="none"><path fill="#185c37" d="M13.557 11.535 5.65 10.139v10.31c0 .472.382.853.853.853h13.644c.47 0 .852-.381.852-.852V16.65z"/><path fill="#21a366" d="M13.557 2.698H6.503a.853.853 0 0 0-.853.852V7.35L13.557 12l4.186 1.395L21 12V7.349z"/><path fill="#107c41" d="M5.65 7.349h7.907V12H5.65z"/><path fill="#282828" d="M11.31 6.419H5.65v11.628h5.66a.855.855 0 0 0 .852-.853V7.27a.855.855 0 0 0-.853-.852" opacity=".1"/><path fill="#282828" d="M10.844 6.884H5.65v11.628h5.194a.855.855 0 0 0 .853-.853V7.736a.855.855 0 0 0-.853-.852" opacity=".2"/><path fill="#282828" d="M10.844 6.884H5.65V17.58h5.194a.855.855 0 0 0 .853-.852V7.736a.855.855 0 0 0-.853-.852" opacity=".2"/><path fill="#282828" d="M10.38 6.884H5.65V17.58h4.73a.855.855 0 0 0 .852-.852V7.736a.855.855 0 0 0-.853-.852" opacity=".2"/><path fill="url(#e123bf__a)" d="M1.853 6.884h8.527c.47 0 .853.381.853.852v8.528c0 .47-.382.852-.853.852H1.853A.853.853 0 0 1 1 16.264V7.736c0-.47.382-.852.853-.852"/><path fill="#fff" d="m3.64 14.771 1.793-2.779L3.79 9.228h1.322l.896 1.768q.125.251.17.375h.012q.09-.201.186-.39l.959-1.752h1.213l-1.685 2.748 1.728 2.794h-1.29l-1.037-1.94a1.6 1.6 0 0 1-.123-.259h-.016q-.045.132-.12.251L4.94 14.771z"/><path fill="#33c481" d="M20.149 2.698h-6.59v4.65h7.442V3.55a.853.853 0 0 0-.852-.852"/><path fill="#107c41" d="M13.56 12H21v4.651H13.56z"/><defs><linearGradient id="e123bf__a" x1="2.778" x2="9.455" y1="6.218" y2="17.782" gradientUnits="userSpaceOnUse"><stop stop-color="#18884f"/><stop offset=".5" stop-color="#117e43"/><stop offset="1" stop-color="#0b6631"/></linearGradient></defs></symbol>
<symbol id="e390fe" viewBox="0 0 24 24"><path d="M4.832 21V3h8.1q1.722 0 3.11.746a5.57 5.57 0 0 1 2.212 2.057q.797 1.286.797 2.931 0 1.698-.797 3.06a5.74 5.74 0 0 1-2.185 2.109q-1.39.771-3.137.771H8.997V21zm9.977 0-4.577-8.126 4.474-.643L19.797 21zm-5.812-9.669h3.549q.668 0 1.157-.282.515-.309.771-.849a2.6 2.6 0 0 0 .283-1.234q0-.694-.308-1.209a2 2 0 0 0-.9-.823q-.566-.283-1.389-.283H8.997z"/></symbol>
<symbol id="e457bf" viewBox="0 0 24 24" fill="#0061fe"><path d="M6.628 3.007 1.255 6.382l5.373 3.375 5.374-3.375 5.373 3.375 5.372-3.375-5.372-3.375-5.373 3.375zM6.628 16.507l-5.373-3.375 5.373-3.375 5.374 3.375zM12.002 13.132l5.372-3.375 5.373 3.375-5.373 3.375zM12.001 21.007l-5.374-3.375 5.374-3.375 5.373 3.375z"/></symbol>
<symbol id="ede1d7" viewBox="0 0 24 24" fill="none"><mask id="ede1d7__a" width="20" height="20" x="2" y="1" maskUnits="userSpaceOnUse" style="mask-type:alpha"><path fill="#d9d9d9" d="M2.5 8.654a3 3 0 0 1 1.398-2.537l6.5-4.105a3 3 0 0 1 3.204 0l6.5 4.105A3 3 0 0 1 21.5 8.654V18a3 3 0 0 1-3 3h-13a3 3 0 0 1-3-3z"/></mask><g mask="url(#ede1d7__a)"><path fill="url(#ede1d7__b)" d="M2.5 9.532c0-.926 0-1.39.126-1.811a3 3 0 0 1 .54-1.024c.277-.342.66-.604 1.424-1.127l2.893-1.98c1.63-1.114 2.445-1.672 3.328-1.888a5 5 0 0 1 2.378 0c.883.216 1.698.774 3.328 1.889l2.893 1.98c.765.522 1.147.784 1.424 1.126a3 3 0 0 1 .54 1.024c.126.421.126.885.126 1.81V16.2c0 1.68 0 2.52-.327 3.162a3 3 0 0 1-1.311 1.311C19.22 21 18.38 21 16.7 21H7.3c-1.68 0-2.52 0-3.162-.327a3 3 0 0 1-1.311-1.311C2.5 18.72 2.5 17.88 2.5 16.2z"/><path fill="url(#ede1d7__c)" d="M17.05 7.171 8.5 13 1 8 12 .5l5.032 3.355a2 2 0 0 1 .017 3.316"/><path fill="url(#ede1d7__d)" d="M13.923 4.764 4.5 10.5 1 8l11-7 1.938 1.211a1.5 1.5 0 0 1-.015 2.553"/><path fill="url(#ede1d7__e)" d="M4 21v-.5L20.607 9.429a2 2 0 0 0 .83-1.18L22 6v15z"/><path fill="url(#ede1d7__f)" d="M1 8v13h11.612a2.388 2.388 0 0 0 1.324-4.376z"/></g><g filter="url(#ede1d7__g)" fill="url(#ede1d7__h)"><rect width="9" height="9" x="1" y="11" rx="1.75"/></g><path fill="#fff" d="M3.1 15.43q0-.767.226-1.289.17-.384.46-.69.293-.305.64-.452a2.7 2.7 0 0 1 1.067-.199q1.094 0 1.749.69.658.69.658 1.917 0 1.218-.651 1.907Q6.597 18 5.507 18q-1.104 0-1.755-.683-.652-.686-.652-1.886m1.03-.033q0 .854.388 1.296.388.44.985.44.598 0 .98-.436.384-.44.384-1.314 0-.864-.375-1.29-.37-.425-.989-.425-.617 0-.995.432-.378.429-.378 1.297"/><defs><linearGradient id="ede1d7__b" x1="19.5" x2="10" y1="6.5" y2="14.5" gradientUnits="userSpaceOnUse"><stop stop-color="#3f33cf"/><stop offset=".46" stop-color="#1a47ba"/><stop offset="1" stop-color="#1140a7"/></linearGradient><linearGradient id="ede1d7__c" x1="16.5" x2="5.5" y1="4" y2="11.5" gradientUnits="userSpaceOnUse"><stop stop-color="#7583f7"/><stop offset=".459" stop-color="#237fe9"/><stop offset="1" stop-color="#0f5cc8"/></linearGradient><linearGradient id="ede1d7__d" x1="13.5" x2="4" y1="2" y2="10" gradientUnits="userSpaceOnUse"><stop stop-color="#a4b7fc"/><stop offset=".646" stop-color="#42d1fe"/><stop offset="1" stop-color="#159cff"/></linearGradient><linearGradient id="ede1d7__e" x1="21.5" x2="9.5" y1="13" y2="19.5" gradientUnits="userSpaceOnUse"><stop stop-color="#81aff3"/><stop offset=".462" stop-color="#14a5f5"/><stop offset="1" stop-color="#079bef"/></linearGradient><linearGradient id="ede1d7__f" x1="3" x2="15" y1="16.5" y2="18.5" gradientUnits="userSpaceOnUse"><stop stop-color="#43c6ff"/><stop offset="1" stop-color="#37ceff"/></linearGradient><linearGradient id="ede1d7__h" x1="5.5" x2="5.5" y1="11" y2="20" gradientUnits="userSpaceOnUse"><stop stop-color="#1f94e5"/><stop offset="1" stop-color="#1447ae"/></linearGradient><filter id="ede1d7__g" width="10" height="10" x=".5" y="10.75" color-interpolation-filters="sRGB" filterUnits="userSpaceOnUse"><feFlood flood-opacity="0" result="BackgroundImageFix"/><feColorMatrix in="SourceAlpha" result="hardAlpha" values="0 0 0 0 0 0 0 0 0 0 0 0 0 0 0 0 0 0 127 0"/><feOffset dy=".25"/><feGaussianBlur stdDeviation=".25"/><feComposite in2="hardAlpha" operator="out"/><feColorMatrix values="0 0 0 0 0 0 0 0 0 0 0 0 0 0 0 0 0 0 0.25 0"/><feBlend in2="BackgroundImageFix" result="effect1_dropShadow_11057_276"/><feBlend in="SourceGraphic" in2="effect1_dropShadow_11057_276" result="shape"/></filter></defs></symbol>
<symbol id="eef8f4" viewBox="0 0 24 24"><path d="M6.104 5.91c.584.474.802.438 1.898.365l10.332-.62c.22 0 .037-.22-.036-.256l-1.716-1.24c-.329-.255-.767-.548-1.606-.475l-10.005.73c-.364.036-.437.219-.292.365zm.62 2.408v10.87c0 .585.292.803.95.767l11.354-.657c.657-.036.73-.438.73-.913V7.588c0-.474-.182-.73-.584-.693l-11.866.693c-.438.036-.584.255-.584.73m11.21.583c.072.328 0 .657-.33.694l-.547.109v8.025c-.475.256-.913.401-1.278.401-.584 0-.73-.182-1.168-.729l-3.579-5.618v5.436l1.133.255s0 .656-.914.656l-2.519.146c-.073-.146 0-.51.256-.583l.657-.182v-7.187l-.913-.073c-.073-.329.11-.803.621-.84l2.702-.182 3.724 5.692V9.886l-.95-.109c-.072-.402.22-.693.585-.73zM4.131 3.429l10.406-.766c1.277-.11 1.606-.036 2.41.547l3.321 2.335c.548.401.731.51.731.948v12.805c0 .803-.292 1.277-1.314 1.35l-12.085.73c-.767.036-1.132-.073-1.534-.584L3.62 17.62C3.182 17.036 3 16.599 3 16.087V4.705c0-.656.292-1.203 1.132-1.276"/></symbol>
<symbol id="f5a288" viewBox="0 0 24 24"><path d="M20.091 7.237a4.81 4.81 0 0 0-2.298 4.045 4.68 4.68 0 0 0 2.849 4.293 11.2 11.2 0 0 1-1.46 3.014c-.907 1.307-1.857 2.614-3.301 2.614s-1.817-.84-3.482-.84c-1.623 0-2.201.868-3.522.868s-2.243-1.211-3.303-2.697a13.04 13.04 0 0 1-2.215-7.032c0-4.128 2.683-6.315 5.325-6.315 1.404 0 2.573.921 3.454.921.84 0 2.146-.976 3.742-.976a5 5 0 0 1 4.211 2.105m-4.967-3.853A4.75 4.75 0 0 0 16.252.426 2 2 0 0 0 16.211 0a4.76 4.76 0 0 0-3.124 1.61 4.6 4.6 0 0 0-1.17 2.876q.002.195.042.385.143.027.289.028a4.12 4.12 0 0 0 2.876-1.515"/></symbol>
<symbol id="f6f554" viewBox="0 0 12 12"><path d="M11.1 0H.9a.9.9 0 0 0-.9.9v10.2a.9.9 0 0 0 .9.9h10.2a.9.9 0 0 0 .9-.9V.9a.9.9 0 0 0-.9-.9M3.6 10.2H1.8V4.8h1.8zm-.9-6.45A1.05 1.05 0 1 1 3.78 2.7 1.07 1.07 0 0 1 2.7 3.75m7.5 6.45H8.4V7.356c0-.852-.36-1.158-.828-1.158A1.044 1.044 0 0 0 6.6 7.314a.4.4 0 0 0 0 .084V10.2H4.8V4.8h1.74v.78a1.87 1.87 0 0 1 1.62-.84c.93 0 2.016.516 2.016 2.196z"/></symbol>
<symbol id="ff0d80" viewBox="0 0 24 24" fill="none"><g clip-path="url(#ff0d80__a)"><path fill="#036c70" d="M12.233 13.357c3.082 0 5.581-2.43 5.581-5.428 0-2.999-2.499-5.429-5.581-5.429S6.65 4.93 6.65 7.929s2.5 5.428 5.582 5.428"/><path fill="#1a9ba1" d="M16.883 17.882c2.826 0 5.117-2.228 5.117-4.977S19.709 7.93 16.883 7.93s-5.116 2.228-5.116 4.976c0 2.749 2.29 4.977 5.116 4.977"/><path fill="#37c6d0" d="M12.93 21.5c2.184 0 3.954-1.722 3.954-3.846s-1.77-3.845-3.954-3.845c-2.183 0-3.953 1.722-3.953 3.845s1.77 3.846 3.953 3.846"/><path fill="currentColor" d="M13.163 7.399v9.654a.83.83 0 0 1-.53.764.8.8 0 0 1-.321.063h-3.33q-.006-.112-.005-.226a2 2 0 0 1 .01-.226c.084-1.446 1-2.722 2.367-3.298v-.841c-3.041-.469-5.116-3.247-4.634-6.204l.01-.062q.035-.228.098-.452h5.484c.469.002.85.371.85.828" opacity=".1"/><path fill="currentColor" d="M11.847 7.024H6.73c-.516 2.952 1.525 5.753 4.56 6.256q.139.022.278.039c-1.442.664-2.493 2.553-2.582 4.11q-.012.112-.01.226-.001.112.005.226.013.228.06.452h2.805a.86.86 0 0 0 .786-.515.8.8 0 0 0 .065-.313V7.852a.843.843 0 0 0-.85-.828" opacity=".2"/><path fill="currentColor" d="M11.847 7.024H6.73c-.516 2.952 1.526 5.753 4.561 6.256q.094.015.187.028c-1.395.713-2.404 2.597-2.492 4.12h2.86a.846.846 0 0 0 .852-.827V7.85a.843.843 0 0 0-.851-.827" opacity=".2"/><path fill="currentColor" d="M11.381 7.024h-4.65c-.489 2.787 1.307 5.471 4.125 6.167a7.37 7.37 0 0 0-1.87 4.237h2.395a.843.843 0 0 0 .851-.827V7.85a.84.84 0 0 0-.85-.827" opacity=".2"/><path fill="url(#ff0d80__b)" d="M2.853 7.024h8.527c.47 0 .853.37.853.829v8.294c0 .458-.382.829-.853.829H2.853a.84.84 0 0 1-.853-.83V7.854c0-.458.382-.83.853-.83"/><path fill="#fff" d="M5.808 11.899a1.55 1.55 0 0 1-.488-.502 1.34 1.34 0 0 1-.17-.686c-.01-.324.102-.64.316-.89.225-.248.515-.433.84-.532a3.6 3.6 0 0 1 1.147-.173 4.5 4.5 0 0 1 1.512.206v1.04a2.4 2.4 0 0 0-.684-.271 3.4 3.4 0 0 0-.8-.093 1.8 1.8 0 0 0-.821.169.52.52 0 0 0-.326.48c0 .127.05.249.14.34.106.108.233.196.372.26a12 12 0 0 0 .797.338q.459.174.88.422c.212.127.39.302.52.509.133.235.197.501.186.77.015.332-.09.659-.296.925-.205.244-.48.424-.79.517a3.7 3.7 0 0 1-1.128.16 6 6 0 0 1-1.023-.082 3.6 3.6 0 0 1-.83-.237v-1.097c.254.176.538.308.838.389q.451.136.924.144c.29.018.58-.042.837-.173a.544.544 0 0 0 .127-.862 1.6 1.6 0 0 0-.436-.295q-.28-.136-.821-.358a4.7 4.7 0 0 1-.823-.418"/></g><defs><linearGradient id="ff0d80__b" x1="3.778" x2="10.181" y1="6.376" y2="17.778" gradientUnits="userSpaceOnUse"><stop stop-color="#058f92"/><stop offset=".5" stop-color="#038489"/><stop offset="1" stop-color="#026d71"/></linearGradient><clipPath id="ff0d80__a"><path fill="#fff" d="M2 2.5h20v19H2z"/></clipPath></defs></symbol>
</svg>