<svg xmlns="http://www.w3.org/2000/svg">
<symbol id="03f099" viewBox="0 0 18 18" fill="none"><rect width="18" height="18" fill="currentColor" rx="9"/><path fill="#fff" fill-rule="evenodd" d="m11.524 10.435 1.548-4.363a.895.895 0 0 0-1.143-1.144L7.565 6.477a1.79 1.79 0 0 0-1.088 1.088L4.928 11.93a.895.895 0 0 0 1.144 1.143l4.363-1.548a1.79 1.79 0 0 0 1.088-1.09M9 10.119a1.12 1.12 0 1 0 0-2.238 1.12 1.12 0 0 0 0 2.238" clip-rule="evenodd"/></symbol>
<symbol id="05b551" viewBox="0 0 24 24" fill="none"><path stroke="currentColor" stroke-linecap="round" stroke-width="2" d="M5 11V6a2 2 0 0 1 2-2h8.172a2 2 0 0 1 1.414.586l1.828 1.828A2 2 0 0 1 19 7.828V11"/><path fill="currentColor" d="M4.757 19.858V22H2.993v-6.462h2.826c1.593 0 2.574.774 2.574 2.16 0 .918-.468 1.602-1.287 1.935L8.59 22H6.575l-1.27-2.142zm0-1.395h.972c.62 0 .918-.288.918-.72 0-.459-.297-.729-.918-.729h-.972zm6.217-2.925h2.034L15.34 22h-1.79l-.415-1.17h-2.34L10.39 22H8.643zm.99 1.953-.675 1.926h1.35zm5.607 2.367V22h-1.764v-6.462h2.826c1.593 0 2.574.774 2.574 2.16 0 .918-.468 1.602-1.287 1.935L21.405 22H19.39l-1.269-2.142zm0-1.395h.972c.621 0 .918-.288.918-.72 0-.459-.297-.729-.918-.729h-.972zM12 5h-2v2h1.5a.5.5 0 0 0 .5-.5zM10 7H8.5a.5.5 0 0 0-.5.5v1a.5.5 0 0 0 .5.5H10zM12 9.5a.5.5 0 0 0-.5-.5H10v1.5a.5.5 0 0 0 .5.5h1a.5.5 0 0 0 .5-.5z"/></symbol>
<symbol id="117e74" viewBox="0 0 24 24" fill="none"><path stroke="currentColor" stroke-linecap="round" stroke-width="2" d="M19 11a7 7 0 1 0-14 0"/><path fill="currentColor" d="M5.915 15.538h1.45l.908 3.834.9-3.834h1.791L9.264 22H7.57l-.954-3.816L5.663 22H3.971l-1.7-6.462h1.835l.91 3.834zm6.807 0h2.034L17.087 22h-1.79l-.415-1.17h-2.34L12.137 22h-1.746zm.99 1.953-.675 1.926h1.35zM20.394 22h-1.81l-2.34-6.462h1.882l1.395 4.158 1.404-4.158h1.809z"/><path stroke="currentColor" stroke-linecap="round" stroke-width="2" d="M14.5 11a2.5 2.5 0 0 0-5 0"/></symbol>
<symbol id="18f616" viewBox="0 0 20 20" fill-rule="evenodd" clip-rule="evenodd"><path d="M13.3 2.67h.054c.385.004.719.01 1.008.034.458.038.865.117 1.242.309l.217.122c.496.304.9.74 1.165 1.261l.067.143c.144.336.21.697.242 1.098.037.45.036 1.007.036 1.696v5.333c0 .689 0 1.246-.036 1.696-.033.401-.098.762-.242 1.099l-.067.143a3.17 3.17 0 0 1-1.383 1.382c-.376.192-.783.271-1.24.309-.45.037-1.008.036-1.697.036H7.333c-.689 0-1.246 0-1.696-.036-.4-.033-.762-.098-1.098-.242l-.143-.067a3.17 3.17 0 0 1-1.261-1.165l-.122-.217c-.192-.377-.271-.784-.309-1.242-.037-.45-.036-1.007-.036-1.696V7.333c0-.689 0-1.246.036-1.696.038-.458.117-.864.309-1.24a3.17 3.17 0 0 1 1.383-1.384c.377-.192.783-.271 1.24-.309.45-.037 1.008-.036 1.697-.036h5.333q.337 0 .634.003M3.998 8.166v4.501c0 .71.001 1.204.032 1.588.03.375.088.587.168.745l.07.127c.177.287.43.522.732.676l.13.055c.144.052.333.09.615.113.384.031.877.031 1.588.031h5.333c.71 0 1.204 0 1.588-.031.375-.03.587-.088.745-.168a1.84 1.84 0 0 0 .803-.803l.055-.13c.052-.144.09-.333.113-.615.031-.383.031-.877.031-1.588V8.165zm8.65-1.33H16a15 15 0 0 0-.03-1.09 2.4 2.4 0 0 0-.112-.615L15.802 5a1.84 1.84 0 0 0-.676-.731l-.127-.07c-.158-.081-.37-.138-.745-.169a9 9 0 0 0-.476-.022zM7.333 3.998c-.71 0-1.204 0-1.588.032-.375.031-.587.088-.745.168A1.84 1.84 0 0 0 4.198 5c-.08.158-.137.37-.168.745-.023.287-.027.635-.029 1.09h2.215L7.35 3.998zm.315 2.837h3.568l1.135-2.837H8.783z"/></symbol>
<symbol id="19fddf" viewBox="0 0 20 20" fill-rule="evenodd" clip-rule="evenodd"><path d="M13.5 2.668c.69 0 1.246 0 1.696.036.458.038.864.117 1.24.309.596.303 1.08.788 1.384 1.383.192.377.271.783.309 1.24.037.45.036 1.008.036 1.697v5.333c0 .689 0 1.246-.036 1.696-.038.458-.117.865-.309 1.242a3.17 3.17 0 0 1-1.384 1.382c-.376.192-.782.271-1.24.309-.45.037-1.007.036-1.696.036h-7c-.69 0-1.246 0-1.696-.036-.458-.038-.864-.117-1.24-.309a3.17 3.17 0 0 1-1.384-1.383c-.192-.376-.271-.783-.309-1.24-.037-.45-.036-1.008-.036-1.697V7.333c0-.689 0-1.246.036-1.696.038-.458.117-.864.309-1.24a3.17 3.17 0 0 1 1.383-1.384c.377-.192.783-.271 1.24-.309.45-.037 1.008-.036 1.697-.036zm-7.669 10a.666.666 0 0 0 0 1.33h8.333a.665.665 0 0 0 0-1.33zm.002-6.666a.665.665 0 0 0-.665.665V10c0 .367.298.665.665.665H8.8A.665.665 0 0 0 9.465 10V6.667a.665.665 0 0 0-.665-.665zM11.8 9.335a.666.666 0 0 0 0 1.33h2.366a.665.665 0 0 0 0-1.33zm0-3.333a.665.665 0 0 0 0 1.33h2.366a.665.665 0 0 0 0-1.33z"/></symbol>
<symbol id="1f1450" viewBox="0 0 24 24" fill="none"><path stroke="currentColor" stroke-linecap="round" stroke-width="2" d="M5 11V6a2 2 0 0 1 2-2h10a2 2 0 0 1 2 2v5"/><path fill="currentColor" d="M5.344 18.769c0 1.107.549 1.809 1.332 1.809.594 0 1.017-.396 1.134-1.035l1.656.549c-.396 1.215-1.332 2.016-2.781 2.016-1.818 0-3.105-1.395-3.105-3.339s1.287-3.339 3.105-3.339c1.449 0 2.385.801 2.78 2.016l-1.655.549c-.117-.639-.54-1.035-1.134-1.035-.783 0-1.332.702-1.332 1.809m4.082 2.259.963-1.278c.549.621 1.278.909 1.935.909.54 0 .9-.198.9-.567 0-.414-.46-.468-1.45-.666-.944-.189-1.98-.54-1.98-1.854 0-1.323 1.144-2.142 2.575-2.142 1.134 0 2.025.441 2.538.999l-.954 1.188a2.17 2.17 0 0 0-1.63-.738c-.476 0-.8.18-.8.513 0 .369.396.432 1.179.594 1.008.207 2.268.486 2.268 1.926 0 1.395-1.224 2.196-2.718 2.196-1.053 0-2.286-.414-2.826-1.08m5.52 0 .962-1.278c.55.621 1.278.909 1.935.909.54 0 .9-.198.9-.567 0-.414-.459-.468-1.449-.666-.945-.189-1.98-.54-1.98-1.854 0-1.323 1.143-2.142 2.574-2.142 1.134 0 2.025.441 2.538.999l-.954 1.188a2.17 2.17 0 0 0-1.629-.738c-.477 0-.8.18-.8.513 0 .369.395.432 1.178.594 1.008.207 2.268.486 2.268 1.926 0 1.395-1.224 2.196-2.718 2.196-1.053 0-2.286-.414-2.826-1.08"/><path stroke="currentColor" stroke-linecap="round" stroke-width="2" d="M9 8v2"/></symbol>
<symbol id="2ed08e" viewBox="0 0 20 20"><path d="M16.001 7.333c0-.71 0-1.204-.03-1.588a2.4 2.4 0 0 0-.113-.615L15.802 5a1.84 1.84 0 0 0-.676-.731L15 4.199c-.158-.08-.37-.138-.745-.168-.383-.032-.877-.033-1.588-.033H7.333c-.71 0-1.204.001-1.588.033-.281.023-.471.06-.615.111L5 4.199a1.84 1.84 0 0 0-.731.675L4.199 5c-.08.158-.138.37-.168.745-.032.384-.033.877-.033 1.588v4.394l1.02-1.019.177-.16a2.333 2.333 0 0 1 3.12.16l5.289 5.288q.373-.004.65-.026c.376-.03.587-.088.745-.168l.127-.071c.288-.176.522-.43.676-.732l.056-.13a2.4 2.4 0 0 0 .112-.615c.031-.383.031-.877.031-1.588zM7.375 11.65a1 1 0 0 0-1.34-.069l-.077.069-1.956 1.956c.004.25.013.463.029.65.03.375.087.586.168.744l.07.127c.176.288.43.522.731.676l.13.056c.144.051.333.09.615.112.384.031.877.031 1.588.031h4.394zm5.71-3.733a1.002 1.002 0 1 0-2.003.002 1.002 1.002 0 0 0 2.003-.002m1.33 0a2.332 2.332 0 1 1-4.664 0 2.332 2.332 0 0 1 4.664 0m2.916 4.75c0 .69.001 1.246-.036 1.697-.033.4-.098.762-.242 1.098l-.066.143c-.266.52-.67.957-1.165 1.26l-.218.123c-.377.192-.783.27-1.241.308-.45.037-1.008.036-1.697.036H7.333c-.689 0-1.246.001-1.696-.036-.4-.033-.761-.098-1.098-.242l-.142-.066a3.17 3.17 0 0 1-1.262-1.165l-.122-.218c-.192-.377-.271-.783-.309-1.241-.036-.45-.036-1.008-.036-1.697V7.333c0-.689 0-1.246.036-1.696.038-.458.117-.864.309-1.24l.122-.219c.304-.496.74-.9 1.262-1.165l.142-.066c.337-.145.697-.21 1.098-.243.45-.036 1.007-.036 1.696-.036h5.333c.69 0 1.246 0 1.697.036.458.038.864.117 1.24.31l.219.121c.495.304.9.74 1.165 1.262l.066.142c.144.337.21.697.242 1.098.037.45.036 1.007.036 1.696z"/></symbol>
<symbol id="2f9eb9" viewBox="0 0 20 20"><path d="M12.614 10.665c-.061 2.02-.4 3.814-.9 5.122-.278.727-.593 1.273-.912 1.626s-.591.462-.802.462c-.21 0-.483-.11-.802-.462s-.634-.899-.912-1.626c-.5-1.308-.839-3.102-.9-5.122zM6.136 10.665c.061 2.143.418 4.094.982 5.568.185.484.397.927.635 1.314a7.88 7.88 0 0 1-5.598-6.882zM17.845 10.665a7.88 7.88 0 0 1-5.599 6.882c.238-.387.451-.83.636-1.314.564-1.474.92-3.425.982-5.568zM7.753 2.452c-.238.387-.45.831-.635 1.315-.564 1.474-.92 3.425-.982 5.568h-3.98a7.88 7.88 0 0 1 5.597-6.883M10 2.125c.21 0 .483.11.802.462s.634.899.912 1.626c.5 1.308.839 3.101.9 5.122H7.386c.061-2.02.4-3.814.9-5.122.278-.727.593-1.273.912-1.626s.591-.462.802-.462M12.246 2.452a7.88 7.88 0 0 1 5.599 6.883h-3.98c-.062-2.143-.42-4.094-.983-5.568a8 8 0 0 0-.636-1.315"/></symbol>
<symbol id="3be169" viewBox="0 0 20 20" fill-rule="evenodd" clip-rule="evenodd"><path d="M13.3 2.67h.054c.385.004.719.01 1.008.034.458.038.865.117 1.242.309l.217.122c.496.304.9.74 1.165 1.261l.067.143c.144.336.21.697.242 1.098.037.45.036 1.007.036 1.696v5.333c0 .689 0 1.246-.036 1.696-.033.401-.098.762-.242 1.099l-.067.143a3.17 3.17 0 0 1-1.383 1.382c-.376.192-.783.271-1.24.309-.45.037-1.008.036-1.697.036H7.333c-.689 0-1.246 0-1.696-.036-.4-.033-.762-.098-1.098-.242l-.143-.067a3.17 3.17 0 0 1-1.261-1.165l-.122-.217c-.192-.377-.271-.784-.309-1.242-.037-.45-.036-1.007-.036-1.696V7.333c0-.689 0-1.246.036-1.696.038-.458.117-.864.309-1.24a3.17 3.17 0 0 1 1.383-1.384c.377-.192.783-.271 1.24-.309.45-.037 1.008-.036 1.697-.036h5.333q.337 0 .634.003M3.998 8.166v4.501c0 .71.001 1.204.032 1.588.03.375.088.587.168.745l.07.127c.177.287.43.522.732.676l.13.055c.144.052.333.09.615.113.384.031.877.031 1.588.031h5.333c.71 0 1.204 0 1.588-.031.375-.03.587-.088.745-.168a1.84 1.84 0 0 0 .803-.803l.055-.13c.052-.144.09-.333.113-.615.031-.383.031-.877.031-1.588V8.165zm8.65-1.33H16a15 15 0 0 0-.03-1.09 2.4 2.4 0 0 0-.112-.615L15.802 5a1.84 1.84 0 0 0-.676-.731l-.127-.07c-.158-.081-.37-.138-.745-.169a9 9 0 0 0-.476-.022zM7.333 3.998c-.71 0-1.204 0-1.588.032-.375.031-.587.088-.745.168A1.84 1.84 0 0 0 4.198 5c-.08.158-.137.37-.168.745-.023.287-.027.635-.029 1.09h2.215L7.35 3.998zm.315 2.837h3.568l1.135-2.837H8.783z"/></symbol>
<symbol id="51e280" viewBox="0 0 20 20"><path d="M16.535 9.6c0-.806-.006-1.073-.076-1.307a1.8 1.8 0 0 0-.326-.624c-.153-.19-.368-.349-1.03-.808l-3.2-2.222c-.867-.602-1.162-.794-1.462-.868a1.84 1.84 0 0 0-.882 0c-.3.074-.594.266-1.461.868l-3.2 2.222c-.662.46-.878.618-1.03.808a1.8 1.8 0 0 0-.327.624c-.07.234-.076.501-.076 1.307V14c0 .477 0 .796.02 1.04.02.237.054.346.09.415.095.188.248.341.437.437.069.035.177.07.414.089.244.02.563.02 1.04.02h1.786v-2.877a2.748 2.748 0 0 1 5.496 0v2.877h1.785c.478 0 .797 0 1.041-.02.237-.02.345-.054.414-.089.189-.096.342-.249.438-.437.035-.07.07-.178.089-.415.02-.244.02-.563.02-1.04zm1.33 4.4c0 .455 0 .838-.025 1.149-.026.319-.082.622-.229.91-.223.438-.58.795-1.02 1.019-.287.146-.59.203-.908.23-.312.025-.694.024-1.15.024h-2.45a.665.665 0 0 1-.665-.666v-3.542a1.418 1.418 0 0 0-2.837 0v3.542a.665.665 0 0 1-.665.666h-2.45c-.455 0-.837 0-1.149-.025-.318-.026-.621-.083-.909-.23a2.33 2.33 0 0 1-1.02-1.019c-.146-.287-.202-.59-.228-.91-.025-.31-.025-.693-.025-1.149V9.6c0-.725-.006-1.223.132-1.686.116-.391.307-.756.561-1.075.302-.377.715-.656 1.31-1.07L7.34 3.546c.778-.54 1.306-.919 1.9-1.066a3.17 3.17 0 0 1 1.522 0c.594.147 1.123.526 1.9 1.066l3.2 2.223c.596.414 1.009.693 1.311 1.07.255.319.445.684.561 1.075.138.463.132.961.132 1.686z"/></symbol>
<symbol id="538bdf" viewBox="0 0 24 24"><path d="M3.472 15.538h1.142l.932 4.221.931-4.221h1.369L6.299 22H4.995l-.972-4.131L3.067 22H1.763L.208 15.538h1.401l.94 4.221zm4.885 0h4.107v1.287H9.685v1.242h2.317v1.269H9.685v1.377h2.779V22H8.357zM13.206 22v-6.462h2.503c1.271 0 1.952.612 1.952 1.737 0 .747-.405 1.188-.786 1.368.551.225.956.765.956 1.539 0 1.143-.729 1.818-1.976 1.818zm1.296-3.87h1.07c.526 0 .817-.234.817-.684s-.291-.675-.818-.675h-1.07zm0 1.17v1.458h1.231c.518 0 .802-.297.802-.729s-.284-.729-.802-.729zm5.317.45V22h-1.353v-6.462h2.454c1.37 0 2.22.72 2.22 2.106 0 1.377-.85 2.106-2.22 2.106zm0-1.26h1.029c.64 0 .963-.315.963-.846s-.324-.837-.963-.837h-1.03zM4 11a1 1 0 1 0 2 0zm11.586-6.414.707-.707zm2.828 2.828.707-.707zM18 11a1 1 0 1 0 2 0zm-2-6a1 1 0 1 0-2 0zm2 4a1 1 0 1 0 0-2zm-2.707-2.707a1 1 0 0 0 1.414 1.414zm1.914.914a1 1 0 0 0-1.414-1.414zM6 11V6H4v5zm1-6h7.172V3H7zm7.879.293 2.828 2.828 1.414-1.414-2.828-2.828zM18 8.828V11h2V8.828zm-.293-.707a1 1 0 0 1 .293.707h2a3 3 0 0 0-.879-2.12zM14.172 5a1 1 0 0 1 .707.293l1.414-1.414A3 3 0 0 0 14.172 3zM6 6a1 1 0 0 1 1-1V3a3 3 0 0 0-3 3zm8-1v2.5h2V5zm1.5 4H18V7h-2.5zm1.207-1.293.5-.5-1.414-1.414-.5.5zM14 7.5A1.5 1.5 0 0 0 15.5 9V7a.5.5 0 0 1 .5.5z"/></symbol>
<symbol id="69efb8" viewBox="0 0 24 24" fill="none"><path fill="currentColor" d="M4.493 19.75V22H2.99v-6.462h2.727c1.521 0 2.466.72 2.466 2.106 0 1.377-.945 2.106-2.466 2.106zm0-1.26h1.143c.711 0 1.071-.315 1.071-.846s-.36-.837-1.07-.837H4.492zm9.904-2.952V22h-1.305l-2.844-4.167V22h-1.44v-6.462h1.503l2.646 3.951v-3.951zM19.711 22v-.576c-.252.387-.846.675-1.63.675-1.7 0-2.951-1.35-2.951-3.294 0-1.953 1.278-3.366 3.078-3.366 1.413 0 2.34.747 2.736 1.935l-1.431.459c-.144-.693-.612-1.089-1.296-1.089-.936 0-1.584.81-1.584 2.043s.648 2.043 1.61 2.043c.739 0 1.234-.495 1.315-1.161h-1.431v-1.233h2.916V22z"/><path stroke="currentColor" stroke-linecap="round" stroke-linejoin="round" stroke-width="2" d="M5 11V6a2 2 0 0 1 2-2h7.172a2 2 0 0 1 1.414.586l2.828 2.828A2 2 0 0 1 19 8.828V11m-4-6v2.5a.5.5 0 0 0 .5.5H18m-2-1 .5-.5"/></symbol>
<symbol id="6b0d8c" viewBox="0 0 20 20"><path d="M10 2.125a7.875 7.875 0 1 1 0 15.75 7.875 7.875 0 0 1 0-15.75m-2.113 8.5c.056 1.691.338 3.188.753 4.28.233.614.495 1.068.755 1.358s.465.362.605.362.346-.073.605-.362c.26-.29.522-.744.755-1.358.415-1.092.697-2.589.753-4.28zm-4.482 0a6.63 6.63 0 0 0 4.493 5.657 7 7 0 0 1-.427-.933c-.477-1.257-.777-2.91-.834-4.724zm9.958 0c-.057 1.814-.357 3.467-.834 4.724a7 7 0 0 1-.428.933 6.63 6.63 0 0 0 4.494-5.657zm-1.262-6.908c.157.285.301.6.428.934.477 1.257.777 2.91.834 4.724h3.232A6.63 6.63 0 0 0 12.1 3.717M10 3.375c-.14 0-.346.073-.605.362-.26.29-.522.744-.755 1.358-.415 1.092-.697 2.589-.753 4.28h4.226c-.056-1.691-.338-3.188-.753-4.28-.233-.614-.495-1.068-.755-1.358s-.465-.362-.605-.362m-2.102.342a6.63 6.63 0 0 0-4.493 5.658h3.232c.057-1.814.357-3.467.834-4.724q.191-.504.427-.934"/></symbol>
<symbol id="7544e6" viewBox="0 0 20 20"><path d="M10 2.125a7.875 7.875 0 1 1 0 15.75 7.875 7.875 0 0 1 0-15.75m-2.113 8.5c.056 1.691.338 3.188.753 4.28.233.614.495 1.068.755 1.358s.465.362.605.362.346-.073.605-.362c.26-.29.522-.744.755-1.358.415-1.092.697-2.589.753-4.28zm-4.482 0a6.63 6.63 0 0 0 4.493 5.657 7 7 0 0 1-.427-.933c-.477-1.257-.777-2.91-.834-4.724zm9.958 0c-.057 1.814-.357 3.467-.834 4.724a7 7 0 0 1-.428.933 6.63 6.63 0 0 0 4.494-5.657zm-1.262-6.908c.157.285.301.6.428.934.477 1.257.777 2.91.834 4.724h3.232A6.63 6.63 0 0 0 12.1 3.717M10 3.375c-.14 0-.346.073-.605.362-.26.29-.522.744-.755 1.358-.415 1.092-.697 2.589-.753 4.28h4.226c-.056-1.691-.338-3.188-.753-4.28-.233-.614-.495-1.068-.755-1.358s-.465-.362-.605-.362m-2.102.342a6.63 6.63 0 0 0-4.493 5.658h3.232c.057-1.814.357-3.467.834-4.724q.191-.504.427-.934"/></symbol>
<symbol id="78f6aa" viewBox="0 0 24 24" fill="none"><path stroke="currentColor" stroke-linecap="round" stroke-width="2" d="M19 11a7 7 0 1 0-14 0"/><path fill="currentColor" d="M6.889 22H5.71l-1.224-4.086V22H2.794v-6.462h2.475l1.053 3.708 1.053-3.708h2.448V22h-1.71v-4.086zm8.027 0H13.26v-1.467h-2.907v-1.296l2.358-3.699h2.205v3.6h.891v1.395h-.89zm-2.997-2.862h1.296V17.05zm6.336-3.6h2.034L22.62 22h-1.791l-.414-1.17h-2.34L17.67 22h-1.746zm.99 1.953-.675 1.926h1.35z"/><path stroke="currentColor" stroke-linecap="round" stroke-width="2" d="M14.5 11a2.5 2.5 0 0 0-5 0"/></symbol>
<symbol id="82a99d" viewBox="0 0 20 20"><path d="M17.331 12.666c0 .689 0 1.246-.036 1.696-.033.401-.098.762-.242 1.099l-.067.143a3.17 3.17 0 0 1-1.383 1.382c-.376.192-.783.271-1.24.309-.45.037-1.008.036-1.697.036H7.333c-.689 0-1.246 0-1.696-.036-.4-.033-.762-.098-1.098-.242l-.143-.067a3.17 3.17 0 0 1-1.261-1.165l-.122-.217c-.192-.377-.271-.784-.309-1.242-.037-.45-.036-1.007-.036-1.696V8.165h14.663zM5.88 6.835H2.67c.002-.466.007-.862.034-1.198.038-.458.117-.864.309-1.24a3.17 3.17 0 0 1 1.383-1.384c.377-.192.783-.271 1.24-.309.45-.037 1.008-.036 1.697-.036h.214zM10.883 6.753l.205.082H7.313l1.634-4.088-.197-.079h3.767zM14.362 2.704c.458.038.865.117 1.242.309l.217.122c.496.304.9.74 1.165 1.261l.067.143c.144.336.21.697.242 1.098.027.336.032.732.034 1.198h-5.047l1.66-4.153q.225.006.42.022"/></symbol>
<symbol id="9ad1fa" viewBox="0 0 20 20"><path d="M9.24 2.48a3.17 3.17 0 0 1 1.52 0c.595.147 1.124.526 1.901 1.066l3.2 2.223c.596.414 1.009.693 1.311 1.07.255.319.445.684.561 1.075.138.463.132.961.132 1.686V14c0 .455 0 .838-.025 1.149-.026.319-.082.622-.229.91-.223.438-.58.795-1.02 1.019-.287.146-.59.203-.908.23-.312.025-.694.024-1.15.024H12.5a.665.665 0 0 1-.665-.666V13.17a1.836 1.836 0 0 0-3.67 0v3.496a.665.665 0 0 1-.665.666H5.467c-.456 0-.838 0-1.15-.025-.318-.026-.621-.083-.909-.23a2.34 2.34 0 0 1-1.02-1.019c-.146-.287-.202-.59-.228-.91-.025-.31-.025-.693-.025-1.149V9.6c0-.725-.006-1.223.132-1.686.116-.391.307-.756.561-1.075.302-.377.715-.656 1.31-1.07L7.34 3.546c.778-.54 1.306-.919 1.9-1.066"/></symbol>
<symbol id="9e4e62" viewBox="0 0 24 24" fill="none"><path stroke="currentColor" stroke-linecap="round" stroke-width="2" d="M19 11a7 7 0 1 0-14 0"/><path fill="currentColor" d="M2.647 18.769c0-1.944 1.296-3.339 3.16-3.339 1.871 0 3.167 1.395 3.167 3.339s-1.296 3.339-3.168 3.339c-1.863 0-3.159-1.395-3.159-3.339m4.554 0c0-1.125-.567-1.809-1.395-1.809-.819 0-1.386.684-1.386 1.809s.567 1.809 1.386 1.809c.828 0 1.395-.684 1.395-1.809M13.924 22v-.513c-.26.351-.828.621-1.557.621-1.728 0-2.979-1.35-2.979-3.294s1.287-3.384 3.141-3.384c1.485 0 2.44.774 2.835 1.998l-1.683.54c-.117-.648-.522-1.008-1.143-1.008-.819 0-1.386.72-1.386 1.827 0 1.116.567 1.836 1.413 1.836.594 0 1.008-.369 1.125-.855h-1.242v-1.395h3.006V22zm6.654 0v-.513c-.261.351-.828.621-1.557.621-1.728 0-2.98-1.35-2.98-3.294s1.288-3.384 3.142-3.384c1.485 0 2.439.774 2.835 1.998l-1.683.54c-.117-.648-.522-1.008-1.143-1.008-.82 0-1.386.72-1.386 1.827 0 1.116.567 1.836 1.413 1.836.594 0 1.008-.369 1.125-.855h-1.242v-1.395h3.006V22z"/><path stroke="currentColor" stroke-linecap="round" stroke-width="2" d="M14.5 11a2.5 2.5 0 0 0-5 0"/></symbol>
<symbol id="ab8f91" viewBox="0 0 24 24"><path d="M14 14.202c.343 0 .648.22.757.546l1.123 3.367a2.798 2.798 0 0 1-2.655 3.683h-2.45a2.798 2.798 0 0 1-2.654-3.683l1.122-3.367.05-.117A.8.8 0 0 1 10 14.2zM9.635 18.62c-.26.778.32 1.582 1.14 1.582h2.45c.82 0 1.4-.804 1.14-1.582l-.94-2.822h-2.85zM14 10.202a.798.798 0 0 1 0 1.596h-4a.798.798 0 0 1 0-1.596zm0-4a.798.798 0 0 1 0 1.596h-4a.798.798 0 0 1 0-1.596zm0-4a.798.798 0 0 1 0 1.596h-4a.798.798 0 0 1 0-1.596z"/></symbol>
<symbol id="b0fc5a" viewBox="0 0 20 20"><path d="M16.001 7.333c0-.71 0-1.204-.03-1.588a2.4 2.4 0 0 0-.113-.615L15.802 5a1.84 1.84 0 0 0-.676-.731L15 4.199c-.158-.08-.37-.138-.745-.168-.383-.032-.877-.033-1.588-.033H7.333c-.71 0-1.204.001-1.588.033-.281.023-.471.06-.615.11L5 4.2a1.84 1.84 0 0 0-.731.675L4.199 5c-.08.158-.138.37-.168.745-.032.384-.033.877-.033 1.588v4.394l1.02-1.019.177-.16a2.333 2.333 0 0 1 3.12.16l5.289 5.288c.25-.004.464-.01.65-.026.376-.03.587-.088.745-.168l.127-.071c.288-.176.522-.43.676-.732l.056-.13c.051-.143.089-.333.112-.615.031-.383.031-.877.031-1.588zM7.375 11.65a1 1 0 0 0-1.34-.069l-.077.069-1.956 1.956c.004.25.013.463.029.65.03.375.087.586.168.744l.07.127c.176.288.43.522.731.676l.13.056c.144.051.333.089.615.112.384.031.877.031 1.588.031h4.394zm5.71-3.733a1.002 1.002 0 1 0-2.003.002 1.002 1.002 0 0 0 2.003-.002m1.33 0a2.332 2.332 0 1 1-4.664 0 2.332 2.332 0 0 1 4.664 0m2.916 4.75c0 .69.001 1.246-.036 1.697-.033.4-.098.762-.242 1.098l-.066.143c-.266.52-.67.957-1.165 1.26l-.218.123c-.377.192-.783.27-1.241.308-.45.037-1.008.036-1.697.036H7.333c-.689 0-1.246.001-1.696-.036-.4-.033-.761-.098-1.098-.242l-.142-.066a3.17 3.17 0 0 1-1.262-1.165l-.122-.218c-.192-.377-.271-.783-.309-1.241-.036-.45-.036-1.008-.036-1.697V7.333c0-.689 0-1.246.036-1.696.038-.458.117-.864.309-1.24l.122-.219c.304-.496.74-.9 1.262-1.165l.142-.066c.337-.145.697-.21 1.098-.243.45-.036 1.007-.036 1.696-.036h5.333c.69 0 1.246 0 1.697.036.458.038.864.117 1.24.309l.219.122c.495.304.9.74 1.165 1.262l.066.142c.144.337.21.697.242 1.098.037.45.036 1.007.036 1.696z"/></symbol>
<symbol id="b15d71" viewBox="0 0 20 20"><path d="M14.165 12.668a.666.666 0 0 1 0 1.33H5.832a.665.665 0 1 1 0-1.33z"/><path fill-rule="evenodd" d="M8.8 6.002c.367 0 .665.298.665.665V10a.665.665 0 0 1-.665.665H5.833A.666.666 0 0 1 5.168 10V6.667c0-.367.298-.665.665-.665zM6.498 9.335h1.637V7.332H6.498z" clip-rule="evenodd"/><path d="M14.166 9.335a.665.665 0 0 1 0 1.33H11.8a.665.665 0 0 1 0-1.33zM14.166 6.002a.665.665 0 1 1 0 1.33H11.8a.666.666 0 0 1 0-1.33z"/><path fill-rule="evenodd" d="M13.5 2.668c.69 0 1.246 0 1.696.036.458.038.864.117 1.24.309.596.303 1.08.788 1.384 1.383.192.377.271.783.309 1.24.037.45.036 1.008.036 1.697v5.333c0 .689 0 1.246-.036 1.696-.038.458-.117.865-.309 1.242a3.17 3.17 0 0 1-1.384 1.382c-.376.192-.782.271-1.24.309-.45.037-1.007.036-1.696.036h-7c-.69 0-1.246 0-1.696-.036-.458-.038-.864-.117-1.24-.309a3.17 3.17 0 0 1-1.384-1.383c-.192-.376-.271-.783-.309-1.24-.037-.45-.036-1.008-.036-1.697V7.333c0-.689 0-1.246.036-1.696.038-.458.117-.864.309-1.24a3.17 3.17 0 0 1 1.383-1.384c.377-.192.783-.271 1.24-.309.45-.037 1.008-.036 1.697-.036zm-7 1.33c-.711 0-1.204 0-1.588.032-.375.031-.587.088-.745.168A1.84 1.84 0 0 0 3.365 5c-.08.158-.137.37-.168.745-.031.384-.032.877-.032 1.588v5.333c0 .71.001 1.204.032 1.588.03.375.088.587.168.745.176.345.457.627.802.803.158.08.37.137.745.168C5.296 16 5.79 16 6.5 16h7c.711 0 1.204 0 1.588-.031.375-.031.587-.088.745-.168.345-.176.626-.458.802-.803.08-.158.137-.37.168-.745.031-.383.032-.877.032-1.588V7.333c0-.71 0-1.204-.032-1.588-.031-.375-.088-.587-.168-.745a1.84 1.84 0 0 0-.802-.802c-.158-.08-.37-.137-.745-.168-.384-.031-.877-.032-1.588-.032z" clip-rule="evenodd"/></symbol>
<symbol id="becb12" viewBox="0 0 24 24" fill="none"><path fill="currentColor" d="M6.844 22h-1.08l-1.422-4.473V22H2.91v-6.462h2.097l1.314 4.239 1.314-4.239h2.06V22h-1.43v-4.473zm5.383-2.25V22h-1.503v-6.462h2.727c1.521 0 2.466.72 2.466 2.106 0 1.377-.945 2.106-2.466 2.106zm0-1.26h1.143c.711 0 1.071-.315 1.071-.846s-.36-.837-1.07-.837h-1.144zM20.485 22H19.09v-1.512h-2.97v-1.125l2.493-3.825h1.88v3.744h1.018v1.206h-1.026zm-2.98-2.718h1.549v-2.403z"/><path stroke="currentColor" stroke-linecap="round" stroke-linejoin="round" stroke-width="2" d="M5 11V6a2 2 0 0 1 2-2h10a2 2 0 0 1 2 2v5"/><path fill="currentColor" d="M6 5h2l-.862 1.724A.5.5 0 0 1 6.691 7H6zM9 5h3l-.862 1.724a.5.5 0 0 1-.447.276H8.566a.35.35 0 0 1-.313-.507zM13 5h3l-.862 1.724a.5.5 0 0 1-.447.276h-2.125a.35.35 0 0 1-.313-.507zM17 5h1v2h-1.434a.35.35 0 0 1-.313-.507z"/></symbol>
<symbol id="de4618" viewBox="0 0 24 24" fill="none"><path stroke="currentColor" stroke-linecap="round" stroke-width="2" d="M19 11a7 7 0 1 0-14 0"/><path fill="currentColor" d="M6.952 22h-1.18L4.55 17.914V22H2.857v-6.462h2.475l1.053 3.708 1.053-3.708h2.448V22h-1.71v-4.086zm5.579-2.061V22h-1.764v-6.462h2.826c1.593 0 2.574.756 2.574 2.205 0 1.44-.981 2.196-2.574 2.196zm0-1.467h.972c.62 0 .918-.279.918-.729 0-.459-.297-.729-.918-.729h-.972zm6.437 3.636c-1.413 0-2.475-.711-2.646-2.034l1.737-.252c.054.522.414.819.882.819.414 0 .765-.198.765-.648 0-.441-.37-.594-.882-.594h-.567V18.04h.549c.477 0 .8-.162.8-.567 0-.36-.242-.576-.665-.576-.477 0-.765.342-.828.783l-1.638-.153c.144-1.143 1.044-2.097 2.547-2.097 1.43 0 2.322.819 2.322 1.917 0 .648-.396 1.152-.846 1.341.549.252.936.702.936 1.467 0 1.08-.963 1.953-2.466 1.953"/><path stroke="currentColor" stroke-linecap="round" stroke-width="2" d="M14.5 11a2.5 2.5 0 0 0-5 0"/></symbol>
<symbol id="dfff97" viewBox="0 0 24 24" fill="none"><path fill="currentColor" d="M9.199 22v-.576c-.252.387-.846.675-1.63.675-1.7 0-2.951-1.35-2.951-3.294 0-1.953 1.278-3.366 3.078-3.366 1.413 0 2.34.747 2.736 1.935L9 17.833c-.144-.693-.612-1.089-1.296-1.089-.936 0-1.584.81-1.584 2.043s.648 2.043 1.61 2.043c.739 0 1.234-.495 1.315-1.161H7.615v-1.233h2.916V22zm4.228-6.462V22h-1.503v-6.462zM16.331 22h-1.476v-6.462h4.527v1.287h-3.05v1.467h2.537v1.26h-2.538z"/><path stroke="currentColor" stroke-linecap="round" stroke-linejoin="round" stroke-width="2" d="M5 11V6a2 2 0 0 1 2-2h10a2 2 0 0 1 2 2v5"/><path fill="currentColor" d="M6 5h2l-.862 1.724A.5.5 0 0 1 6.691 7H6zM9 5h3l-.862 1.724a.5.5 0 0 1-.447.276H8.566a.35.35 0 0 1-.313-.507zM13 5h3l-.862 1.724a.5.5 0 0 1-.447.276h-2.125a.35.35 0 0 1-.313-.507zM17 5h1v2h-1.434a.35.35 0 0 1-.313-.507z"/></symbol>
<symbol id="e05e3f" viewBox="0 0 24 24" fill="none"><path fill="currentColor" d="M5.315 19.75V22H3.812v-6.462h2.727c1.52 0 2.466.72 2.466 2.106 0 1.377-.945 2.106-2.466 2.106zm0-1.26h1.143c.71 0 1.07-.315 1.07-.846s-.36-.837-1.07-.837H5.315zM9.63 22v-6.462h2.295c2.052 0 3.303 1.26 3.303 3.231S13.978 22 11.925 22zm1.467-1.269h.828c1.161 0 1.818-.774 1.818-1.962s-.657-1.962-1.827-1.962h-.819zM17.434 22h-1.476v-6.462h4.527v1.287h-3.05v1.467h2.537v1.26h-2.538z"/><path stroke="currentColor" stroke-linecap="round" stroke-linejoin="round" stroke-width="2" d="M5 11V6a2 2 0 0 1 2-2h7.172a2 2 0 0 1 1.414.586l2.828 2.828A2 2 0 0 1 19 8.828V11m-4-6v2.5a.5.5 0 0 0 .5.5H18m-2-1 .5-.5"/></symbol>
<symbol id="e12d54" viewBox="0 0 20 20" fill-rule="evenodd" clip-rule="evenodd"><path d="M12.701 2.668c.673 0 1.219 0 1.661.036.458.038.865.117 1.242.309l.217.122c.496.304.9.74 1.165 1.261l.067.143c.144.336.21.697.242 1.098.036.442.036.988.036 1.66v5.404c0 .673 0 1.219-.036 1.661-.033.401-.098.762-.242 1.099l-.067.143c-.265.52-.669.956-1.165 1.26l-.217.122c-.377.192-.784.271-1.242.309-.442.036-.988.036-1.66.036H7.297c-.673 0-1.219 0-1.661-.036-.4-.033-.762-.098-1.098-.242l-.143-.067a3.17 3.17 0 0 1-1.261-1.165l-.122-.217c-.192-.377-.271-.784-.309-1.242-.036-.442-.036-.988-.036-1.66V7.297c0-.673 0-1.219.036-1.661.038-.458.117-.864.309-1.24l.122-.22c.304-.495.74-.899 1.261-1.164l.143-.067c.336-.144.697-.21 1.098-.242.442-.036.988-.036 1.66-.036zm-4.748 8.235a1.173 1.173 0 0 0-1.57-.08l-.09.08-2.291 2.291c.005.294.015.543.033.761.036.44.103.688.197.873l.082.149c.207.336.503.61.857.79l.152.066c.169.06.39.105.72.132C6.493 16 7.069 16 7.898 16h5.153zm4.133-4.83a1.825 1.825 0 1 0 0 3.65 1.825 1.825 0 0 0 0-3.65"/></symbol>
<symbol id="e5928d" viewBox="0 0 20 20"><path d="M14.165 12.668a.666.666 0 0 1 0 1.33H5.832a.665.665 0 1 1 0-1.33z"/><path fill-rule="evenodd" d="M8.8 6.002c.367 0 .665.298.665.665V10a.665.665 0 0 1-.665.665H5.833A.666.666 0 0 1 5.168 10V6.667c0-.367.298-.665.665-.665zM6.498 9.335h1.637V7.332H6.498z" clip-rule="evenodd"/><path d="M14.166 9.335a.665.665 0 0 1 0 1.33H11.8a.665.665 0 0 1 0-1.33zM14.166 6.002a.665.665 0 1 1 0 1.33H11.8a.666.666 0 0 1 0-1.33z"/><path fill-rule="evenodd" d="M13.5 2.668c.69 0 1.246 0 1.696.036.458.038.864.117 1.24.309.596.303 1.08.788 1.384 1.383.192.377.271.783.309 1.24.037.45.036 1.008.036 1.697v5.333c0 .689 0 1.246-.036 1.696-.038.458-.117.865-.309 1.242a3.17 3.17 0 0 1-1.384 1.382c-.376.192-.782.271-1.24.309-.45.037-1.007.036-1.696.036h-7c-.69 0-1.246 0-1.696-.036-.458-.038-.864-.117-1.24-.309a3.17 3.17 0 0 1-1.384-1.383c-.192-.376-.271-.783-.309-1.24-.037-.45-.036-1.008-.036-1.697V7.333c0-.689 0-1.246.036-1.696.038-.458.117-.864.309-1.24a3.17 3.17 0 0 1 1.383-1.384c.377-.192.783-.271 1.24-.309.45-.037 1.008-.036 1.697-.036zm-7 1.33c-.711 0-1.204 0-1.588.032-.375.031-.587.088-.745.168A1.84 1.84 0 0 0 3.365 5c-.08.158-.137.37-.168.745-.031.384-.032.877-.032 1.588v5.333c0 .71.001 1.204.032 1.588.03.375.088.587.168.745.176.345.457.627.802.803.158.08.37.137.745.168C5.296 16 5.79 16 6.5 16h7c.711 0 1.204 0 1.588-.031.375-.031.587-.088.745-.168.345-.176.626-.458.802-.803.08-.158.137-.37.168-.745.031-.383.032-.877.032-1.588V7.333c0-.71 0-1.204-.032-1.588-.031-.375-.088-.587-.168-.745a1.84 1.84 0 0 0-.802-.802c-.158-.08-.37-.137-.745-.168-.384-.031-.877-.032-1.588-.032z" clip-rule="evenodd"/></symbol>
<symbol id="ea4e71" viewBox="0 0 24 24" fill="none"><path fill="currentColor" d="M4.108 21.991v-1.296c.252.036.414.054.648.054.63 0 .918-.225.918-.873v-4.338h1.503v4.563c0 1.359-.864 1.953-2.232 1.953a5 5 0 0 1-.837-.063m5.51-2.241V22H8.113v-6.462h2.727c1.521 0 2.466.72 2.466 2.106 0 1.377-.945 2.106-2.466 2.106zm0-1.26h1.142c.711 0 1.071-.315 1.071-.846s-.36-.837-1.07-.837H9.616zm8.66 3.51v-.576c-.252.387-.846.675-1.629.675-1.701 0-2.952-1.35-2.952-3.294 0-1.953 1.278-3.366 3.078-3.366 1.413 0 2.34.747 2.736 1.935l-1.431.459c-.144-.693-.612-1.089-1.296-1.089-.936 0-1.584.81-1.584 2.043s.648 2.043 1.611 2.043c.738 0 1.233-.495 1.314-1.161h-1.431v-1.233h2.916V22z"/><path stroke="currentColor" stroke-linecap="round" stroke-linejoin="round" stroke-width="2" d="M5 11V6a2 2 0 0 1 2-2h7.172a2 2 0 0 1 1.414.586l2.828 2.828A2 2 0 0 1 19 8.828V11m-4-6v2.5a.5.5 0 0 0 .5.5H18m-2-1 .5-.5"/></symbol>
<symbol id="f616fd" viewBox="0 0 24 24" fill="none"><path fill="currentColor" d="M6.246 22h-1.08l-1.422-4.473V22h-1.43v-6.462H4.41l1.314 4.239 1.314-4.239H9.1V22H7.67v-4.473zm3.584-3.231c0-1.953 1.287-3.33 3.096-3.33 1.818 0 3.096 1.377 3.096 3.33s-1.278 3.33-3.096 3.33c-1.81 0-3.096-1.377-3.096-3.33m4.689 0c0-1.242-.657-2.025-1.593-2.025s-1.584.783-1.584 2.025.648 2.025 1.584 2.025 1.593-.783 1.593-2.025M19.789 22H18.23l-2.367-6.462h1.602l1.566 4.527 1.566-4.527h1.548z"/><path stroke="currentColor" stroke-linecap="round" stroke-linejoin="round" stroke-width="2" d="M5 11V6a2 2 0 0 1 2-2h10a2 2 0 0 1 2 2v5"/><path fill="currentColor" d="M6 5h2l-.862 1.724A.5.5 0 0 1 6.691 7H6zM9 5h3l-.862 1.724a.5.5 0 0 1-.447.276H8.566a.35.35 0 0 1-.313-.507zM13 5h3l-.862 1.724a.5.5 0 0 1-.447.276h-2.125a.35.35 0 0 1-.313-.507zM17 5h1v2h-1.434a.35.35 0 0 1-.313-.507z"/></symbol>
</svg>