<?xml version="1.0" encoding="UTF-8"?>
<svg id="LOGO_RGB_WHITE" xmlns="http://www.w3.org/2000/svg" viewBox="0 0 7760.73 1275.67">
  <defs>
    <style>
      .cls-1 {
        fill: #fff;
        stroke-width: 0px;
      }
    </style>
  </defs>
  <path class="cls-1" d="M1342.17,257.06c-194.74,74.54-342.41,248.72-342.41,451.75,0-203.06-147.68-377.21-342.49-451.77,219.17-91.3,465.7-91.3,684.87,0l.02.02ZM1906.94,519.63c29.05,64.46,42.64,130.91,42.64,201.23,0,275.44-222.87,500.11-494.19,500.11-112.37,0-220.92-39.05-306.17-107.42l-149.22,162.13-149.22-162.13c-85.26,68.37-193.8,107.42-306.17,107.42-271.32,0-494.19-224.67-494.19-500.11,0-70.32,13.6-136.77,42.64-201.23,23.08-50.37,51.86-96.9,90.17-137.69L0,181.65h406.94C583.33,62.53,788.75,0,999.95,0h.1c211.21,0,416.62,62.53,593.01,181.65h406.94l-183.23,200.29c38.31,40.79,67.09,87.32,90.17,137.69ZM1877.95,232.48h-306.17c-168.61-117.23-366.28-177.77-571.68-177.77h-.2c-205.4,0-403.07,60.54-571.68,177.77H122.05l137.56,150.45-11.6,9.76c-46.52,41.02-81.39,91.81-106.58,148.45-25.19,56.64-36.79,117.23-36.79,179.73,0,246.16,197.66,447.34,439.91,447.34,112.37,0,228.66-52.72,310.04-128.93l145.3,160.19.1-.12.1.12,145.3-160.19c81.39,76.21,197.67,128.93,310.04,128.93,242.25,0,439.91-201.18,439.91-447.34,0-62.49-11.6-123.09-36.79-179.73-25.19-56.64-60.06-107.42-106.58-148.45l-11.6-9.76,137.56-150.45ZM1767.48,722.41c0,171.35-138.94,310.3-310.29,310.3s-310.31-138.95-310.31-310.3,138.96-310.3,310.31-310.3l.18.09c171.26.09,310.07,138.95,310.11,310.21ZM1616.7,723.04c-.02-89.3-72.4-161.71-161.7-161.75l-.09-.04c-89.34,0-161.8,72.45-161.8,161.8s72.46,161.8,161.8,161.8,161.79-72.45,161.79-161.8ZM853.11,722.41c0,171.35-138.96,310.3-310.31,310.3s-310.29-138.95-310.29-310.3c.04-171.27,138.85-310.13,310.11-310.21l.18-.09c171.35,0,310.31,138.94,310.31,310.3ZM706.89,723.04c0-89.35-72.46-161.8-161.8-161.8l-.09.04c-89.3.05-161.68,72.45-161.7,161.75,0,89.35,72.45,161.8,161.79,161.8s161.8-72.45,161.8-161.8ZM2730.48,536.24v-100.21h-153.71v596.69h153.71v-357.77c0-64.82,41.56-96.61,106.32-96.61h84.09v-142.3h-71.87c-56.21,0-105.12,29.34-118.55,100.26v-.05ZM3064.91,199.94c-52.55,0-92.88,41.57-92.88,94.16,0,24.64,9.78,48.28,27.2,65.71,17.43,17.44,41.05,27.22,65.68,27.22s48.26-9.78,65.68-27.22c17.41-17.43,27.2-41.07,27.2-65.71,0-52.54-40.34-94.16-92.88-94.16ZM2988.24,1032.67h153.25V436.03h-153.32l.07,596.64ZM3872.03,734.27c0,170.33-138.02,308.42-308.18,308.42-65.35.32-128.96-20.97-180.97-60.54v225.69h-153.31V436.03h153.31v50.46c52.01-39.57,115.62-60.85,180.97-60.54,170.16,0,308.18,138.09,308.18,308.42v-.09ZM3717.72,734.27c0-33.14-9.82-65.53-28.22-93.09-18.4-27.55-44.55-49.03-75.16-61.7-30.59-12.68-64.27-16.01-96.75-9.54-32.49,6.47-62.32,22.42-85.75,45.85-23.42,23.43-39.37,53.29-45.83,85.79-6.47,32.5-3.15,66.19,9.53,96.81,12.67,30.62,34.14,56.78,61.68,75.19,27.53,18.4,59.91,28.23,93.03,28.23,44.4,0,86.98-17.63,118.39-49.03,31.4-31.41,49.05-73.99,49.08-118.42v-.09ZM6537.37,681.92l-89.47-24.55c-58.86-15.32-81.79-33.4-81.79-64.5s32.2-51.54,78.33-51.54,78.35,28.8,78.35,65.56v3.41h141.28v-3.41c0-108.29-88.28-181.04-219.67-181.04s-224.63,72.69-224.63,172.86c0,77.91,51.63,136.64,141.67,161.03l85.68,23.38c65.09,18.02,89.29,38.05,89.29,73.87,0,37.82-34.98,63.23-87.03,63.23s-90.76-34.33-90.76-85.42v-3.33h-150.01v3.33c0,122.41,98.5,207.91,239.54,207.91s234.56-83.51,234.56-198.56c.07-56.2-25.16-130.03-145.32-162.11v-.1ZM4416.05,436.03h153.29v596.69h-153.29v-50.46c-52.02,39.58-115.65,60.86-181,60.54-170.27,0-308.27-138.09-308.27-308.43s138-308.34,308.27-308.34c65.34-.31,128.95,20.97,180.96,60.54l.03-50.54ZM4416.05,734.42c-.01-33.14-9.83-65.53-28.23-93.08-18.4-27.55-44.56-49.03-75.16-61.7-30.6-12.68-64.27-16-96.76-9.53-32.48,6.47-62.32,22.42-85.73,45.85-23.42,23.43-39.37,53.29-45.83,85.79-6.46,32.5-3.14,66.19,9.53,96.79,12.68,30.62,34.15,56.79,61.68,75.19,27.54,18.42,59.92,28.24,93.04,28.24,21.99-.01,43.78-4.34,64.1-12.78,20.33-8.42,38.79-20.77,54.34-36.34,15.55-15.57,27.89-34.05,36.3-54.38,8.41-20.34,12.73-42.14,12.73-64.14v.07ZM5123.15,223.63h153.32v809.08h-153.32v-50.46c-52.01,39.57-115.62,60.85-180.96,60.54-170.25,0-308.27-138.09-308.27-308.43s138.02-308.34,308.27-308.34c65.33-.33,128.94,20.91,180.96,60.46V223.63ZM5123.15,734.37c0-33.14-9.82-65.52-28.22-93.08-18.4-27.55-44.55-49.03-75.16-61.71-30.6-12.68-64.28-16-96.76-9.53-32.49,6.47-62.32,22.42-85.75,45.85-23.42,23.43-39.36,53.29-45.83,85.79-6.46,32.5-3.13,66.19,9.54,96.81,12.67,30.62,34.15,56.79,61.69,75.19,27.54,18.42,59.92,28.23,93.04,28.23,44.4-.01,87-17.66,118.4-49.08,31.4-31.42,49.04-74.04,49.04-118.48ZM5988.52,1032.76h153.31V436.03h-153.31v596.73ZM6065.1,199.94c-52.56,0-92.89,41.57-92.89,94.16,0,24.64,9.78,48.28,27.21,65.71,17.41,17.44,41.04,27.22,65.68,27.22s48.26-9.78,65.67-27.22c17.43-17.43,27.21-41.07,27.21-65.71,0-52.54-40.35-94.16-92.88-94.16ZM7345.59,734.32c0,170.34-138.01,308.42-308.19,308.42s-308.27-138.08-308.27-308.42,138.02-308.34,308.27-308.34,308.19,138.06,308.19,308.38v-.05ZM7204.75,734.32c0-33.14-9.82-65.53-28.22-93.09-18.4-27.54-44.55-49.02-75.16-61.7-30.59-12.68-64.27-16-96.75-9.54-32.49,6.47-62.32,22.43-85.75,45.85-23.42,23.43-39.37,53.29-45.83,85.79-6.47,32.5-3.15,66.19,9.53,96.81,12.67,30.62,34.14,56.79,61.68,75.19,27.53,18.42,59.91,28.24,93.03,28.24,44.42,0,87.01-17.63,118.42-49.05,31.41-31.41,49.06-74.02,49.08-118.46l-.03-.05ZM2651.94,223.63h-588.2v136.88h217.72v672.2h152.8V360.52h217.71l-.03-136.88ZM5626.85,869.32l-136.4-433.29h-161.06l204.59,596.69h184.53l205.8-596.69h-161.06l-136.4,433.29ZM7570.3,536.29v-100.26h-153.71v596.69h153.71v-357.77c0-64.82,41.57-96.61,106.34-96.61h84.09v-142.3h-71.85c-56.24,0-105.12,29.34-118.57,100.26Z"/>
</svg>
